<?xml version="1.0" encoding="UTF-8" standalone="no"?>
<svg
   width="100%"
   height="100%"
   viewBox="0 0 155.23692 91.664391"
   version="1.1"
   id="svg701"
   inkscape:version="1.1.1 (3bf5ae0d25, 2021-09-20)"
   sodipodi:docname="artworks_menu_drawing2.svg"
   xmlns:inkscape="http://www.inkscape.org/namespaces/inkscape"
   xmlns:sodipodi="http://sodipodi.sourceforge.net/DTD/sodipodi-0.dtd"
   xmlns:xlink="http://www.w3.org/1999/xlink"
   xmlns="http://www.w3.org/2000/svg"
   xmlns:svg="http://www.w3.org/2000/svg">
  <sodipodi:namedview
     id="namedview703"
     pagecolor="#505050"
     bordercolor="#eeeeee"
     borderopacity="1"
     inkscape:pageshadow="0"
     inkscape:pageopacity="0"
     inkscape:pagecheckerboard="0"
     inkscape:document-units="mm"
     showgrid="false"
     fit-margin-top="0"
     fit-margin-left="0"
     fit-margin-right="0"
     fit-margin-bottom="0"
     inkscape:zoom="2.8284271"
     inkscape:cx="43.133514"
     inkscape:cy="52.679455"
     inkscape:window-width="1920"
     inkscape:window-height="981"
     inkscape:window-x="0"
     inkscape:window-y="31"
     inkscape:window-maximized="1"
     inkscape:current-layer="group_backgrounds"
     showguides="true">
    <inkscape:grid
       type="xygrid"
       id="grid2339" />
  </sodipodi:namedview>
  <style
     id="style4">
    #group_items&gt;path {
      fill:#000000;
      stroke-width:0.0841259
    }
    #group_items&gt;path:hover {
      fill: yellow;
      cursor: pointer;
    }
    #group_items_blurred&gt;path {
      fill:#000000;
      stroke-width:0.0841259
      cursor: pointer;
    }
    #group_items_blurred&gt;path:hover {
      fill: yellow;
      cursor: pointer;
    }
  </style>
  <defs
     id="defs698" />
  <g
     id="group_items_blurred"
     inkscape:label="Items_Blurred"
     style="display:inline"
     sodipodi:insensitive="true">
    <path
       d="m 46.970828,81.627265 c -2.03202,-0.863541 -3.605094,-3.308881 -2.480147,-5.45134 0.892595,-1.933986 3.396186,-3.781964 5.496694,-2.549422 1.643857,1.572446 1.434369,4.328997 1.024144,6.337052 -0.730673,1.416718 -2.530379,2.110324 -4.040691,1.66371 z m -15.2629,-0.1551 c -3.166764,0.495189 -5.987432,-2.07696 -7.214302,-4.789033 -1.369565,-2.933295 2.549349,-2.180813 3.79637,-0.911013 1.904751,-0.250804 4.563283,0.325868 5.233042,2.653946 0.631541,1.393453 -0.257788,2.953621 -1.81511,3.0461 z m -0.71263,-3.926014 c 3.093876,0.939564 -0.03806,-3.334101 0,0 z m 5.8255,3.787106 c -2.622382,-1.082282 -1.013131,-4.382397 0.972478,-5.165716 2.596843,-0.70579 0.163733,2.871606 -0.341699,3.784573 -0.06106,0.535611 -0.337724,0.944459 -0.630779,1.381143 z m 20.48488,-0.140953 c -2.333051,-0.657276 -1.606351,-3.207775 0.70079,-2.687713 2.98984,0.222211 0.607322,2.10875 -0.70079,2.687713 z m -44.33435,-0.07124 c -2.123192,-0.183172 -4.1193554,-1.954637 -3.9181023,-4.198215 0.189189,-2.785322 1.8406493,-5.694456 4.4752133,-6.811575 2.340348,-0.745874 3.287976,2.123253 3.385836,3.921636 0.385697,2.785242 -0.734102,6.621496 -3.942947,7.088154 z m 0.12325,-3.317205 c 1.896766,-1.072703 1.813125,-4.232127 -0.533553,-4.614191 -2.7913598,0.03299 -0.159942,3.657298 0.533553,4.614191 z m 48.841791,3.361153 c -1.888857,-1.32084 -2.424869,-4.55528 -0.414159,-5.992907 2.272226,-0.100798 1.159003,3.343649 0.994403,4.796311 0.0084,0.487116 -0.352194,0.80169 -0.580244,1.196596 z m -8.710801,-0.424163 c -1.0716,-1.451684 -2.41664,-4.121361 -0.544596,-5.470535 2.9377,-0.455382 1.80711,3.684845 0.757656,5.104222 z m 12.868851,-0.09777 c -1.092259,-1.314553 -2.587105,-4.612924 -0.0362,-5.153696 2.62418,0.449555 1.056591,3.909839 0.0362,5.153696 z M 20.509878,79.899838 c -2.828086,-0.415401 -2.494411,-4.16801 -1.331924,-6.012256 2.044627,-1.503589 0.272177,3.180827 1.721469,3.783737 0.496184,0.703317 0.752478,2.001036 -0.389545,2.228519 z"
       style="display:inline;"
       id="path_item_blurred_other"
       sodipodi:nodetypes="cccccccccccccccccccccccccccccccccccccccccccc"
       onclick="moveTo('other')"
       inkscape:label="Other" />
    <path
       d="m 50.995,64.476985 c -2.290499,0.32997 -3.372149,-2.215122 -4.141853,-3.909644 -1.400281,-1.810119 -3.06311,0.06821 -3.914776,1.327504 -1.601912,1.16609 -3.697209,1.17436 -5.586697,1.402676 -2.965947,0.04257 -6.361817,-0.261115 -8.51558,-2.540199 -1.343198,-1.543219 -1.259567,-3.986219 -0.113857,-5.595794 0.566885,0.801456 0.793002,2.766756 2.321725,3.108237 1.942287,0.886672 4.084665,0.04084 6.060178,-0.268721 2.405494,-0.529166 5.017439,-1.067926 7.387398,-0.09799 1.457327,0.02433 3.138743,-2.434714 4.180772,-0.246851 0.95128,1.281631 0.727393,3.248631 2.102512,4.222115 2.413289,0.609179 1.747268,-2.314489 1.980782,-3.673885 1.683288,0.48396 2.539389,3.225817 2.842631,5.024036 -0.248372,2.369785 -3.06112,1.922044 -4.603235,1.248521 z M 40.83227,61.837699 c 2.00222,-0.75589 -0.202712,-3.218595 -1.439126,-1.612919 -1.382739,0.742788 0.752392,1.662404 1.439126,1.612919 z m -7.05766,-0.08764 c 2.08271,-0.804419 -0.396226,-3.137536 -1.59328,-1.596691 -1.450715,0.76526 0.98039,1.580326 1.59328,1.596691 z m -20.66182,1.413702 c -2.273148,0.838381 -4.1557569,-1.661465 -3.7382045,-3.781136 -0.078261,-1.561671 0.8425505,-5.577417 2.9805395,-4.071597 0.667603,1.606023 1.789231,2.690785 3.513209,2.869202 1.317831,0.586227 3.183577,1.223062 3.285894,2.911834 -0.307132,1.697407 -2.556297,1.776113 -3.970696,1.96313 -0.689308,0.05282 -1.38076,0.06746 -2.070742,0.108567 z m 3.94352,-1.714558 c 2.365247,-0.420027 -0.129899,-3.718778 -1.17639,-1.587271 -0.07879,0.736499 0.677345,1.194475 1.17639,1.587271 z M 13,61.306232 c -1.001351,0.0543 0.579214,0.890283 0,0 z m 10.32609,1.90888 c -2.297967,-0.811121 -1.496087,-4.673057 0.786382,-4.889246 1.308626,1.334444 0.177168,3.409745 -0.559734,4.738384 -0.07555,0.05029 -0.151098,0.100576 -0.226648,0.150862 z"
       style="display:inline;"
       id="path_item_blurred_cartoons"
       onclick="moveTo('cartoons')"
       inkscape:label="Cartoons" />
    <path
       d="m 36.00266,48.280762 c -6.175023,-2.333868 3.590538,-4.945885 2.728035,-5.313969 -2.006427,-2.835805 -1.23288,-8.65911 1.523923,-3.318737 1.040876,3.282451 -0.009,8.495019 -4.251958,8.632706 z m 14.05515,-1.307147 c -5.092567,-2.87796 -4.618328,-15.972532 2.568265,-10.438584 1.006773,3.7515 -3.976631,6.66175 -2.568265,10.438584 z m -6.1854,-7.82371 c 3.93922,-0.824203 -3.579957,-3.512283 0,0 z m 6.50571,-0.975102 c 5.695227,-0.66069 -3.176826,-4.075857 0,0 z m 13.848782,8.487811 c -4.723544,-0.93917 4.308175,-8.112697 -3.358933,-7.310213 -3.14546,0.490249 -7.419214,-5.894989 -2.893837,-4.298409 3.439973,3.045016 14.489122,3.085271 8.678009,10.19515 l -1.107613,0.881273 z M 19.21955,41.164566 c -6.798818,-3.951005 2.747593,-9.467359 4.931615,-3.017688 0.842646,2.876933 -2.783172,5.2295 -4.931615,3.017688 z m 3.1389,-1.173716 c 4.999201,-3.391194 -4.682807,-1.894388 0,0 z m 5.44194,0.70635 c -7.392085,-4.61535 6.696203,-8.364916 4.380551,-0.984416 -0.689296,1.779478 -2.945117,1.803061 -4.380551,0.984416 z m 2.92672,-1.382533 c 3.608864,-3.391188 -4.253843,-0.286321 0,0 z m 1.23751,-3.953001 0.21873,-0.133685 z m -21.92217,5.134258 c -8.3181147,-3.326262 5.825134,-15.59298 4.525734,-5.348419 -0.950865,2.17371 -2.677193,3.9131 -4.525734,5.348419 z m 2.39974,-6.31473 c 3.706807,-1.349682 -3.4330536,-3.423201 0,0 z m -0.5416,-3.822439 c 0.546461,0.920809 0.162368,-0.611526 0,0 z m 28.80785,9.548284 c -4.199742,-3.19846 4.81343,-6.660713 0.671771,-0.975059 z"
       style="display:inline;"
       id="path_item_blurred_photography"
       onclick="moveTo('photography')"
       inkscape:label="Photography" />
    <path
       d="m 42.753964,24.88947 c -0.180613,-3.700122 7.889595,-0.121967 5.586528,-5.106613 -2.131425,-1.05513 -5.781013,-4.273255 -1.419126,-5.188147 4.715278,1.028372 4.238567,8.683212 -0.02602,10.128772 -1.318914,0.47838 -2.777333,0.321493 -4.141386,0.165988 z m 3.0585,-6.47214 c 2.07349,-1.396274 -2.746791,-1.20666 0,0 z M 9.355989,20.43242 C 8.1226475,16.685615 8.1333414,9.5943983 12.740869,8.6391697 c 5.530981,-0.3923078 8.328279,7.7887933 3.208365,10.4267613 -1.981209,1.152911 -4.347163,1.3655 -6.593245,1.366489 z M 12,18 c 4.716468,1.564958 6.243815,-8.235901 0.943389,-6.926293 C 10.736898,12.821519 13.37951,15.994355 12,18 Z m 30.539134,2.31055 c -2.871532,-0.697821 -3.333491,-7.827708 0.351187,-5.204376 0.958865,1.654643 -0.162477,3.506088 -0.351187,5.204376 z M 26.63716,19.89326 c -3.681257,2.257419 -2.691798,-7.464287 -5.563331,-2.964465 -5.408302,0.648621 0.754171,-7.7318803 3.957148,-4.337777 0.787457,3.861935 3.9787,5.026013 7.567173,3.581742 5.254417,0.559518 -0.365574,5.778344 -3.202512,3.360837 -0.926529,-0.09996 -1.914983,-0.08912 -2.758478,0.359663 z m -2.66433,-1.38851 c 1.967495,-0.338012 -1.387826,-0.958436 0,0 z m 0.88424,-1.99683 -0.01228,-0.179665 z m 13.106494,2.53155 c -2.133234,-0.286595 1.61378,-2.070358 0,0 z m -0.30611,-5.75052 c -0.302038,0.776679 -0.592796,-0.419886 0,0 z"
       style="display:none;"
       id="path_item_blurred_drawing"
       onclick="moveTo('drawing')"
       inkscape:label="Drawing" />
  </g>
  <g
     id="group_items"
     inkscape:label="Items"
     style="display:inline"
     sodipodi:insensitive="true">
    <path
       d="m 46.970828,81.627265 c -3.27561,1.048322 -2.94804,-4.335609 -0.25591,-3.922911 -6.44098,-1.575623 0.97911,-10.535934 3.35694,-5.794105 -4.68548,1.241448 -2.04958,2.722529 0.74822,3.79423 1.98731,2.967118 -0.37587,6.432003 -3.84925,5.922786 z m -15.2629,-0.1551 c -1.84167,-1.6087 -6.15528,0.195561 -4.832,-4.17719 -0.27104,-2.33487 -3.83381,6.46385 -3.54596,0.771321 0.70363,-2.460104 -0.91277,-12.845734 0.86494,-5.794013 -0.45952,3.39102 0.35108,4.696291 3.35063,2.604506 1.90424,0.146729 0.55193,7.72241 1.8129,2.973645 0.54577,-5.669218 9.01235,-1.311102 2.80968,0.412341 -4.66856,1.387709 2.46241,1.33141 2.85361,1.346485 -0.73794,1.094751 -1.93343,2.004812 -3.3138,1.862905 z m -0.71263,-3.926014 c 3.8543,-0.07213 1.75762,-3.574433 0,0 z m 5.8255,3.787106 c -5.16528,-3.992297 3.9158,-9.770345 5.13986,-4.993611 -6.64124,-2.642862 -2.92211,3.451097 -5.13986,4.993611 z m 20.48488,-0.140953 c -4.34794,0.50526 0.19974,-8.317078 -0.97724,-1.894344 0.94511,2.584784 3.11155,-5.472074 2.72932,0.23346 -0.0712,0.847471 -0.73239,1.895564 -1.75208,1.660884 z m -44.33435,-0.07124 c -6.0674607,-0.08585 -3.4418215,-17.351402 3.03206,-11.395299 0.50001,3.434899 2.37321,11.182279 -3.03206,11.395299 z m 0.12325,-3.317205 c 3.12665,-2.79089 -1.60389,-11.310623 -1.17989,-3.769879 0.1755,1.243757 7.1e-4,2.95742 1.17989,3.769879 z m 48.841791,3.361153 c -2.742541,-2.208623 -1.60099,-13.164664 2.40481,-7.903844 0.10861,2.568819 -3.341179,-2.261169 -1.34118,2.738831 -1.999999,1 -0.81791,4.085283 -1.06363,5.165013 z m -8.710801,-0.424163 c -2.0843,-2.044159 -1.22547,-10.6669 0.6864,-9.532076 C 54.062675,72.184156 53,72.999999 55,74.999999 c -2,0 -1.230404,3.950126 -0.852152,5.691755 z m 12.868851,-0.09777 c -3.54598,-2.768194 0.86372,-12.415598 2.43388,-5.36525 -2.565757,-2.074666 -2.5283,-0.27783 -1.5283,0.72217 -2,1 0.214749,4.00254 -0.90558,4.64308 z M 20.509878,79.899838 c -2.79685,-0.933051 -2.40696,-10.277713 -1.08771,-9.740238 -1.81954,3.77548 5.86209,2.936453 0.62223,4.387199 -2.32217,2.360415 4.68349,5.000961 0.46548,5.353039 z"
       style="display:none;"
       id="path_item_other"
       sodipodi:nodetypes="cccccccccccccccccccccccccccccccccccccccccccccc"
       onclick="top.getSectionSubmenu('div_artwork_section_other')"
       inkscape:label="Other" />
    <path
       d="m 50.995,64.476985 c -6.22474,0.600808 -3.88608,-4.100721 -2.31393,-7.650393 -3.39921,2.394587 -2.4602,6.180361 -6.35354,5.89585 -3.79641,-0.232873 -5.26653,-1.242682 -9.03039,0.254852 -3.163,1.179856 -6.86835,0.141192 -4.98186,-4.425204 1.67752,-3.003444 -2.81151,-2.531189 0.49732,-4.440337 0.29117,-5.682006 0.0413,-2.475626 1.07165,0.760412 C 33.50992,54.53065 29,56 28.98659,60.067459 c 1.66779,5.518478 2.0834,-7.091048 6.53703,-2.761896 2.03709,3.324182 8.71375,-3.288939 8.7775,3.600346 -0.70054,-3.263392 1.82643,-3.338142 4.45412,-5.306708 4.94307,1.435622 -4.63817,8.799646 2.68961,7.079501 3.99922,0.612405 4.18106,-3.451194 -0.14294,-2.638498 -3.64075,-3.173769 5.92975,-3.349211 2.11854,-2.267007 -5.23934,1.232537 7.495229,2.037949 1.20954,5.781066 -1.05723,0.779045 -2.376,0.866583 -3.63499,0.922722 z M 40.83227,61.837699 c 5.9852,-1.603184 -4.69405,-6.056925 -1.44828,-0.647657 l 0.70538,0.469373 z m -7.05766,-0.08764 c 5.01349,-1.17287 -0.25453,-2.286223 0.0499,-4.205187 -1.80283,0.610157 -2.72449,4.384554 -0.0499,4.205187 z m -20.66182,1.413702 c -6.5314001,0.399057 -3.654003,-15.788538 1.59202,-9.382646 -4.885622,-1.825138 -3.55899,6.786615 0.89879,5.720538 0.16408,-4.966863 4.66279,-0.767159 4.50077,1.711984 5.4845,3.244724 -4.08364,-0.07532 -5.83931,1.951157 l -0.54382,0.08943 z m 3.94352,-1.714558 c 3.20443,-3.888752 -2.62857,-4.384922 0,0 z M 13,61.306232 c 0.2898,-0.363184 -0.85701,0.155997 0,0 z m 10.32609,1.90888 c -4.41572,-3.143065 2.32614,-10.574893 2.96786,-5.059765 -5.82128,-2.380031 -0.16568,4.705771 -2.96786,5.059765 z"
       style="display:none;"
       id="path_item_cartoons"
       inkscape:label="Cartoons"
       onclick="top/getSectionSubmenu('div_artwork_section_cartoons')"
       sodipodi:nodetypes="ccccccccccccccccccccccccccccccccccccc" />
    <path
       d="m 36.00266,48.280762 c -5.06356,0.927925 -3.66765,-7.447636 0.23339,-6.186343 -6.23814,4.119877 5.05716,7.354265 3.0853,0.376718 1.15338,-5.548733 -6.49425,-1.067141 -4.8678,-6.859498 1.73041,-2.720264 3.73762,-0.294705 0.74347,-0.007 -1.35393,4.038471 4.02737,2.784859 2.28258,-0.918724 2.26638,-0.01043 3.72933,9.319236 2.11109,12.425687 -0.92379,0.92871 -2.30993,1.284652 -3.58803,1.169522 z m 14.05515,-1.307147 c -1.74353,-3.271958 0.13549,-8.376944 -5.26261,-7.038218 -6.66294,0.01212 2.27782,-9.060708 1.75878,-2.168949 2.11711,5.783733 2.93319,-10.047718 7.54012,-1.84344 0.70034,4.106921 -6.41238,3.747492 -3.62197,8.984617 -0.19901,0.343691 0.31125,2.084968 -0.41432,2.06599 z m -6.1854,-7.82371 c 4.60581,-3.901769 -2.69914,-3.858159 0,0 z m 6.50571,-0.975102 c 5.18411,-1.584882 -1.40863,-5.247568 0,0 z m 13.848782,8.487811 c -2.390861,-0.687372 -5.718652,-3.586953 -7.371992,-3.052052 3.515691,-3.50326 10.375752,5.919032 9.369852,-1.932388 0.0752,-5.223464 -1.48354,-1.157132 -3.92148,-0.769633 -1.152281,-1.00015 -5.790702,-0.278241 -3.532662,-4.390627 -1.89792,-1.977827 -4.68964,8.002579 -3.62691,1.256423 1.80418,-1.835332 -0.31394,-12.207427 1.46552,-5.588626 -1.41811,4.360948 5.823592,1.242752 2.90342,6.568925 2.794742,3.765933 3.068772,-7.210043 3.068812,-1.80295 -0.34641,6.102652 3.09684,-1.091057 3.4685,-2.624729 0.0167,3.554124 4.54517,12.180961 -1.82306,12.335676 z M 19.21955,41.164566 C 16.93959,40.015561 20.43521,32.462264 17,37.653116 c -1.55811,5.445507 -2.34486,-0.953451 -0.26494,-2.964941 0.24949,-3.369232 0.98099,-6.777025 1.00377,-1.458544 1.83616,1.682922 3.03198,3.452905 2.29369,6.670334 -1.88071,-7.245457 9.55326,-3.32626 4.04743,1.003886 -1.60289,0.484307 -3.26844,-0.250589 -4.8604,0.260715 z m 3.1389,-1.173716 c 5.02219,-3.984001 -4.74292,-4.612461 0,0 z m 5.44194,0.70635 C 23.86788,39.069204 26.4673,29.67095 27.15591,29.38171 c -1.25861,3.418585 -0.289943,3.513176 2.0774,4.096861 -6.134715,-0.776668 -0.30347,11.369576 -0.64847,3.204829 4.00942,-6.57638 7.98106,4.746887 1.75985,3.416271 -1.33526,-1.095221 -1.52166,0.716782 -2.5443,0.597529 z m 2.92672,-1.382533 c 5.34645,-2.296101 -4.04627,-4.671512 -0.97216,-0.210776 0.38176,-0.206234 0.6205,0.303808 0.97216,0.210776 z m 1.23751,-3.953001 0.25831,-0.157875 z M 10.04245,40.495924 C 7.8607569,38.601361 7.4864379,27.79471 13.34124,29.31841 c 5.03214,0.3914 2.47823,7.489649 -1.36623,7.233932 -0.3638,1.776709 1.46856,4.700029 -1.93256,3.943582 z m 2.39974,-6.31473 c 4.64909,-1.169512 -1.10357,-6.792154 -0.2508,-1.509596 0.41994,-0.530639 -0.72601,2.63843 0.2508,1.509596 z m -0.5416,-3.822439 c 0.40111,-0.375145 -0.38887,-0.112596 0,0 z m 28.80785,9.548284 c -3.07815,-2.896959 1.63643,-11.376909 3.83305,-5.287075 -4.58859,-3.772937 -1.97033,5.090538 -3.83305,5.287075 z"
       style="display:none;"
       id="path_item_photography"
       inkscape:label="Photography"
       onclick="top.getSectionSubmenu('div_artwork_section_photography')"
       sodipodi:nodetypes="cccccccccccccccccccccccccccccccccccccccccccccccccccccccccccccccc" />
    <path
       d="m 42.753964,24.88947 c -3.53633,-0.008 -2.17865,-3.60381 0.8332,-1.35335 3.13324,0.16798 8.29655,-3.05806 4.42942,-6.2193 -2.56732,5.38604 -6.3106,-2.70595 -0.94029,-3.18859 5.43108,4.47403 3.83044,11.76259 -4.32233,10.76124 z m 3.0585,-6.47214 c 3.78027,-1.89174 -0.87264,-5.67954 -0.77623,-0.33092 z M 9.355989,20.43242 C 6.3962399,18.24597 11.2455,12.97763 8.898058,9.503563 15.28744,6.1768321 23.54589,14.64987 15.71373,18.88592 c -1.80768,1.38594 -4.17357,1.51136 -6.357741,1.5465 z M 12,18 c 5.94195,-0.35215 6.30245,-7.07287 0.18786,-7.591619 C 10.40304,10.651881 14.06517,15.88444 12,18 Z m 30.539134,2.31055 c -3.86031,-0.71922 2.33769,-9.14082 -1.9119,-2.97649 -3.29029,5.91421 -0.19245,-7.482167 3.23743,-3.07266 -0.43824,2.08389 -3.23799,5.39166 0.52726,5.26125 l -0.75034,0.7489 z M 26.63716,19.89326 c -4.34991,1.31689 -4.76617,-4.55332 -1.44919,-4.81242 -0.92472,-5.898477 -5.26466,2.52452 -4.47914,4.73079 -7.03296,-2.41254 6.2914,-14.3380371 5.27814,-4.86525 0.15373,3.57503 1.26919,3.20505 2.3334,0.35806 1.325964,2.39758 1.808014,4.0112 2.504404,0.19886 1.40476,-0.63682 2.30366,4.87917 2.82154,0.43083 3.2651,-4.38649 2.26837,6.54061 -2.20295,3.24056 -1.51326,0.91617 -3.271814,-0.3155 -4.806204,0.71857 z m -2.66433,-1.38851 c 2.65587,-1.46889 -1.52642,-3.6053 0,0 z m 0.88424,-1.99683 -0.0309,-0.452 z m 13.106494,2.53155 c -3.01274,-1.16765 0.44066,-7.61103 -0.14616,-1.37825 -0.15451,0.68036 1.87844,1.28265 0.14616,1.37825 z m -0.30611,-5.75052 c -0.97853,-0.39566 0.95988,-0.52915 0,0 z"
       style="display:inline;"
       id="path_item_drawing"
       onclick="top.getSectionSubmenu('div_artwork_section_drawing')"
       inkscape:label="Drawing" />
  </g>
  <g
     id="group_backgrounds"
     inkscape:label="Backgrounds"
     style="display:inline"
     inkscape:groupmode="layer">
    <path
       id="path_background_other"
       style="display:none;fill:#000000;stroke-width:0.08458"
       inkscape:label="Other"
       d="m 84.056641,-0.09765625 c -0.0336,-3.5759e-4 -0.06576,9.1344e-4 -0.09766,0.0019531 -0.680392,0.02218153 -0.961163,0.36450651 -0.371093,1.13085935 4.760758,1.4973719 2.175917,4.0470024 -0.5,5.40625 4.896388,0.5908486 11.004143,-0.2134887 15.15039,3.6777348 3.611252,3.890914 -8.983229,10.337365 -1.763672,14.541015 0.429397,-0.12718 0.838042,-0.19143 1.240235,-0.236328 -2.621719,-0.19228 -3.472402,-3.234273 -2.375,-5.273437 1.992099,-5.204223 9.614589,-11.5491514 13.476569,-8.074219 0.0949,5.868819 -5.51316,11.551705 -11.03321,13.335937 7.06678,-0.716468 9.68866,10.638088 0.970703,11.394532 -7.844515,1.644304 2.883867,2.174826 4.789067,5.164062 4.78818,3.519135 4.90691,10.402113 0.37891,14.21875 -0.85837,3.636741 -13.156791,4.255863 -7.349617,7.146485 7.883687,1.854989 6.294097,9.906161 -0.169922,13.240234 -7.248678,5.420321 -5.033838,2.9209 -9.476563,2.96875 -3.902244,-2.025784 -3.366624,-1.363044 -6.513672,-1.34375 -1.8596,0.0114 -1.94263,-0.1038 -5.111328,-1.5625 -5.510298,-0.128154 -3.131576,2.317103 0.138672,3.550781 1.742176,0.657224 3.513352,1.153541 3.800781,2.388672 0.158614,0.681593 0.47329,1.155366 -0.07422,1.863281 -0.779218,5.540809 6.802699,6.443449 9.21289,8.0625 3.756028,0.682888 3.787192,-5.349379 4.482422,-7.882812 2.763884,-2.268413 5.052832,11.080629 10.091797,7.451172 -4.991142,-1.719818 -5.216005,-10.840233 -10.917969,-9.484375 -1.528873,-3.859242 6.521188,-4.618987 8.326179,-7.960938 4.71944,-3.69018 1.88158,-10.141965 -2.802741,-12.228515 1.041611,-1.44018 7.294371,-3.497214 8.791021,-7.195313 4.98511,-6.367128 -0.60097,-15.727218 -7.832037,-17.078125 4.459257,-0.7713 9.650117,-6.364074 5.236337,-11.15625 -6.226991,-2.907566 4.06292,-5.204915 4.61718,-9.791016 5.03312,-5.529791 -3.34648,-9.3717111 -7.10156,-4.878906 C 99.002227,7.190001 93.031694,5.0887101 88.132812,5.5644531 91.581999,2.7002529 86.173464,-0.07512793 84.056641,-0.09765625 Z M 97.783203,24.412109 c -0.022,0.0022 -0.04627,0.0093 -0.06836,0.01172 0.0085,6.27e-4 0.01485,0.0053 0.02344,0.0059 0.01495,-0.0048 0.02997,-0.01275 0.04492,-0.01758 z m -40.875,-24.47851525 c -2.498946,0.01846721 -5.040617,0.51494269 -4.228515,2.13671875 2.196,-0.072956 4.31785,-0.6772217 6.433593,-1.2109375 3.688954,-0.16337894 1.616233,-0.78639507 -1.146484,-0.90625 -0.34534,-0.01498187 -0.701602,-0.02216942 -1.058594,-0.01953125 z M 4.7128906,0.2734375 C 3.6318959,0.27969745 0.4682519,1.5268603 0.13476562,3.7949219 0.85064377,3.1226602 1.6183775,2.4847734 2.5019531,2.0429688 5.0244335,0.92355054 5.4014332,0.35449881 4.8574219,0.28125 4.814921,0.27552744 4.7660543,0.27312963 4.7128906,0.2734375 Z M 115.04492,16.517578 c -0.0954,8.33e-4 -0.19195,0.0065 -0.29101,0.01563 -3.48696,0.321747 -9.06036,5.676434 -4.41993,8.013672 2.53575,-0.701901 5.46548,-2.116907 6.72657,-4.576172 0.40518,-2.522159 -0.58447,-3.465621 -2.01563,-3.453125 z m -1.48047,0.69336 c 5.44911,0.130452 0.55381,6.323404 -3.32422,6.710937 -3.10145,-1.767424 1.24197,-5.916916 3.32422,-6.710937 z m 20.22461,2.037109 c -4.43525,0.368609 -8.99425,3.281071 -10.8789,7.175781 1.68378,0.532348 1.7556,1.024508 1.51757,2.199219 1.68236,-3.563598 8.65319,-8.060244 11.56446,-4.205078 -3.71068,3.350447 -0.67473,7.411747 0.12109,10.527343 -4.76257,2.407797 3.44869,-1.007554 -1.48633,1.888672 -3.68571,1.599449 0.2913,0.822497 -2.11718,2.425782 1.4686,-0.0071 0.57609,0.62501 -1.35352,1.80664 0.87461,1.104426 5.68578,-6.538638 8.93945,-2.267578 0.20043,0.245386 0.33669,0.459065 0.48633,0.679688 -0.67509,-1.704441 -1.34568,-3.441608 -0.52539,-4.710938 1.03458,-5.74641 -1.06886,-12.702013 -6.26758,-15.519531 z m 6.79297,20.230469 c 0.29029,0.732916 0.57949,1.462053 0.75195,2.140625 0.0653,-0.562715 -0.155,-1.260532 -0.75195,-2.140625 z m 0.75195,2.140625 c -0.313,2.699179 -6.87716,2.463828 -6.86328,6.039062 -4.66144,1.337175 1.22237,-7.224787 -3.14648,-2.519531 -0.30704,1.156447 -2.48444,3.422536 -3.0293,2.3125 -2.32249,1.232468 -5.43036,3.548034 -0.79101,0.933594 -2.66348,2.171623 0.2293,0.595082 1.46289,-0.347657 -2.27948,2.279289 -2.01017,1.808208 0.70898,0.583985 -2.34492,2.65939 -2.39675,4.526025 -3.63867,6.675781 -0.35405,0.612864 -0.78786,1.245032 -1.41992,1.929687 -0.57773,3.033066 -3.54014,2.916514 -0.54883,0.0293 -2.71771,2.297177 -1.82683,0.752469 -0.16797,-0.986328 -2.59644,2.188915 -1.89204,0.77586 -0.28711,-1.15625 -3.97729,3.206163 -2.87602,-5.285887 1.04102,-3.40039 3.8254,-2.089258 -5.28664,0.671041 -2.54688,-1.63086 4.03668,-3.721481 -2.82274,2.884026 1.97656,-0.429687 3.56688,-1.725548 2.54902,-2.69701 0.53907,-1.263672 1.38707,-1.228562 0.9343,-1.240917 -1.25,-0.119141 -2.38052,3.016242 -1.79812,0.914556 0.52929,-1.095703 -1.12499,0.183802 -1.32782,0.400758 0.79102,-1.339844 6.9273,-3.315316 -2.36147,-0.856009 -3.72852,1.226563 -7.53264,-0.712726 3.76754,-4.131843 4.64454,-7.134766 3.72047,-8.245073 -3.66443,6.48572 -3.17969,-0.0059 4.72157,-1.875086 -1.67578,-2.956356 -0.17383,1.777344 -2.16255,1.670651 -8.6017,5.681445 -1.75195,6.050781 1.21248,2.676103 -0.1573,8.306749 0.7539,10.8125 -0.122,2.238161 0.21497,-0.06432 1.25,2.212891 1.88072,0.1857 4.36588,-0.95897 2.91602,-1.410157 4.04453,-2.609174 0.92055,-1.666302 3.63086,-4.585937 3.55531,2.759779 0.59858,6.500882 -4.01172,8.134765 -1.83142,5.113169 -7.02429,6.639705 -8.14063,12.871094 -1.49267,5.185893 -6.54738,11.203863 -6.13476,15.701172 0.76464,-0.458586 1.39639,-1.211584 1.94726,-2.134766 0.17355,0.771393 2.70161,0.789679 1.97852,0.691407 l -1.70703,-1.25586 c 1.3821,-2.866644 0.49708,-1.671344 3.0957,-1.050781 -2.08708,-1.409785 -1.64537,-2.203346 -0.90039,-4.140625 0.27989,0.327454 1.46746,1.456201 1.6875,1.162109 -1.40254,-1.574449 -1.54742,-2.184615 -0.74023,-3.582031 0.5389,0.557962 2.27012,1.044893 2.04101,0.605469 -0.10796,-0.0685 -0.82414,-0.97664 -1.52734,-1.136719 l -0.0918,-0.132812 c 0.15235,-0.235302 0.2511,-0.413542 0.44141,-0.697266 0.5319,-2.13478 0.57981,-1.058192 2.24414,-0.5 -0.28293,-0.91147 -0.72764,-1.546033 -1.38867,-1.632812 -0.11133,-0.126955 -0.0739,-0.08488 -0.11133,-0.126954 0.2733,-0.841843 0.56714,-1.671269 0.8789,-2.482422 0.42428,0.781449 1.81364,1.369986 1.78711,0.841797 -0.12986,-0.236842 -1.12177,-1.026299 -1.57617,-1.382812 1.41991,-3.477757 3.4519,-6.302522 7.64453,-6.230469 4.15008,-6.389317 6.28289,4.011936 6.07227,8.257813 0.15025,0.78032 0.27743,3.454462 0.39648,5.507812 0.66575,-1.878214 5.44928,-1.131259 3.22071,-4.236328 -3.21271,0.890975 -3.25619,1.050729 -3.26954,-3.039063 3.36215,1.593392 3.76156,-5.570978 0.78907,-2.685546 -1.53981,-0.996269 -0.72181,-7.52398 -5.74024,-7.021485 -5.41161,2.975401 -0.96878,-2.60933 1.48243,-3.320312 -0.39201,1.681515 4.94642,5.77714 4.89062,6.660156 5.5161,-0.979265 -2.24987,3.638474 2.86328,1.361328 1.18836,4.498267 4.03785,1.183287 4.41602,-1.8125 0.93093,-4.618065 7.80919,2.805807 8.18359,5.916016 1.02286,4.807013 3.2284,9.341828 4.06641,14.203125 -0.53441,3.888688 2.71962,4.143675 0.97656,-0.02344 -1.94296,-6.548177 -1.76216,-13.980735 -5.8125,-19.734375 -3.2922,-3.8986 -9.80203,-3.179367 -10.50781,-9.240234 -6.68355,3.230639 -5.58354,-5.102574 -6.54883,-9.498047 4.52648,0.959497 1.94426,-4.83343 6.10742,-4.337891 3.36778,-0.385534 3.73235,-1.846491 3.27734,-3.636718 z m -8.39453,40.445312 c -0.11421,0.322213 -0.0926,0.730675 0.0918,1.240235 -0.031,-0.408433 -0.0601,-0.694278 -0.0918,-1.240235 z m 0.0918,1.240235 c 0.0834,1.09934 0.16684,1.757216 0.25391,0.582031 -0.11463,-0.212933 -0.18767,-0.399007 -0.25391,-0.582031 z m -6.99414,-28.007813 c 0.10716,-0.182509 -0.21139,-0.317258 -0.61914,-0.314453 -0.0263,1.81e-4 -0.0531,4.58e-4 -0.0801,0.002 -0.51776,0.026 -1.14001,0.272854 -1.23242,0.912109 1.29161,-0.186831 1.82448,-0.4171 1.93164,-0.599609 z m -1.60938,-26.673828 c -0.31096,0.658681 -0.46274,1.290214 -0.35156,1.826172 0.1219,-0.775965 0.25406,-1.344956 0.35156,-1.826172 z m 7.41407,-8.847656 c 2.53142,-0.07123 6.82749,2.330907 2.875,2.423828 0.67319,-0.654369 -2.32125,-2.565741 -4.45508,-1.201172 0.007,-0.82122 0.62356,-1.165687 1.46094,-1.216797 0.0393,-0.0024 0.079,-0.0047 0.11914,-0.0059 z m -11.53321,0.925781 c -0.0908,4.2e-5 -0.18283,0.0045 -0.27734,0.01172 -0.24329,0.0187 -0.49617,0.06572 -0.74805,0.128906 1.37861,-0.02895 3.0203,2.141942 -0.95703,3.058594 -0.44129,-1.724376 -0.11679,-2.569235 0.41797,-2.890625 -1.52903,0.578634 -2.67896,1.912897 -0.62891,3.416015 0.90685,0.04525 1.79358,-0.28011 2.54493,-0.765625 1.88161,-2.131332 1.01051,-2.959606 -0.35157,-2.958985 z m 13.08399,0.474609 c 0.26867,-0.0039 0.0527,0.237112 -1.5332,0.853516 0.16296,-0.446049 1.0388,-0.78522 1.43554,-0.84375 0.0372,-0.0055 0.0699,-0.0094 0.0977,-0.0098 z m 1.20898,0.01367 c -0.15603,0.0058 -0.33869,0.04941 -0.0781,0.113281 0.36363,-0.08718 0.23423,-0.119108 0.0781,-0.113281 z m -3.57422,0.193359 c 0.33629,-0.002 0.56687,0.354706 -0.46875,0.511719 0.0271,-0.380339 0.26698,-0.510517 0.46875,-0.511719 z m 2.75586,0.277344 c 0.0499,-5.52e-4 0.0895,0.006 0.11914,0.01758 0.39502,0.154505 -0.96436,1.30666 -2.86718,1.271485 1.54125,-0.960708 2.39891,-1.285196 2.74804,-1.289063 z m 1.7793,0.507813 c 0.0362,-1.28e-4 0.073,0.0016 0.10742,0.0039 0.27563,0.01874 0.44347,0.113025 -0.32422,0.226563 -0.29296,-0.164932 -0.0366,-0.229572 0.2168,-0.230469 z m -7.38867,0.236328 c 0.0278,-0.0039 -0.0688,0.07749 -0.41211,0.322265 -0.88517,0.477952 0.3286,-0.310593 0.41211,-0.322265 z m 0.22656,1.363281 c 0.13566,-0.0022 0.21142,0.04792 -0.18164,0.15625 -0.14959,-0.09961 0.046,-0.154068 0.18164,-0.15625 z m 9.13867,0.310547 c 0.0457,-0.0029 0.0938,0.0054 0.14453,0.02344 1.21807,0.433811 3.75804,6.660213 0.85743,7.09375 -1.86829,1.005388 1.29185,-1.359379 0.51953,-1.167968 -4.13877,1.743468 -1.18129,-0.089 -0.0195,-1.914063 -2.96092,1.605623 -2.15524,1.402627 -0.2461,-0.771484 -1.92886,-0.399032 -4.62999,2.457799 -1.63867,-1.3125 -0.12128,-1.375162 0.063,-1.930716 0.38281,-1.951172 z m -11.49804,0.628906 c 0.52329,-0.02104 0.40665,0.49994 -1.62305,1.5625 l -0.68555,0.351563 c 0.45615,-1.216109 1.67445,-1.852353 2.25586,-1.910156 0.0182,-0.0018 0.0359,-0.0032 0.0527,-0.0039 z m 11.99218,1.210938 c -0.006,3.99e-4 -0.0134,0.0018 -0.0215,0.0039 -0.15509,0.03968 -0.6168,0.392759 -1.45313,1.300781 1.08466,-0.544319 1.67384,-1.317062 1.47461,-1.304687 z m -0.54687,1.910156 c 0.0226,-0.0036 -0.18384,0.177754 -0.82227,0.703125 -1.3658,0.980018 0.75457,-0.692391 0.82227,-0.703125 z m -1.41992,1.994141 c 0.12325,-0.0096 0.20205,0.114307 0.0508,0.513672 -0.63118,-0.02438 -0.30418,-0.462297 -0.0762,-0.509766 0.009,-0.0018 0.0172,-0.0033 0.0254,-0.0039 z m -4.40625,0.992187 c -5.53517,0.241288 -0.51903,1.104036 1.94726,2.988281 2.23471,-0.189809 -1.13367,-2.761204 -1.94726,-2.988281 z m -5.50391,0.123047 c -1.05411,0.04144 -3.61982,1.144941 -2.66016,2.966797 0.6558,-0.03958 0.4983,-1.217421 1.14063,-1.476563 2.09045,-0.980476 2.22633,-1.448108 1.66406,-1.488281 -0.0439,-0.0031 -0.0927,-0.004 -0.14453,-0.002 z m 10.55859,0.539062 c 0.0327,-0.0011 0.0653,-4.8e-4 0.0977,0.002 0.25872,0.01836 0.45726,0.14107 -0.18164,0.3125 -0.34647,-0.214276 -0.14503,-0.306949 0.084,-0.314454 z m 1.73243,0.417969 c 0.2374,-0.01606 0.0903,0.165724 -1.14258,0.757813 -0.71663,-0.153368 0.7469,-0.731042 1.14258,-0.757813 z m 0.30468,0.205078 c 0.0391,-0.0027 0.0793,-5.41e-4 0.11914,0.0059 0.93445,0.147391 1.98179,2.70663 -0.53906,5.18164 -0.22831,-0.178272 -0.23191,-0.494171 -0.16601,-0.849609 -0.0442,0.229181 -0.26542,0.518982 -0.83008,0.849609 -0.7925,-1.595479 0.87511,-1.58305 0.84179,-0.910156 0.35577,-1.65783 2.83267,-4.461501 -0.16406,-2.742187 0.0292,-1.055113 0.36022,-1.509219 0.73828,-1.535157 z m 0.082,0.291016 0.004,0.07617 z m -0.16796,0.261719 -0.0918,0.152344 z m -0.25391,0.33789 -0.0918,0.154297 z m -8.25586,0.892578 c -2.19516,0.02524 -5.02234,5.286063 0.4043,4.902344 1.20926,0.31062 1.53842,-1.2763 1.33203,-2.125 -0.15842,-1.877743 -0.7873,-2.652221 -1.52539,-2.763672 -0.0692,-0.01045 -0.14013,-0.01449 -0.21094,-0.01367 z m -4.50586,0.132813 c -1.2619,-0.0038 -3.57303,1.050326 -1.95508,3.609375 0.95054,0.136748 5.17607,-1.659049 1.84571,-2.044922 -3.8467,2.131492 0.48089,-1.333234 0.0293,-0.425781 1.2171,-0.701279 0.88678,-1.114046 0.13867,-1.136719 -0.0195,-5.9e-4 -0.0386,-0.0019 -0.0586,-0.002 z m 12.14649,0.386719 c 0.0153,-1.31e-4 0.0294,0.0013 0.041,0.0039 0.11149,0.02518 0.0351,0.182322 -0.56836,0.558594 -0.30639,-0.259893 0.29747,-0.560543 0.52735,-0.5625 z m -8.70118,0.439453 c 0.89565,-0.03183 2.0532,0.995298 -0.68164,0.779297 -0.0233,-0.475428 0.20827,-0.69267 0.50782,-0.757813 0.0562,-0.01221 0.11411,-0.01936 0.17382,-0.02148 z m -0.11523,0.867187 c 0.0424,-4.96e-4 0.0859,1.55e-4 0.13086,0.0039 4.6119,2.02782 -0.96633,-0.679018 -0.26953,2.251953 -1.26698,-0.235704 -1.17603,-2.240479 0.13867,-2.25586 z m 7.69336,0.666016 c 0.0162,-9.73e-4 0.0306,2.6e-5 0.0449,0.002 0.50332,0.06289 -0.17618,1.781986 -1.47266,1.302735 0.72251,-0.954433 1.18442,-1.290097 1.42774,-1.304688 z m -5.76953,1.326172 c 0.003,-0.0012 0.004,-6.89e-4 0.006,0 0.0148,0.0073 -0.0564,0.123759 -0.29688,0.439453 -0.55721,0.482175 0.20256,-0.403697 0.29102,-0.439453 z m -2.76563,1.376953 c -0.65879,0.0012 -0.55647,0.364695 1.39453,0.691406 l 0.5625,-0.123047 c -0.73729,-0.395723 -1.4529,-0.552456 -1.89062,-0.566406 -0.0228,-7.26e-4 -0.0452,-0.002 -0.0664,-0.002 z m 9.20313,1.015625 c -0.055,8.91e-4 -0.11281,0.0034 -0.17188,0.0078 -0.28056,0.02099 -0.6525,0.131972 -1.00586,0.22461 4.69438,-0.654342 -3.07882,2.925284 0.80078,2.445312 1.75574,-1.972496 1.49623,-2.69585 0.37696,-2.677734 z m -1.17774,0.232422 c -0.0409,0.0057 -0.0471,-6.53e-4 -0.0898,0.0059 -0.0219,0.0066 -0.0369,0.02043 -0.0586,0.02734 0.0534,-0.01507 0.0963,-0.01953 0.14844,-0.0332 z m -0.14844,0.0332 c -0.98119,0.277085 -2.10191,0.771623 -3.18359,1.384766 1.77806,-1.499314 -1.50448,-0.771554 -2.0957,1.339843 l 0.43555,-0.236328 c -0.67261,0.528522 -1.24516,1.067512 -1.47266,1.572266 4.26562,-1.958188 1.21935,-0.60877 -0.18555,1.527344 3.30859,-0.667949 3.4724,-4.619685 6.50195,-5.587891 z m -9.61328,6.833984 0.002,0.07422 z m -1.57226,0.183594 c -0.0924,0.0022 -0.18235,0.02435 0.01,0.06055 0.17832,-0.04497 0.0834,-0.06274 -0.01,-0.06055 z m -74.207033,0.40625 c 3.3538,3.216976 16.770349,16.085221 30.185547,28.953125 C 53.978288,51.000543 47.269247,44.566227 50.623047,47.783203 Z m 75.615233,0.06641 c 0.0142,-0.0026 0.0214,-3.45e-4 0.0215,0.0059 7.6e-4,0.03894 -0.31046,0.265236 -1.23047,0.800781 0.32732,-0.37184 1.07149,-0.781553 1.20898,-0.806641 z m 4.5625,1.574219 c 0.0186,-7.66e-4 0.035,0.0014 0.0488,0.0059 0.14742,0.0481 0.002,0.389378 -0.875,0.882812 0.26038,-0.621527 0.64636,-0.881267 0.82617,-0.888672 z m -0.30859,1.302734 c 1.44961,2.001982 3.31926,9.704637 2.58789,13.34961 -0.74365,1.868744 -0.32769,-1.905883 -1.71094,-1.447266 1.58202,-3.267856 -2.15654,-8.244679 -0.87695,-11.902344 z m -1.57813,1.78711 c 0.0115,-1.51e-4 0.0231,0.0014 0.0332,0.0039 0.081,0.02033 0.10138,0.12291 -0.18165,0.248047 -0.0358,-0.180651 0.0677,-0.250898 0.14844,-0.251953 z m -0.15234,1.40625 c 0.29839,0.0059 0.0982,0.697698 -1.08399,1.125 0.45896,-0.799633 0.84835,-1.09868 1.05274,-1.123047 0.0106,-0.0013 0.0216,-0.0021 0.0312,-0.002 z m -5.95899,0.349609 c -0.37205,0.0068 -1.09965,0.330468 -1.06835,0.949219 1.45698,-0.646103 1.44041,-0.956057 1.06835,-0.949219 z m -2.52343,0.990235 -0.0117,0.128906 z m 7.84179,0.04687 c 0.019,-0.0011 0.0351,3.31e-4 0.0469,0.0039 0.11296,0.03449 -0.13124,0.295171 -1.23438,0.947265 -0.12752,-0.406821 0.903,-0.934234 1.1875,-0.951171 z m -0.79297,1.132812 c 0.005,3.9e-5 0.009,5.85e-4 0.0117,0.002 0.0311,0.01309 -0.061,0.09708 -0.39453,0.304688 -0.87121,0.240281 0.22834,-0.307852 0.38281,-0.306641 z m -1.48046,1.625 c 0.0264,-6.82e-4 -0.008,0.06323 -0.16211,0.242188 -0.53184,0.328666 0.0828,-0.240141 0.16211,-0.242188 z m 0.89257,1.476563 0.002,0.07617 z m 7.67579,0.263672 c 0.96773,0.01013 2.40973,1.127126 0.13671,2.083984 -1.14785,-1.400554 -0.88927,-1.978791 -0.32226,-2.070313 0.0591,-0.0095 0.12103,-0.01435 0.18555,-0.01367 z m 2.16406,2.380859 c 2.66879,-0.02943 5.50712,4.568261 2.51953,7.748047 -0.33054,-2.178475 -3.84068,-2.929198 -5.5332,-4.080078 0.55311,-2.590466 1.72992,-3.61898 2.95117,-3.666016 0.021,-8.08e-4 0.0415,-0.0017 0.0625,-0.002 z m -8.05664,5.142578 c -0.5574,0.02223 -1.35273,0.308313 -1.01367,0.890625 0.40611,-0.124125 0.6778,-0.230958 0.90625,-0.330078 -0.52466,0.381873 -1.05537,0.994957 -1.14063,1.792969 l 0.74609,-0.433594 c 1.98298,-1.544916 1.67286,-1.963295 0.9375,-1.671875 0.13071,-0.155472 -0.046,-0.241172 -0.32812,-0.248047 -0.0346,-8.44e-4 -0.0703,-0.0015 -0.10742,0 z m 3.33008,0.734375 c 0.006,-9.78e-4 0.0119,5.06e-4 0.0156,0.0039 0.0134,0.01215 0.008,0.05581 -0.0371,0.150391 -0.19005,0.04855 -0.0385,-0.144841 0.0215,-0.154297 z m -11.7129,4.371094 c -0.0326,0.508347 0.85443,2.093558 1.51563,1.476562 -0.0851,-0.873962 -1.10759,-1.209104 -1.51563,-1.476562 z m 13.33399,0.578125 c 0.15332,-0.0029 0.20585,0.200681 -0.15625,0.808593 -0.63506,-0.226716 -0.0993,-0.803829 0.15625,-0.808593 z m -59.542969,2.955078 c 0.09721,-0.0017 0.203188,0.0024 0.314453,0.01367 0.890116,0.08998 2.171979,0.608885 2.90625,1.798828 -0.265347,0.449889 -0.886719,0.09375 -0.886719,0.09375 -1.8436,-0.392049 -1.679981,-0.545486 -2.574219,-1.113281 -0.730408,-0.463773 -0.440235,-0.781068 0.240235,-0.792969 z m 3.976562,1.335937 c 1.224056,0.536807 4.298567,3.542095 4.425781,3.648438 L 84.5,83.181641 c -0.514455,-0.08314 -0.945546,2.757696 -1.880859,-0.02148 0,0 -0.576414,-1.004982 -0.867188,-1.248047 0,0 -0.949401,-1.095494 -4.021484,-3.201171 -0.156302,-0.107135 -0.297755,-0.576414 -0.05469,-0.867188 0.136726,-0.16356 0.232422,-0.541014 0.232422,-0.541016 z M 126.332,77.658197 c -0.0169,0.01063 -0.0677,0.07609 -0.16211,0.207031 -5.48409,0.357973 -6.47295,9.478507 -6.125,13.638672 2.28192,-2.02101 1.3751,-7.834156 3.66797,-10.804687 2.41545,-0.111057 2.80697,10.878983 5.30078,10.21875 1.30297,-0.672763 1.79727,-0.887014 1.8418,-0.914063 -0.12495,0.02586 -2.70376,0.971673 -2.50781,-1.199218 3.25434,-1.714388 1.29764,-0.322768 -0.81446,-1.214844 2.26017,-2.122314 -0.81814,-0.525847 -0.90234,-4.054688 -2.58807,-1.540045 1.25045,-4.017363 1.28125,-4.128906 -0.0162,-0.0036 -0.11722,0.04324 -0.33399,0.152344 -3.90677,2.792315 -1.28243,-1.669426 -1.24023,-1.892578 10e-4,-0.008 1.9e-4,-0.01139 -0.006,-0.0078 z m -43.246092,0.01367 c 0.920205,0.04817 2.159,0.346166 3.08789,1.587891 l 0.710938,1.152343 c 0.287242,-0.209552 -0.39471,-1.040797 -0.08398,-1.253906 3.213339,-0.596209 6.332697,9.945125 1.859375,9.728516 -1.149359,-0.266333 -2.085269,-0.559801 -2.867187,-0.873047 -0.04807,0.01867 -0.07882,0.03815 -0.128907,0.05664 -3.192977,0.558553 -7.873602,-3.667373 -4.589843,-6.08789 0.562575,0.408531 -0.542258,1.894225 2.935547,3.220703 0.455766,0.173835 0.923644,-2.059014 0.326172,-2.845703 -0.803342,-1.057754 -1.699635,-2.141965 -2.582032,-2.931641 -1.782453,-1.332184 -2.403368,-1.173919 -1.361328,-1.576172 2.464098,0.617138 3.929729,1.544924 4.71875,3.998047 0.178106,-0.152232 0.35461,-0.305137 0.544922,-0.458984 -0.09561,-0.119778 -0.155197,-0.264002 -0.171875,-0.416016 0.0019,-0.0046 0.0039,-0.0091 0.0059,-0.01367 L 85.080094,80.47265 84.322282,79.394525 c -2.316788,-1.16718 -2.579719,-1.677755 -2.027344,-1.71289 0.212922,-0.01354 0.484278,-0.02576 0.791016,-0.0098 z M 144,78.09375 c -0.33989,0.0023 -0.74975,0.0373 -1.24414,0.111328 2.45866,4.290049 4.25594,8.4495 5.19726,13.298828 1.153,0.01506 0.34129,-1.710116 0.30469,-2.052734 3.76821,-1.454259 -2.15819,-0.298536 1.50977,-1.623047 -4.10109,0.637954 1.2145,-2.079624 -2.34961,-2.021484 1.51332,-2.434274 0.98126,-2.950803 -1.28906,-3.697266 1.69803,-0.840001 3.85481,-3.911073 0.17773,-1.318359 -0.94886,-1.122255 0.0726,-2.713672 -2.30664,-2.697266 z m -8.68945,0.148438 c -0.21505,0.148075 -1.42238,1.03152 -1.27344,2.011718 -0.48952,-0.176417 -0.50075,-0.894064 -0.1543,-1.222656 0.82867,-0.433266 1.23785,-0.673356 1.38867,-0.765625 0.0313,-0.01913 0.0285,-0.01667 0.0391,-0.02344 z m 0.76757,0.548828 c 0.004,-9.38e-4 0.005,0.0011 0.006,0.0059 0.003,0.02533 -0.0377,0.137898 -0.16406,0.400391 -0.24272,0.214971 0.10565,-0.392179 0.1582,-0.40625 z m -1.25195,0.04102 c 0.20757,0.0018 0.33184,0.276933 -0.006,1.082031 -0.92055,-0.328451 -0.34065,-1.084973 0.006,-1.082031 z m -6.05664,0.16211 0.004,0.07617 z m -0.21875,0.09961 c -0.0924,0.0022 -0.18231,0.02429 0.01,0.06055 0.1785,-0.04491 0.0835,-0.06271 -0.01,-0.06055 z m 19.35156,2.175781 c -0.33766,0.01044 -0.72405,0.188227 -0.36914,0.591797 1.01773,-0.341235 0.82305,-0.563823 0.47071,-0.589844 -0.033,-0.0024 -0.0666,-0.003 -0.10157,-0.002 z m -19.36914,0.201172 c -0.0637,0.0021 -0.13232,0.0081 -0.20508,0.01758 -0.77577,0.101621 -1.96391,0.615369 -1.49609,1.279297 l 0.51367,-0.08789 c 1.92116,-0.891303 1.80372,-1.229123 1.1875,-1.208985 z m 6.85157,1.138672 c -0.0383,-1.87e-4 -0.0767,5.07e-4 -0.11524,0.002 -1.58659,0.0537 -3.36687,1.356194 0.56836,2.707031 1.72719,-1.971766 0.73263,-2.703182 -0.45312,-2.708984 z m 11.70117,0.931641 c 0.12429,-6.8e-4 0.26642,0.01216 0.40234,0.0332 0.54369,0.08417 0.97648,0.310743 -0.33203,0.425781 -0.6497,-0.3388 -0.44321,-0.456945 -0.0703,-0.458984 z M 128.44336,84.3086 c -0.34724,0.02336 -0.69768,0.269289 -0.78906,0.935547 2.12028,0.102239 1.70646,-0.777649 1.02539,-0.917969 -0.0766,-0.01579 -0.1562,-0.02297 -0.23633,-0.01758 z m 20.41211,0.751953 c -0.0534,-6.95e-4 -0.11188,0.0014 -0.17188,0.0059 -0.47999,0.03607 -1.08189,0.231933 -0.36328,0.478516 1.05118,-0.341993 0.90883,-0.47951 0.53516,-0.484375 z m -2.01563,2.466797 c -0.0485,-0.0025 -0.21558,0.192802 -0.0371,0.142578 0.0475,-0.08818 0.0558,-0.127718 0.0449,-0.138672 -0.002,-0.0021 -0.005,-0.0037 -0.008,-0.0039 z m -53.319114,1.062756 -2.223851,3.038806 c 0.430005,-0.456419 1.501657,-1.104646 1.841915,-1.629754 0.274474,-0.423585 0.325841,-0.724671 0.381936,-1.409052 z m 2.696526,1.29662 -2.377408,1.695311 c -0.656044,-0.157696 1.891141,-2.141659 2.377408,-1.695311 z"
       sodipodi:nodetypes="ssccccccccccccccscsscccccccccccccscccccsccsssccssscccssccccccccccccccccccsccccccscccccccccccccccccccccccccccccccccccccccccccccccccccccccccccsccccccssccssccccccsccsccccccsccsccscsscssccsssccssscsscscccccccccsccssscccccscssccssccccccccccccccscsccccccccccccccccccsccsssccccsccsccssscssssccsscccccccccccccsccscccssccccccccccccccccccccccccccccscccccccsccsscccccccccccccccccccccscscccsccsscccsccccccccscsccssccccccscccssscccccssscccccccccccccccccccccccssccccccccscccccccccccsccscscccccccccccccccccccscccsscccccsscssscsssccccccccccccscccc" />
    <path
       style="display:none;"
       d="m 87.286295,91.310945 c 3.06508,-3.403699 -1.34486,-4.945995 -3.01503,-7.510481 2.17868,-6.421125 15.384551,-6.660447 14.88259,-12.876957 -2.56222,-3.942515 -8.08139,-7.586026 -6.7868,-12.773251 -4.20093,-1.65995 -10.36216,4.365946 -13.29414,-1.639889 -5.18456,1.26634 -10.70517,1.849898 -15.54245,4.304946 -3.24446,0.475774 -6.30799,-0.257553 -2.22965,-2.902034 3.2774,-3.366778 10.62321,-0.158303 13.31459,-5.390718 6.66147,-0.807907 17.05001,-6.500782 21.63271,0.425276 5.616175,-3.056503 -8.35177,10.8959 -0.90999,6.028687 -3.41882,3.165531 1.43588,1.113612 0.97641,1.440441 -2.82336,3.262012 2.76502,-0.222967 0.002,3.00874 4.002935,-1.271218 -0.25708,0.02592 1.70745,1.499303 3.723835,-1.962358 0.78772,-0.899212 0.60292,1.211552 4.089205,-2.768476 -0.66711,2.463085 2.639905,1.061942 -1.842135,2.599898 1.29387,1.46107 1.61491,3.970884 1.46537,-0.08823 1.03421,2.185134 2.86554,1.398312 -2.64827,1.66472 2.50113,3.480646 -0.61761,6.204359 1.66162,1.879469 3.78061,-3.184928 1.59083,1.385485 2.10863,-0.881713 9.66034,-9.156095 4.78145,-3.704489 -6.90049,6.725776 9.85976,-5.402831 3.85545,-0.205628 3.05418,-0.183778 6.24786,-4.787973 4.71697,-1.190229 2.32219,0.338247 10.97196,-5.092019 5.36638,-0.623809 -4.01278,3.07391 4.22258,-1.034551 -0.95664,2.155771 -0.87738,2.973884 4.78117,-0.832786 0.78962,2.289544 -0.63022,3.062056 5.49084,-1.487995 0.92867,1.833532 -1.40633,3.436579 3.69773,5.505361 1.52851,6.62116 2.54848,1.04528 3.88971,-0.385612 0.56904,1.317072 -0.0365,2.97622 5.1043,-0.284361 0.90507,2.132453 -3.00797,-1.267562 -3.33302,-8.882573 -5.57198,-12.452345 -0.65268,-5.025744 -7.34504,-0.12912 -11.13305,0.754213 -3.42194,4.426357 -11.04611,3.449724 -9.4318,-3.116218 -3.386994,-5.800028 -8.036095,3.750461 -12.617775,4.256179 -3.7376,1.900286 -6.08352,4.321124 -1.82654,7.028669 0.66621,1.194025 0.17755,3.826721 -1.33757,4.057528 z M 63.263135,60.231557 c 5.33755,-1.00498 -0.76634,-6.241827 -2.16651,-1.073073 -1.71786,1.305359 1.59917,0.911988 2.16651,1.073073 z m 3.67456,-1.545098 c 4.33252,-2.118453 13.02044,-3.128987 15.13959,-4.348667 -5.39066,0.701213 -10.95668,1.619341 -16.05625,3.343657 -0.1439,0.450117 0.3763,1.478178 0.91666,1.00501 z m 17.07757,0.05813 c 5.02076,-1.124363 2.314,-1.477751 -0.90279,-0.436663 1.88238,-3.016291 1.49591,-0.951752 -1.53713,-1.010345 5.02039,-2.533197 -5.99828,-0.854239 0.47822,1.19937 l 0.97974,0.13061 z m 5.48834,-1.304385 c 2.61366,-0.749413 6.06882,-0.125116 6.00945,-3.909271 -2.40843,-5.467176 -12.33364,-2.628623 -11.07047,1.983679 1.6696,-1.718881 8.61242,-2.864487 7.35133,-0.198047 -2.73186,-0.230896 -9.38199,0.35459 -2.29031,2.123639 z m -15.39989,-2.640447 c 2.40084,-1.17925 12.25121,-0.170981 9.71201,-3.416449 -3.06992,0.545692 -9.08355,0.893318 -9.71201,3.416449 z m 16.0948,-0.143806 c 3.717,-0.412806 -4.63958,-0.209602 0,0 z m 57.690565,36.654998 c -0.93635,-4.823245 -2.72213,-8.960044 -5.16788,-13.226965 3.93386,-0.588976 2.45196,1.296286 3.53056,2.571987 3.65735,-2.578782 1.51259,0.476407 -0.17634,1.311906 2.25817,0.742448 2.78764,1.256384 1.28244,3.67759 3.54497,-0.05783 -1.74176,2.644761 2.33729,2.010259 -3.64828,1.31738 2.24486,0.166748 -1.50313,1.613209 0.0359,0.340163 0.84393,2.057604 -0.30294,2.042014 z m -0.79235,-7.463315 c 2.60297,-0.228839 -1.72322,-0.898612 0,0 z m 7.60806,7.463315 c -1.8127,-5.893545 -3.21846,-12.486018 -5.40869,-18.476045 -1.17366,-4.128867 -8.663,-10.263443 -8.45794,-2.89351 -2.19117,5.921845 -2.45101,-2.790729 -5.80043,0.523605 2.55231,-1.354792 0.75918,-2.582936 -0.42689,-2.341726 -1.32175,-0.600838 -5.04607,-5.00314 -5.15169,-6.394167 -2.43802,0.707151 -6.8579,6.261369 -1.47534,3.301912 4.99143,-0.499687 4.17798,5.994488 5.70955,6.985368 2.95652,-2.869961 2.56027,4.255387 -0.78379,2.670545 0.0131,4.06786 0.0554,3.908615 3.25067,3.022451 2.73345,3.808537 -5.14073,1.788007 -2.85903,6.026511 -0.23979,3.236366 -0.44164,-5.752095 -0.73776,-7.29005 0.21089,-4.22984 -1.91662,-14.57676 -6.0472,-8.2061 -5.86273,0.567929 -12.27679,1.822117 -17.22781,5.009997 -5.33744,-4.063681 -5.57014,-11.903455 -9.17726,-17.34748 -2.796375,-3.117481 -0.634695,-5.033743 0.6797,-0.786425 3.33799,4.677354 10.06867,-8.503906 5.01382,-11.68775 -1.51608,-4.153372 -8.677235,-4.790238 -9.774255,-6.686648 7.241835,0.631888 12.579895,-9.315091 4.184735,-11.923271 -8.438755,1.87447 -5.272145,-8.67694 -1.091675,-11.75287 0.903865,-4.7381203 -7.54388,-6.0253413 -11.34988,-6.0929513 -2.64073,0.964211 -6.79012,-0.68769 -1.90026,-1.839329 3.9175,-2.66774 -7.49755,-5.11578011 -0.63668,-4.74252011 3.4838,-0.68473 4.77281,3.83346011 3.15468,5.44232011 4.87255,-0.47318 10.81062,1.617029 13.065695,5.7038103 3.73493,-4.4686813 12.06957,-0.64747 7.06348,4.85251 -0.55128,4.56149 -10.784585,6.84549 -4.59107,9.73744 4.39012,4.766436 -0.77423,10.331016 -5.209545,11.098165 7.092445,1.332186 12.703225,10.479964 7.900085,16.807599 -4.06557,3.314037 -4.44254,6.400189 -1.62505,10.926682 1.4969,4.376597 4.42364,9.703257 8.5749,4.528947 4.12873,-1.858305 10.42528,0.171309 10.82701,-5.854855 3.14026,-3.568451 8.95562,-2.45639 5.48364,-8.170031 -0.97277,-3.14563 -1.0127,1.618566 -2.44793,1.201675 -1.22752,1.753379 2.33913,-0.410262 -0.93828,1.766952 -3.25353,2.321438 2.18028,0.78102 -2.10384,2.062621 -1.3613,1.619708 -3.67269,-1.715442 -2.97258,-0.790876 -0.54657,-3.017563 -0.38722,-8.292515 -0.52277,-12.026164 -6.25782,0.543774 -2.12979,-4.518733 1.2859,-5.434666 -1.27676,-3.034067 3.2181,-5.186173 1.44161,-3.110038 -3.30233,3.637895 1.30084,2.906387 2.10904,-0.439714 3.19885,-3.386501 -3.43517,6.707633 -7.02467,6.638319 -0.17161,4.979402 6.5347,-2.289374 8.9759,-0.952796 -1.76158,0.754063 -6.40232,3.708333 -3.71405,2.841107 -2.31489,1.999428 -2.8943,4.089215 -0.52656,1.089199 2.56298,-1.316468 2.73012,-1.065352 0.32176,0.893139 2.53103,-2.466933 4.447,-1.483077 0.38471,0.482141 -4.77357,3.296241 2.04865,-3.273866 -1.96655,0.427472 -2.72499,2.289393 6.33841,-0.457351 2.53355,1.620652 -3.896,-1.875375 -4.99,6.571051 -1.03406,3.382109 -1.59632,1.921717 -2.2976,3.328495 0.28489,1.15131 -1.64996,1.729453 -2.53577,3.264932 0.16734,0.98009 -2.97525,2.87174 -0.029,2.988151 0.54558,-0.02862 2.83387,-3.069667 2.03387,-5.160398 5.03114,-8.559578 -2.70454,1.217653 -2.97219,1.687115 -0.70491,-0.579932 -1.22697,0.937673 -4.10386,2.504441 -1.45466,0.344486 -4.61446,2.600404 -1.52309,0.297885 0.78695,-0.927965 0.54194,1.104073 2.70779,-1.150206 3.01317,-2.300443 4.34548,-4.679986 -1.50807,3.836688 3.12833,2.506767 -0.0174,-4.483232 10.40345,-2.924482 5.5943,-8.812354 -3.23619,-4.248132 -8.02147,3.354179 -8.89138,2.2557 1.91923,-1.175275 2.80766,-1.803248 1.34696,-1.796174 2.39555,-1.594669 -1.56049,-0.823119 2.10541,-2.413962 4.90857,-2.880663 -3.25742,0.516748 1.4795,-1.878028 -0.79147,-3.098791 -3.81142,-7.138396 -0.12065,-10.470826 -3.43084,-4.54324 -12.56039,2.58101 -11.85151,5.998166 0.41723,-2.655826 1.20095,-3.256046 -1.15982,-4.002426 1.87451,-3.87382 6.40801,-6.77168 10.81945,-7.13831 5.17081,2.80239 7.26304,9.71997 6.23403,15.435539 -2.09233,3.237668 5.58364,9.565721 -1.98845,10.432549 -4.14084,-0.492872 -1.57243,5.269358 -6.07459,4.315022 0.96013,4.371877 -0.13477,12.660427 6.5129,9.447133 0.69869,5.706239 6.51687,5.405444 9.96953,8.658125 4.43256,5.302684 4.10408,12.701017 6.03249,19.02903 -0.34516,0.612621 1.91278,5.343838 0.2171,4.551414 z M 134.04913,80.122381 c -0.2431,-1.599856 3.14258,-2.940111 -0.15428,-1.216313 -0.3446,0.326889 -0.33258,1.04075 0.15428,1.216313 z m 0.77817,-0.339855 c 0.8942,-2.135384 -1.46495,-0.522722 0,0 z m 1.09363,-0.711895 c 0.50253,-1.044336 -0.34335,0.304094 0,0 z m -2.58688,-5.348637 c 0.96038,-1.612336 -1.01063,-0.360851 0,0 z m 5.75064,-3.865304 c 4.35633,-4.636525 -3.74343,-12.30387 -5.50389,-4.05888 1.68319,1.144643 5.17682,1.893032 5.50389,4.05888 z m -7.22984,-1.7084 c 0.1799,-0.376629 -0.27809,0.07184 0,0 z m 1.24147,-4.117203 c 0.72747,-3.625396 -1.13106,-11.287602 -2.57286,-13.278842 -1.27274,3.638024 2.44408,8.588154 0.87057,11.838481 1.37582,-0.456178 0.96268,3.299112 1.70229,1.440361 z m 1.46451,-2.175396 c 3.85854,-1.624339 -3.04464,-3.714652 0,0 z m -8.81862,-3.564627 c 0.61455,-0.711953 -0.7053,0.435839 0,0 z m 1.25329,-1.551735 c 1.3271,-0.825951 -1.19262,0.328906 0,0 z m -0.0129,-0.484336 c 2.9259,-1.729583 -0.21643,-0.690582 0,0 z m 0.74066,-1.206406 c 1.94103,-0.700994 1.2187,-2.122158 0,0 z m 1.08142,-2.267295 c 0.56293,-0.24896 -0.0813,-0.410681 0,0 z m 1.20413,-2.439658 c 1.74462,-0.98157 0.57159,-1.36428 0,0 z m -8.41764,-1.072605 -0.0389,-0.207178 z m 3.4986,-0.576365 c 2.44013,-1.4204 0.57484,-0.653003 0,0 z m 5.99397,-0.117674 0.003,-0.07541 z m 4.16673,-10.799639 c 1.87653,0.692886 2.45199,-3.240013 0,0 z m 2.07962,-0.389109 c 2.35542,-1.379174 -1.06537,-2.144832 0,0 z m 0.99056,10e-6 c 3.64702,-3.580702 -0.21556,-7.339346 -0.31786,-3.633722 3.66761,-2.104233 -0.96239,2.634128 0.31786,3.633722 z m -0.012,-4.122172 0.0918,-0.15239 z m 0.25238,-0.336507 0.0918,-0.15239 z m 0.26231,-0.336497 -0.003,-0.07541 z m -1.56024,2.484132 c 1.60063,-0.997985 -0.5201,-0.441214 0,0 z m 1.29793,-0.885746 0.11329,-0.176237 z m -1.26181,-1.413435 c 3.27025,-1.569958 -1.14032,-0.244697 0,0 z m -0.67123,-0.857965 c 1.27087,-0.340978 -0.78765,-0.48692 0,0 z m 1.90091,-0.591269 c 3.84672,-0.574954 -1.92923,-11.392327 -1.37778,-5.139617 -2.97525,3.75005 -0.28841,0.90948 1.63008,1.30637 -1.89889,2.16243 -2.7014,2.36517 0.24361,0.76816 -1.15541,1.81527 -4.09546,3.637577 0.0211,1.90347 0.76819,-0.19043 -2.37523,2.161609 -0.517,1.161617 z m -1.9724,-3.951837 c 2.21949,-2.40943 1.7809,-0.8932 0,0 z m -0.43875,3.095681 c 0.42821,-1.129871 -1.00448,-0.03885 0,0 z m -0.38878,-1.430801 -0.0611,-0.28526 z m 0.93339,-0.36302 c 2.54008,-2.09027 -1.81127,1.29967 0,0 z m -12.18069,-2.24983 c 4.16787,-2.1819 0.22445,-2.07056 -0.68295,0.34861 z m -26.537745,-1.82988 c 5.504735,-1.75835 11.113555,-7.42826 11.018895,-13.28139 -3.84124,-3.4562713 -11.422725,2.85328 -13.404125,8.02957 -1.09507,2.03482 -0.24245,5.07859 2.38523,5.25182 z m 30.316655,-0.50276 c 0.78195,-0.21554 -0.29762,-0.19809 0,0 z m 2.80214,-0.9691 c 3.02818,0.0559 4.67198,-2.91215 0,0 z m 2.71306,-0.88166 -0.003,-0.0754 z m -5.96934,0.65974 c 1.36581,-0.97386 -1.17388,0.63385 0,0 z m 6.9191,-0.52464 c 5.32474,-0.12523 -4.40242,-4.46293 -4.432,-1.19569 2.12253,-1.35732 5.10131,0.54498 4.432,1.19569 z m 0.62464,0.19803 c 1.52715,-0.22587 -0.66602,-0.37494 0,0 z m -3.67754,-0.24901 0.003,-0.0754 z m 0.21031,-0.11735 c 3.48109,-1.35306 0.32414,-0.88726 0,0 z m -2.81821,-0.13503 0.003,-0.0754 z m 1.52384,0 c 1.64798,-0.25006 0.0719,-1.00858 0,0 z m -1.3556,-0.0842 0.003,-0.0754 z m 0.16826,-0.0901 0.44388,-0.24858 z m 0.58888,-0.24641 0.003,-0.0754 z m 4.5428,-0.16825 c 0.72335,-0.17343 -0.51819,-0.12711 0,0 z m 12.21227,66.010789 c -0.25215,0.07095 0.18912,-0.350805 0,0 z m 1.51059,-2.113563 c -1.42949,-0.490598 2.38975,-0.777373 0,0 z m -12.41661,-0.224419 c -6.95852,-2.388437 4.05308,-4.627463 0,0 z m -0.46004,-1.167265 -0.0804,-0.155212 z m -7.67909,1.093639 c 0.29834,-2.174959 3.37425,0.162713 0,0 z m -0.81863,-2.464279 c -0.93054,-1.320821 4.72979,-2.042818 0.51267,-0.08644 z m 20.59114,-0.900779 c -0.77898,-0.886035 2.02461,-0.678689 0,0 z M 128.60202,79.02848 c -0.38021,-0.07204 0.35477,-0.08943 0,0 z m 0.21032,-0.08416 -0.003,-0.07541 z m -22.72456,-0.92538 c 1.66396,-2.632906 6.26551,-2.484579 1.11629,-0.329116 z m 11.45169,-4.038043 -0.003,-0.07542 z m 9.77964,-4.339326 c 0.16378,-2.338519 4.44582,-3.362108 0.75062,-0.480125 z m 0.23718,-1.490322 c -0.71941,-1.235536 3.69091,-1.128247 0,0 z m -0.76297,-8.555844 -0.003,-0.07542 z m -2.62317,-3.701546 c 0.24505,-1.695541 4.2436,-0.613884 0,0 z m -3.81743,-0.504756 0.0125,-0.12757 z m 1.45902,-0.168248 c -0.0622,-1.230858 2.89834,-1.285278 0,0 z m 3.08875,-7.739579 c -0.38028,-0.07214 0.35506,-0.08933 0,0 z m 1.55632,-0.168259 -0.003,-0.07542 z m 3.09163,-1.313258 c 1.39738,-2.124653 4.42873,-3.467968 0.18601,-1.520298 1.30109,-2.886823 12.11206,-7.128169 7.22626,-1.639133 -3.89243,0.481575 4.04493,-3.157901 -0.88525,-2.426562 -3.04685,0.633289 -3.83357,3.737287 -1.80676,5.371144 -1.45966,-1.50587 -3.20892,-0.682721 -4.72026,0.214849 z m 1.21666,-2.848768 c 0.68156,-2.434203 4.99572,-3.037167 0.85146,-0.461285 z m -1.19563,-3.296689 c -3.205,-0.536878 -1.39636,-1.171479 0.5592,-0.121916 z m 1.02178,-0.978052 c -7.42881,0.525333 0.6946,-9.585814 1.3249,-2.115194 0.20531,0.844184 -0.12218,2.424078 -1.3249,2.115194 z m 0.0515,-0.642461 c 0.95659,-1.255986 -0.76278,0.660057 0,0 z m -1.76158,-0.174935 c -0.69318,-2.915251 4.85508,-0.223096 0.26798,-2.240051 -1.43072,-0.120018 -1.56853,1.997709 -0.26798,2.240051 z m 2.1185,-0.504438 0.003,-0.07542 z m -2.5448,-1.825853 c 3.86862,0.305596 -0.0925,-1.891551 0,0 z m -4.69234,1.992443 c -2.6157,-4.137117 5.09221,-4.317924 1.86403,-2.457712 0.44922,-0.902548 -3.8554,2.544702 -0.0294,0.42466 3.31249,0.383783 -0.8892,2.168968 -1.83465,2.033052 z m -0.199,-3.699877 c -1.6023,-3.041917 6.68041,-4.069153 1.13581,-1.4686 -0.6389,0.257743 -0.4835,1.429263 -1.13581,1.4686 z m 10.05851,-0.101498 c -2.45303,-1.874103 -7.44225,-2.733151 -1.93687,-2.973128 0.80918,0.225858 4.15942,2.784292 1.93687,2.973128 z m -23.14908,-9.205675 c -6.71354,-3.38113 8.06583,-13.11531 6.69027,-4.55256 -1.25432,2.44614 -4.16814,3.85416 -6.69027,4.55256 z m -0.0938,-0.62153 c 3.8572,-0.38546 8.72659,-6.5458 3.30668,-6.67556 -2.07107,0.78977 -6.39148,4.91762 -3.30668,6.67556 z m 7.8334,0.49966 c -4.62016,-3.38758 7.0945,-5.9295 2.53159,-0.76102 -0.74733,0.48291 -1.6296,0.80603 -2.53159,0.76102 z m 0.21032,-0.52197 c 6.28961,-1.44957 -1.55159,-6.06272 0,0 z M 0.86601803,4.0723157 C 1.4227281,0.28628559 9.9094475,-0.63996441 3.218928,2.3297757 c -0.87873,0.43994 -1.6418198,1.07245 -2.35290997,1.74254 z m 52.26194697,-1.7143 c -1.8463,-3.68701 13.73754,-1.52921007 6.39926,-1.2041901 -2.10482,0.5309501 -4.21456,1.1314801 -6.39926,1.2041901 z"
       id="path_background_cartoons"
       sodipodi:nodetypes="cccccccccccccccccccccccccccccccccccccccccccccccccccccccccccccccccccccccccccccccccccccccccccccccccccccccccccccccccccccccccccccccccccccccccccccccccccccccccccccccccccccccccccccccccccccccccccccccccccccccccccccccccccccccccccccccccccccccccccccccccccccccccccccccccccccccccccccccccccccccccccccccccccccccccccccccccccccccccccccccccccccccccccccccccccccccccccccccccccccccccccccccc"
       inkscape:label="Cartoons" />
    <path
       style="display:none;fill:#000000;stroke-width:0.0842193"
       d="M 87.375499,91.336305 C 90.443957,87.928788 86.028967,86.384817 84.357053,83.817461 85.66118,77.942845 97.758212,78.370074 96.138518,72.584516 92.582699,67.238124 92.432535,58.753877 85.951859,56.686743 84.824266,53.78517 90.553375,50.016074 84.91272,48.218141 c -4.014544,0.05292 -6.067574,-3.490853 -4.628509,-6.615204 -1.639601,-2.682782 -6.927728,-4.663646 -7.044893,-6.889831 4.343092,-2.832607 6.611447,3.792987 10.701065,0.81506 5.435054,2.414852 5.957362,9.274054 11.19557,10.84527 3.592766,2.64409 1.746754,13.784635 6.500717,11.024968 4.00729,-2.823507 8.17463,-8.555272 4.71741,-13.321374 -2.03355,-4.440232 -7.264121,-5.380501 -10.780827,-7.296513 6.706917,0.347543 13.778217,-8.20463 5.209497,-11.861089 C 91.348554,26.632364 95.529221,15.784721 99.677396,12.107322 97.875405,7.8969665 91.438338,6.7723451 87.042472,6.934131 84.095457,8.1818628 81.829802,5.647519 85.961017,5.0630825 89.882859,2.3923717 78.45511,-0.05838055 85.323643,0.3152776 88.811282,-0.37019145 90.101817,4.1530379 88.481844,5.7636563 93.359691,5.290002 99.304642,7.3823691 101.5619,11.4738 c 3.73907,-4.4736662 12.08299,-0.648332 7.07133,4.857828 -0.55189,4.566549 -10.796585,6.853083 -4.59619,9.748254 4.39503,4.771706 -0.77498,10.342523 -5.215252,11.110519 7.199972,1.345144 12.763172,10.66436 7.799932,17.004414 -2.30526,4.089425 -10.755608,6.367956 -4.20603,11.364415 5.01894,0.639384 12.94561,3.703425 18.9736,2.916505 2.3343,-3.200527 6.09867,-8.496437 9.61005,-8.912686 -0.25875,-3.834996 -1.96164,-6.658791 -2.76197,-3.528682 -2.98897,2.584159 2.11272,0.103978 -1.61023,2.385812 -3.25718,2.324009 2.18269,0.781916 -2.10618,2.064945 -1.3628,1.621649 -3.67677,-1.717251 -2.97587,-0.791666 -0.54717,-3.020949 -0.38766,-8.301788 -0.52334,-12.03961 -6.26485,0.544329 -2.13203,-4.52374 1.2874,-5.440711 -1.27818,-3.037481 3.2217,-5.191889 1.44324,-3.113494 -3.30601,3.641938 1.30227,2.909597 2.11136,-0.44022 3.20242,-3.390256 -3.43898,6.715118 -7.03247,6.645705 -0.1718,4.984942 6.54198,-2.291929 8.98589,-0.953834 -1.76352,0.754901 -6.40944,3.712447 -3.71819,2.844257 -2.3175,2.001691 -2.89749,4.093762 -0.52712,1.09036 2.56594,-1.317683 2.73323,-1.066427 0.32221,0.894291 2.53383,-2.469685 4.45194,-1.484735 0.38513,0.482677 -4.77884,3.29956 2.05071,-3.276989 -1.96875,0.428554 -2.72809,2.2921 6.34546,-0.457808 2.53636,1.622535 -3.90034,-1.877461 -4.99555,6.578378 -1.0352,3.385871 -1.59808,1.923864 -2.30016,3.332177 0.2852,1.15259 -1.6518,1.731387 -2.5386,3.268564 0.16752,0.981181 -2.97856,2.874913 -0.029,2.991483 0.54619,-0.02865 2.83701,-3.073083 2.03615,-5.166108 5.03673,-8.569109 -2.70751,1.219086 -2.97577,1.689001 -0.70583,-0.580577 -1.22834,0.938735 -4.10843,2.507217 -1.45628,0.344859 -4.61959,2.603306 -1.52478,0.298216 0.78783,-0.928997 0.54249,1.105261 2.71083,-1.151386 3.01651,-2.302912 4.3503,-4.685201 -1.50974,3.840964 3.13182,2.509534 -0.0174,-4.488227 10.41504,-2.927693 5.60052,-8.822151 -3.2398,-4.252858 -8.03039,3.357917 -8.90127,2.258206 1.92136,-1.176583 2.81078,-1.805265 1.34846,-1.798173 2.39821,-1.596376 -1.56224,-0.824208 2.10776,-2.416743 4.914,-2.883885 -3.2611,0.517373 1.48119,-1.880151 -0.79243,-3.102325 -3.8157,-7.146357 -0.12084,-10.482523 -3.43464,-4.548293 -12.57436,2.583882 -11.86469,6.004834 0.41739,-2.658121 1.20222,-3.259454 -1.15989,-4.007347 1.87741,-3.877734 6.41517,-6.778818 10.83157,-7.145781 5.17649,2.80554 7.27102,9.7308 6.24087,15.452701 -2.09471,3.241249 5.58991,9.576343 -1.99057,10.444155 -4.14544,-0.49342 -1.57416,5.275219 -6.08134,4.319821 0.9612,4.37673 -0.13492,12.674519 6.52014,9.457641 0.69947,5.712585 6.52413,5.411467 9.98063,8.667754 4.43752,5.308571 4.10854,12.715162 6.03928,19.050195 1.55131,2.788672 -0.21062,6.814266 -0.70778,1.987348 -0.48068,-5.177668 -3.07741,-9.908775 -4.08321,-14.972675 -0.37281,-3.096956 -7.22067,-10.490777 -8.14764,-5.892413 -0.37653,2.98303 -3.21511,6.284838 -4.39842,1.805741 -5.09135,2.267431 2.64252,-2.330802 -2.85008,-1.355712 0.0556,-0.879219 -5.26006,-4.957634 -4.86983,-6.631964 -2.44072,0.70793 -6.86553,6.268315 -1.47699,3.305588 4.99706,-0.500432 4.18262,6.001094 5.71592,6.993029 2.95982,-2.873134 2.56308,4.260118 -0.78467,2.673501 0.0135,4.072347 0.0554,3.913003 3.25436,3.025803 2.73646,3.812676 -5.14642,1.790207 -2.86221,6.033315 -0.24004,3.240014 -0.44213,-5.758483 -0.73857,-7.298137 0.20968,-4.227781 -1.91368,-14.585573 -6.04607,-8.223485 -5.7476,2.485733 -12.32963,1.170009 -18.69105,-0.580806 -3.62236,-0.921119 -9.153807,2.254032 -8.912627,-4.13926 -1.693575,-5.15251 -2.760543,-15.668331 -6.506212,-17.32571 0.634701,4.411266 -6.112952,7.462772 -5.169998,10.180103 1.955633,-0.586138 7.838142,-6.055894 3.481658,-1.471098 -3.332686,3.366714 4.775838,-1.577544 0.509744,1.457421 -1.672359,2.145289 5.269667,-1.462425 0.995692,1.007171 -2.577934,3.601885 4.847811,1.029056 0.625049,3.413743 1.517784,1.145935 1.195991,3.26397 2.748835,3.25268 -3.543537,1.772427 2.827671,2.097841 0.523206,4.162905 2.159181,1.867922 5.585043,-1.021895 0.893862,1.670659 0.219339,2.775233 6.168081,-1.349127 1.750136,1.437418 -2.678851,2.493867 4.745815,0.468899 0.06578,2.700668 1.030445,4.512508 9.698335,-6.737523 5.556945,-0.605217 2.02827,-0.471437 6.18922,-3.645531 2.81461,-0.004 2.50102,0.08297 4.11083,-1.800688 4.51513,-0.01374 3.91866,-0.974248 6.40619,1.161968 10.22663,-0.545853 -3.97238,4.969651 9.70242,-3.351851 3.77461,1.470104 -4.12659,3.129642 3.84141,-0.889237 -1.25029,2.509555 -0.22781,2.937602 4.90475,-1.478978 1.19787,1.809449 -1.62438,4.010548 5.67241,-1.960268 0.52139,2.251516 -1.27935,2.355961 3.19927,6.314413 1.991,5.379079 -1.75959,3.296426 5.47928,-0.123864 0.19422,2.605782 0.0479,2.724552 5.24556,-0.452338 1.11745,1.741721 -3.33661,0.393722 -3.24669,-8.516448 -5.6213,-11.682885 -0.79466,-4.062893 -7.03422,-3.82824 -10.20138,-3.73963 -2.83934,1.814166 0.30022,-1.892393 -3.33279,-0.560683 -2.50779,2.472281 -2.70309,0.567236 -2.64484,0.0204 -3.3347,0.61761 -4.26598,-0.873254 -7.67321,2.507773 -4.790312,-1.814573 -9.469491,3.460365 -13.48726,5.979688 -2.545847,1.821638 6.351178,5.404392 0.70476,8.217445 z M 134.19036,80.135292 c -0.24335,-1.601624 3.14607,-2.94338 -0.15443,-1.217665 -0.345,0.327253 -0.33297,1.041908 0.15443,1.217665 z m 0.77904,-0.340233 c 0.89521,-2.137769 -1.46658,-0.523292 0,0 z m 1.09486,-0.712686 c 0.50309,-1.045497 -0.34373,0.304433 0,0 z m -15.20162,-5.095275 0.003,-0.0755 z m 12.61186,-0.259312 c 0.96145,-1.614171 -1.01177,-0.361212 0,0 z m 5.75703,-3.869602 c 4.36117,-4.641685 -3.74759,-12.317536 -5.51001,-4.063385 1.68351,1.145467 5.19825,1.904029 5.51001,4.063385 z m -7.23788,-1.7103 c 0.18005,-0.377246 -0.27833,0.07202 0,0 z m -29.86983,-1.403668 c -0.17398,-1.803144 -1.93729,-1.565037 0,0 z m 31.1127,-2.718107 c 0.72822,-3.629445 -1.13231,-11.300174 -2.57574,-13.293619 -1.27416,3.642071 2.44681,8.597706 0.87152,11.851638 1.37736,-0.456664 0.96374,3.302764 1.70422,1.441981 z m 1.46611,-2.177825 c 3.86284,-1.626144 -3.04802,-3.718782 0,0 z m -8.82841,-3.568589 c 0.61522,-0.712765 -0.70607,0.436351 0,0 z m -36.341227,-0.546956 0.0031,-0.0755 z m -0.827334,-0.505317 c 1.968496,-0.78927 -1.600401,-0.745362 0,0 z M 127.1289,56.726233 c 1.32855,-0.826859 -1.19392,0.329261 0,0 z m -0.013,-0.484875 c 2.92911,-1.731487 -0.2166,-0.691359 0,0 z m 0.74149,-1.207747 c 1.94206,-0.701017 1.22155,-2.125634 0,0 z m 1.08262,-2.269817 c 0.56356,-0.249237 -0.0814,-0.411137 0,0 z M 88.488263,50.653619 c 1.625216,-2.231541 -3.731604,-2.938984 0,0 z m 41.657267,-0.332197 c 1.74657,-0.982662 0.57221,-1.365797 0,0 z M 90.029544,49.377982 C 94.182159,45.50066 87.06033,43.256596 86.850068,38.8268 c -0.944316,-2.556853 -6.715171,-3.34369 -1.733099,-1.337943 4.93497,5.747904 -3.559734,-2.693352 -3.24147,0.107499 4.573031,1.475433 4.815359,10.000464 0.02643,5.261199 -3.745587,4.014384 6.90246,3.338991 7.68777,6.448161 l 0.180378,0.128766 z m 31.688966,-0.130358 -0.0387,-0.207418 z m 3.5025,-0.576996 c 2.44293,-1.422019 0.57546,-0.653709 0,0 z m 6.00063,-0.117814 0.003,-0.07549 z M 84.797281,43.996826 c -0.55364,-2.532045 -5.915494,-9.703411 -6.050188,-4.63844 2.215755,1.320678 3.906044,3.584835 6.050188,4.63844 z m 50.595739,-6.25566 c 1.87863,0.693649 2.45473,-3.243615 0,0 z M 78.175355,37.604293 c 2.162354,-2.98448 -6.647608,-3.557609 -1.086028,-0.81414 0.724721,-0.901983 0.626678,0.810721 1.086028,0.81414 z m 59.299595,-0.252668 c 2.35805,-1.380706 -1.06653,-2.147215 0,0 z m 0.99167,1e-5 c 3.65107,-3.58468 -0.21577,-7.347513 -0.31822,-3.637762 3.6717,-2.106597 -0.96348,2.637108 0.31822,3.637762 z m -0.012,-4.126758 0.0919,-0.15256 z m 0.25266,-0.336881 0.0919,-0.15256 z m 0.26261,-0.336871 -0.003,-0.07549 z m -1.56199,2.486895 c 1.60238,-0.999121 -0.52069,-0.441657 0,0 z m 1.29938,-0.886732 0.11342,-0.176436 z m -1.26321,-1.415006 c 3.27363,-1.572172 -1.14166,-0.244342 0,0 z m -0.67199,-0.858919 c 1.2724,-0.341365 -0.78855,-0.487701 0,0 z m 1.90303,-0.591927 c 3.851,-0.57556 -1.93138,-11.405 -1.37931,-5.145339 -2.97856,3.754228 -0.28875,0.910513 1.63189,1.307836 -1.90097,2.164848 -2.70441,2.367784 0.24388,0.769009 -1.15669,1.817286 -4.10002,3.641631 0.0211,1.905594 0.76905,-0.190638 -2.37787,2.164003 -0.51756,1.1629 z m -1.97459,-3.956232 c 2.22198,-2.412089 1.7829,-0.894188 0,0 z m -0.43923,3.099124 c 0.42869,-1.131128 -1.00561,-0.03883 0,0 z m -0.38922,-1.432385 -0.0613,-0.285589 z m 0.93443,-0.36343 c 2.54291,-2.092593 -1.81327,1.301119 0,0 z m -12.19426,-2.252331 c 4.1725,-2.184324 0.2247,-2.072858 -0.68371,0.348995 z M 98.044955,24.548271 c 5.510875,-1.760313 11.125915,-7.436525 11.031165,-13.296161 -3.84549,-3.4600973 -11.435512,2.856423 -13.419109,8.038495 -1.096293,2.037103 -0.242691,5.084283 2.387944,5.257666 z m 30.350395,-0.503319 c 0.78282,-0.215772 -0.29796,-0.198356 0,0 z m 2.80526,-0.970168 c 3.03157,0.05604 4.6771,-2.915389 0,0 z m 2.71607,-0.882653 -0.003,-0.07548 z m -5.97598,0.660473 c 1.36728,-0.974901 -1.17513,0.634523 0,0 z m 6.92679,-0.525221 c 5.33069,-0.125359 -4.40729,-4.467892 -4.4369,-1.197021 2.12488,-1.358814 5.107,0.545549 4.4369,1.197021 z m 0.62534,0.198247 c 1.52885,-0.22611 -0.6668,-0.375363 0,0 z m -3.68164,-0.249287 0.003,-0.07548 z m 0.21055,-0.117475 c 3.48581,-1.355014 0.32337,-0.887758 0,0 z m -2.82134,-0.135183 0.003,-0.07548 z m 1.52553,0 c 1.64989,-0.250167 0.0719,-1.009907 0,0 z m -1.35709,-0.08425 0.003,-0.07548 z m 0.16844,-0.09022 0.44435,-0.248857 z m 0.58953,-0.24669 0.003,-0.07549 z m 4.54784,-0.168435 c 0.72417,-0.17362 -0.51876,-0.127201 0,0 z m 13.37109,69.902147 c -0.93731,-4.82866 -2.72533,-8.970018 -5.17355,-13.241776 3.93823,-0.589697 2.45471,1.297709 3.5345,2.574808 3.6614,-2.58164 1.5143,0.476958 -0.17655,1.313368 2.26059,0.743292 2.79065,1.25781 1.28378,3.68168 3.54891,-0.0579 -1.7437,2.647699 2.33989,2.012493 -3.65234,1.318858 2.24735,0.166933 -1.50481,1.614995 0.0361,0.34087 0.84475,2.059623 -0.30326,2.044432 z m -0.79324,-7.471614 c 2.60588,-0.229085 -1.72511,-0.899624 0,0 z m -0.35198,3.65367 c -0.25242,0.07102 0.18933,-0.351206 0,0 z m 1.51228,-2.115917 c -1.43109,-0.491082 2.39243,-0.778345 0,0 z M 135.98238,85.17771 c -6.96643,-2.391122 4.05747,-4.632581 0,0 z m -0.46055,-1.168566 -0.0809,-0.155643 z m -7.68762,1.094858 c 0.29862,-2.17737 3.37801,0.162875 0,0 z m -0.81954,-2.467022 c -0.9317,-1.32217 4.73494,-2.045169 0.51319,-0.08654 z m 20.61402,-0.901775 c -0.77989,-0.886874 2.02675,-0.679544 0,0 z m -18.89153,-2.694939 c -0.38063,-0.07202 0.35511,-0.08942 0,0 z m 0.21054,-0.08425 -0.003,-0.07549 z m -1.49489,-9.313096 c 0.16398,-2.34111 4.45079,-3.365858 0.75147,-0.480667 z m 0.23744,-1.491972 c -0.72022,-1.23697 3.69515,-1.129382 0,0 z m -0.76381,-8.56537 -0.003,-0.0755 z m -2.62608,-3.705664 c 0.24538,-1.697407 4.24825,-0.614527 0,0 z m -3.82168,-0.505317 0.0125,-0.127711 z m 1.46064,-0.168435 c -0.0623,-1.232248 2.90158,-1.286689 0,0 z m 3.09218,-7.748174 c -0.38063,-0.07211 0.35517,-0.08952 0,0 z m 1.55807,-0.168446 -0.003,-0.07549 z m 3.09507,-1.31472 c 1.39891,-2.127015 4.43364,-3.471824 0.18621,-1.521978 1.30255,-2.889984 12.12553,-7.136217 7.23429,-1.641055 -3.89675,0.482099 4.04943,-3.161433 -0.88624,-2.429272 -3.07964,0.927774 -3.21625,4.922443 -6.53426,5.592305 z m 1.21799,-2.851936 c 0.68232,-2.43691 5.00129,-3.040544 0.8524,-0.461797 z m -1.19695,-3.300365 c -3.20855,-0.537297 -1.39794,-1.172729 0.55982,-0.121942 z m 1.02291,-0.979137 c -7.43706,0.525884 0.69541,-9.596462 1.32637,-2.117517 0.20552,0.845086 -0.12227,2.426792 -1.32637,2.117517 z m 0.0515,-0.643175 c 0.95766,-1.257403 -0.76363,0.660799 0,0 z m -1.76354,-0.17513 c -0.69384,-2.918477 4.86031,-0.223365 0.26807,-2.242541 -1.43236,-0.120187 -1.5703,2.000225 -0.26807,2.242541 z m 2.12086,-0.504999 0.003,-0.07548 z m -2.54764,-1.827884 c 3.87296,0.305893 -0.0927,-1.893605 0,0 z m -4.69755,1.994658 c -2.61863,-4.14174 5.09788,-4.322538 1.86612,-2.460437 0.44975,-0.903612 -3.85967,2.547536 -0.0294,0.425118 3.31602,0.384245 -0.89006,2.171502 -1.83664,2.035319 z M 123.693,33.982862 c -1.60408,-3.045306 6.68783,-4.073679 1.13705,-1.47023 -0.63959,0.258034 -0.48403,1.430832 -1.13705,1.47023 z m 10.06969,-0.101611 c -2.45578,-1.87621 -7.45051,-2.736194 -1.93894,-2.976454 0.81012,0.226113 4.16412,2.787449 1.93894,2.976454 z m -23.1748,-9.215913 c -6.72095,-3.385124 8.07486,-13.129798 6.69773,-4.55752 -1.25572,2.448786 -4.17277,3.8586 -6.69773,4.55752 z m -0.0939,-0.622226 c 3.86149,-0.385887 8.73629,-6.553079 3.31035,-6.682979 -2.07337,0.790635 -6.3986,4.923108 -3.31035,6.682979 z m 7.8421,0.500224 c -4.62529,-3.391355 7.10238,-5.936099 2.5344,-0.761869 -0.74816,0.483448 -1.6314,0.806922 -2.5344,0.761869 z m 0.21056,-0.522555 c 6.2966,-1.451183 -1.55331,-6.069463 0,0 z M 0.85901923,4.0007395 C 1.4166367,0.20866738 9.9125785,-0.71397785 3.2145387,2.2582562 2.3346215,2.697671 1.5727984,3.332755 0.85901923,4.0007395 Z M 53.179097,2.284534 C 51.33076,-1.4065855 66.931928,0.75366502 59.585473,1.0790285 57.478752,1.6104692 55.365737,2.211883 53.179097,2.284534 Z"
       id="path_background_photography"
       sodipodi:nodetypes="cccccccccccccccccccccccccccccccccccccccccccccccccccccccccccccccccccccccccccccccccccccccccccccccccccccccccccccccccccccccccccccccccccccccccccccccccccccccccccccccccccccccccccccccccccccccccccccccccccccccccccsccccscccccccccccccccccccccccccccccccccccccccccccccccccccccccccccccccccccccccccccccaaccccccccaaaaacccccccccccccccccccccccccccccccccccccccccccscaaacaccccccaaaaaa"
       inkscape:label="Photography" />
    <path
       style="display:inline;fill:#000000;stroke-width:0.0846667"
       d="m 87.019332,91.611418 c 3.08476,-3.42556 -1.35348,-4.9778 -3.03441,-7.55875 3.9403,-7.08617 15.24031,-7.13991 18.447988,-15.10442 -3.431498,-4.0776 -7.347908,-7.26505 -10.626348,-10.89945 -4.36585,-5.81605 -8.24732,-11.87668 -12.94541,-17.42818 -1.39117,-3.74802 -4.51332,-4.03462 -7.27469,-5.27648 0.45601,-3.11482 2.81898,-6.72839 -2.461065,-4.85612 -4.299789,-0.83763 -1.464384,-8.93979 -7.733265,-8.68899 -1.843765,-1.99751 -8.031453,-3.36566 -2.225209,-4.26418 5.768328,1.68448 12.337979,0.0358 17.901919,3.51119 1.40557,3.46032 2.45412,5.1882 5.7842,5.94497 1.34377,4.97594 5.39158,9.10231 8.35203,13.34973 4.51405,4.71795 8.464004,9.92178 12.886388,14.71663 6.12749,-4.8869 2.65351,-13.52855 -3.65943,-16.10957 -2.441368,-0.95188 -8.001038,-1.97782 -2.050538,-2.92865 9.647628,-0.66409 6.194448,-13.8854 -2.16053,-11.37919 -5.89598,-4.54696 3.760966,-9.69253 2.72501,-14.104148 -4.32142,-3.7499575 -10.2488,-4.0071045 -15.58054,-3.8006305 0.0543,-1.677116 6.16824,-3.348361 0.93952,-5.300287 -5.37402,-3.204926 9.35571,-0.72064695 3.56842,4.150267 4.75631,-0.287255 11.08879,1.062589 13.100138,5.7486665 3.8194,-4.2450485 12.50233,-1.018048 7.41532,4.874172 -0.55483,4.5908 -10.853928,6.88949 -4.62058,9.80002 4.41833,4.79709 -0.77924,10.39742 -5.243068,11.16951 7.147028,1.33983 12.972668,10.74207 7.798548,17.03069 -1.97602,4.12039 6.52957,8.68374 10.51111,9.71791 3.79848,0.61907 6.70402,4.80498 8.12312,-0.69983 3.37366,-2.90669 7.99615,-2.81108 4.80417,-8.08497 -1.54402,-1.33022 -2.26488,2.96134 -2.10557,2.62125 -2.34274,0.84443 -2.39842,2.7468 -1.93802,2.28164 -2.31386,2.6054 -4.10374,-0.81674 -4.52764,-0.23658 -0.29407,-2.86124 0.1992,-8.58243 -0.65692,-11.99651 -6.85677,-0.36969 -0.4114,-4.38434 1.7534,-6.0567 -1.50343,-4.7386 4.90072,-3.65638 0.17424,-1.77936 -0.48524,6.49803 6.90701,-8.24723 3.18273,0.006 -0.87786,3.00598 -12.18948,6.42779 -4.6491,7.14122 1.36845,-2.08468 10.66643,-4.54736 3.73203,-1.22863 -2.12101,1.74237 -1.91675,1.52662 -0.7906,1.34263 -2.32979,2.01229 -2.91288,4.1155 -0.52992,1.09616 2.57953,-1.32475 2.74758,-1.07205 0.32383,0.89903 2.54727,-2.4828 4.47559,-1.49262 0.38717,0.48523 -4.80422,3.31711 2.06162,-3.29443 -1.97919,0.43083 -2.7426,2.30426 6.37913,-0.46024 2.54981,1.63115 -3.92104,-1.88743 -5.02207,6.6133 -1.0407,3.40385 -1.60658,1.93407 -2.31236,3.3499 0.28672,1.15871 -1.66058,1.74057 -2.55205,3.28593 0.16842,0.98639 -2.99439,2.89019 -0.0292,3.00737 0.54908,-0.0288 2.85207,-3.0894 2.04695,-5.19355 5.06347,-8.6146 -2.72194,1.22548 -2.99126,1.69797 -0.70945,-0.58367 -1.23484,0.94371 -4.13022,2.52053 -1.46401,0.34669 -4.64412,2.61713 -1.53286,0.29981 0.79201,-0.93393 0.54539,1.11114 2.72523,-1.15751 3.03255,-2.31515 4.3734,-4.71007 -1.51776,3.86135 3.14844,2.52288 -0.0175,-4.51207 10.47032,-2.94324 5.63028,-8.869 -3.25705,-4.27534 -8.07304,3.37583 -8.94856,2.27028 1.93158,-1.18283 2.8257,-1.81484 1.35561,-1.80772 2.41095,-1.60493 -1.57053,-0.82839 2.11895,-2.42947 4.94011,-2.89923 -3.27845,0.52015 1.48912,-1.89017 -0.79673,-3.11888 -3.83601,-7.18434 -0.12154,-10.53825 -3.45287,-4.57242 -12.64113,2.5976 -11.92769,6.03673 0.41992,-2.67292 1.20868,-3.27697 -1.16729,-4.02815 1.88657,-3.89871 6.4492,-6.81522 10.889,-7.18421 5.20397,2.82045 7.30961,9.78247 6.27401,15.53476 -2.1058,3.25848 5.61953,9.62721 -2.00124,10.49963 -4.16746,-0.49605 -1.58253,5.30323 -6.11364,4.34276 0.96629,4.39998 -0.13564,12.74181 6.55476,9.50786 0.70318,5.74292 6.55876,5.44019 10.03362,8.71377 4.46109,5.33676 4.13037,12.78268 6.07135,19.15134 1.55955,2.80348 -0.21173,6.85046 -0.71155,1.99792 -0.48321,-5.20517 -3.09374,-9.9614 -4.10488,-15.05219 -0.37479,-3.11341 -7.25901,-10.54648 -8.19091,-5.9237 -0.37853,2.99887 -3.23219,6.31821 -4.42177,1.81532 -5.11836,2.27947 2.65654,-2.34319 -2.86521,-1.36291 0.0559,-0.88391 -5.28813,-4.98392 -4.89579,-6.66718 -2.45366,0.7117 -6.90198,6.3016 -1.48483,3.32316 5.02357,-0.50309 4.20485,6.03296 5.74628,7.03014 2.97552,-2.88838 2.57671,4.28269 -0.78884,2.68761 0.0135,4.09404 0.0557,3.93374 3.27167,3.04179 2.75118,3.83298 -5.17373,1.79951 -2.87724,6.06524 -0.24131,3.25721 -0.44447,-5.78906 -0.74249,-7.33689 0.19933,-4.19971 -1.88432,-14.59685 -6.01109,-8.33308 -3.88082,2.95704 -3.22538,-1.86058 -6.96961,-2.18813 -6.13159,-0.82259 -11.6239,-4.14673 -15.81695,-9.01092 -5.128668,-5.24847 -9.152608,-11.48361 -14.402118,-16.60974 -2.74589,-4.30551 -6.79209,-8.30646 -7.70446,-13.11538 -2.13981,0.48107 -5.75679,6.06096 -8.98769,7.34023 2.65129,2.39729 7.04487,-4.07468 3.37658,0.48252 2.11186,1.84127 5.766,-4.23117 2.36881,0.52477 -3.4947,4.46108 4.94245,-2.80395 -0.2802,2.46632 1.13863,3.12993 2.89447,-1.85654 1.70068,2.2889 1.25187,1.63175 4.59291,-3.55089 1.3713,0.52681 -1.58414,2.89191 3.31193,1.91991 3.7621,-0.36629 -2.74071,1.4844 -2.52473,6.30433 0.50728,2.66826 0.28923,-1.13442 -2.36992,5.64592 1.25406,2.5623 4.13662,-4.886 -4.28748,5.25243 1.43156,2.04653 3.63925,-3.72 -3.62236,2.91772 0.55,3.38045 -0.49141,4.64232 6.02616,-2.8801 2.20964,1.45202 -1.80254,4.74404 5.47181,-1.95716 0.76973,2.90897 1.16768,4.01758 5.51214,-2.6775 1.95255,2.23574 2.48133,0.66267 2.31817,-1.11747 2.82444,1.8897 1.90075,0.19563 4.220308,-2.84865 1.6092,0.71521 -1.08365,3.34292 4.554098,-2.34558 1.25849,2.38144 0.746798,2.1599 5.516998,-3.11378 1.800138,0.96153 -0.24568,4.82639 6.42029,-3.211 1.95522,2.45806 1.36501,1.98811 4.33394,-3.02367 1.99393,1.3318 1.50155,1.21087 4.51818,-3.35478 1.62935,1.00122 1.31907,2.65796 7.40466,-4.7768 4.08511,-0.1518 -3.69389,3.19556 2.58481,0.27145 2.1501,2.82776 2.39631,-1.55377 5.37696,-3.11958 1.78533,0.0807 1.02539,1.4341 3.80031,-1.76185 2.30642,1.29232 2.38711,-1.24465 7.03811,-4.19292 2.41377,-0.7474 -1.91655,2.79211 4.39686,-1.23459 3.56689,2.01919 1.95288,0.77523 6.88769,-3.54045 2.63767,0.47238 -4.11821,3.22 3.51442,-0.71052 -0.80535,2.19578 -1.92755,2.98034 4.3734,-0.28854 0.40097,2.30766 -0.31973,3.54478 5.62631,-1.85736 0.77801,2.13795 0.97326,3.69683 1.5724,5.88385 2.64887,7.0326 5.15969,-1.88815 -4.12299,2.49012 1.42989,2.03402 2.36509,-0.20802 -4.11571,3.21498 -2.72484,-1.1411 -3.11302,-5.52372 -2.29146,-16.11036 -10.61986,-15.05647 -4.87345,0.19737 -10.61448,-5.63003 -14.27201,-4.01964 -1.92206,7.90927 -14.691648,8.84247 -16.555958,15.04518 2.34548,1.27699 4.18693,5.21548 1.05529,6.63327 z m 47.063458,-11.26049 c -0.24465,-1.61019 3.16277,-2.95887 -0.15527,-1.22402 -0.34681,0.32893 -0.33476,1.04743 0.15527,1.22402 z m 0.78317,-0.34204 c 0.89996,-2.14912 -1.47437,-0.52605 0,0 z m 1.10067,-0.71647 c 0.50576,-1.05105 -0.34555,0.30605 0,0 z m -2.6035,-5.38302 c 0.96657,-1.62273 -1.01715,-0.36316 0,0 z m 5.78759,-3.89014 c 4.38433,-4.66632 -3.76749,-12.38295 -5.53927,-4.08496 1.69469,1.15227 5.20701,1.90343 5.53927,4.08496 z m -7.27631,-1.71939 c 0.18106,-0.37935 -0.28014,0.0726 0,0 z m 1.24946,-4.14366 c 0.73211,-3.64873 -1.13832,-11.36016 -2.58941,-13.36422 -1.28094,3.66142 2.45982,8.64337 0.87605,11.91459 1.38472,-0.45901 0.96878,3.32027 1.71336,1.44963 z m 1.47391,-2.18939 c 3.88325,-1.63469 -3.06405,-3.73865 0,0 z m -8.8753,-3.58753 c 0.61847,-0.71657 -0.70981,0.43865 0,0 z m 1.26134,-1.56172 c 1.33565,-0.83126 -1.20029,0.33101 0,0 z m -0.013,-0.48745 c 2.94456,-1.74059 -0.21761,-0.69504 0,0 z m 0.74542,-1.21415 c 1.9535,-0.70548 1.22655,-2.13582 0,0 z m 1.08837,-2.28188 c 0.56655,-0.25056 -0.0818,-0.41332 0,0 z m 1.21188,-2.45533 c 1.75584,-0.9879 0.57524,-1.37304 0,0 z m -8.47176,-1.0795 -0.0391,-0.20852 z m 3.52109,-0.58007 c 2.45586,-1.42955 0.57854,-0.65718 0,0 z m 6.0325,-0.11843 0.003,-0.0759 z m 4.19351,-10.86907 c 1.88764,0.69786 2.46867,-3.26116 0,0 z m 2.09299,-0.39161 c 2.37056,-1.38803 -1.07222,-2.15861 0,0 z m 0.99694,1e-5 c 3.67042,-3.60372 -0.21692,-7.38653 -0.31993,-3.65707 3.69121,-2.11781 -0.96864,2.65113 0.31993,3.65707 z m -0.0121,-4.14867 0.0924,-0.15337 z m 0.254,-0.33866 0.0924,-0.15337 z m 0.26399,-0.33867 -0.003,-0.0759 z m -62.050688,4.14867 c 0.42978,-0.24793 -0.77729,-0.14732 0,0 z m 60.480408,-1.64857 c 1.61073,-1.00404 -0.5234,-0.44439 0,0 z m 1.30629,-0.89143 0.11402,-0.17737 z m -1.26993,-1.42252 c 3.29128,-1.58004 -1.14764,-0.24627 0,0 z m -0.67555,-0.86348 c 1.27921,-0.34324 -0.79275,-0.49031 0,0 z m 1.91313,-0.59508 c 3.87146,-0.57865 -1.94164,-11.46555 -1.38663,-5.17265 -2.99438,3.77416 -0.29029,0.91536 1.64055,1.31478 -1.91108,2.17634 -2.71877,2.38036 0.24518,0.77309 -1.16283,1.82694 -4.12177,3.66097 0.0212,1.91571 0.77315,-0.19167 -2.39049,2.1755 -0.52033,1.16907 z m -1.98507,-3.97724 c 2.23242,-2.42352 1.79322,-0.90028 0,0 z m -60.912788,3.64098 c 6.66455,-1.39373 -0.20177,-12.31801 -1.09817,-9.9711 5.01952,5.33428 -7.777634,-4.75499 -2.02954,-0.0913 3.94336,2.65124 0.47025,4.11555 -1.348489,0.44241 -2.115145,-2.13317 -8.9473,-3.70817 -3.859038,-0.26899 5.436747,1.8845 3.651461,7.28972 -0.177064,5.50708 0.777032,5.31734 7.255551,-0.19283 8.512301,4.38194 z m 60.471208,-0.5254 c 0.43097,-1.13715 -1.01093,-0.039 0,0 z m -0.39128,-1.43999 -0.0616,-0.2871 z m 0.93939,-0.36536 c 2.55643,-2.10373 -1.8229,1.30804 0,0 z m -57.007138,-1.73325 0.003,-0.0759 z m 44.748158,-0.53104 c 4.19466,-2.19593 0.22588,-2.08385 -0.68734,0.35086 z m -54.875814,-0.0618 c 4.064346,-2.78743 -10.409962,-10.20811 -6.738702,-4.26802 2.705646,0.36272 4.255664,3.27063 6.738702,4.26802 z m 28.167456,-1.77981 c 5.540148,-1.76966 11.185008,-7.47601 11.089748,-13.366773 -3.86587,-3.4786045 -11.496168,2.871543 -13.490298,8.081113 -1.10213,2.04797 -0.24399,5.11112 2.40055,5.28566 z m 30.511548,-0.50599 c 0.78698,-0.21693 -0.29953,-0.19937 0,0 z m 2.82017,-0.97532 c 3.04764,0.0564 4.70199,-2.93092 0,0 z m 2.7305,-0.88734 -0.003,-0.0759 z m -6.00772,0.66398 c 1.37469,-0.98016 -1.18144,0.63795 0,0 z m 6.96357,-0.52801 c 5.35898,-0.12602 -4.43069,-4.49163 -4.46048,-1.20338 2.13617,-1.36603 5.13413,0.54847 4.46048,1.20338 z m 0.62867,0.1993 c 1.53696,-0.22731 -0.67032,-0.37736 0,0 z m -3.70119,-0.25061 0.003,-0.0759 z m 0.21167,-0.1181 c 3.50424,-1.36215 0.32513,-0.89254 0,0 z m -2.83634,-0.1359 0.003,-0.0759 z m 1.53364,0 c 1.65859,-0.25167 0.0725,-1.01507 0,0 z m -1.3643,-0.0847 0.003,-0.0759 z m 0.16933,-0.0907 0.44671,-0.25018 z m 0.59267,-0.248 0.003,-0.0759 z m 4.572,-0.16933 c 0.72801,-0.17455 -0.52151,-0.12783 0,0 z m -73.717949,-1.27728 c 3.686147,-2.49404 -6.594439,-2.06648 -1.044712,-0.39745 z m 87.160029,71.55061 c -0.94226,-4.85434 -2.73981,-9.01762 -5.20101,-13.3121 3.95915,-0.59283 2.46774,1.30461 3.55325,2.5885 3.68089,-2.59536 1.52229,0.47949 -0.17745,1.32037 2.27275,0.74719 2.80565,1.26429 1.29076,3.7011 3.56775,-0.0582 -1.75297,2.66177 2.3523,2.02318 -3.67173,1.32585 2.25928,0.16782 -1.51279,1.62358 0.0366,0.34296 0.84919,2.07059 -0.30506,2.05537 z m -0.79745,-7.51129 c 2.6197,-0.23029 -1.73423,-0.90439 0,0 z m -0.35385,3.67307 c -0.25377,0.0714 0.19031,-0.35303 0,0 z m 1.52031,-2.12714 c -1.4387,-0.49366 2.4051,-0.78251 0,0 z m -12.49643,-0.22587 c -7.00335,-2.40396 4.07931,-4.65699 0,0 z m -0.463,-1.17477 -0.081,-0.15629 z m -7.72844,1.10067 c 0.30018,-2.18889 3.39596,0.16369 0,0 z m -0.82389,-2.48012 c -0.93658,-1.32928 4.7602,-2.05598 0.51596,-0.087 z m 20.72349,-0.90656 c -0.78403,-0.89159 2.03751,-0.68314 0,0 z m -18.99182,-2.70933 c -0.38269,-0.0725 0.35701,-0.09 0,0 z m 0.21166,-0.0847 -0.003,-0.0759 z m -1.50283,-9.36255 c 0.16483,-2.35355 4.4744,-3.38373 0.75544,-0.48322 z m 0.2387,-1.49989 c -0.72405,-1.24355 3.71477,-1.13537 0,0 z m -0.76787,-8.61084 -0.003,-0.0759 z m -2.64003,-3.72533 c 0.24631,-1.70627 4.27114,-0.61811 0,0 z m -3.84196,-0.508 0.0126,-0.12839 z m 1.46839,-0.16934 c -0.0626,-1.23879 2.91703,-1.2935 0,0 z m 3.1086,-7.78934 c -0.38263,-0.0725 0.35739,-0.0897 0,0 z m 1.56634,-0.16933 -0.003,-0.0759 z M 59.042658,32.193668 c -39.332786,-21.497719 -19.666393,-10.74886 0,0 z m 70.510492,13.81534 c 1.40633,-2.13831 4.4572,-3.49026 0.1872,-1.53006 1.30946,-2.90532 12.18992,-7.17412 7.27272,-1.64977 -3.91746,0.48467 4.07092,-3.17821 -0.89094,-2.44217 -3.09599,0.9327 -3.23335,4.94858 -6.56898,5.622 z m 1.22447,-2.86708 c 0.68595,-2.44983 5.02782,-3.05669 0.85693,-0.46425 z m -1.20331,-3.31787 c -3.22559,-0.54036 -1.40536,-1.17899 0.56278,-0.12272 z m 1.02834,-0.98434 c -7.47655,0.52869 0.69909,-9.64743 1.33342,-2.12879 0.20663,0.84961 -0.12297,2.43966 -1.33342,2.12879 z m 0.0518,-0.6466 c 0.96278,-1.26408 -0.76765,0.66429 0,0 z m -1.7729,-0.17605 c -0.69759,-2.93401 4.88625,-0.22453 0.2696,-2.25446 -1.43993,-0.12082 -1.57864,2.01072 -0.2696,2.25446 z m 2.13213,-0.50769 0.003,-0.0759 z m -2.56117,-1.83759 c 3.89325,0.30771 -0.0927,-1.90385 0,0 z m -4.7225,2.00525 c -2.63252,-4.1637 5.12492,-4.34568 1.876,-2.47351 0.4521,-0.90835 -3.88017,2.56105 -0.0296,0.42738 3.3337,0.38628 -0.89482,2.18307 -1.84644,2.04613 z m -0.20028,-3.72366 c -1.6126,-3.06147 6.72335,-4.09532 1.14311,-1.47804 -0.64301,0.2594 -0.4866,1.43846 -1.14311,1.47804 z m 10.12316,-0.10215 c -2.46888,-1.88595 -7.49004,-2.7507 -1.94924,-2.99216 0.81439,0.22723 4.18627,2.80245 1.94924,2.99216 z m -23.29788,-9.26485 c -6.7567,-3.40288 8.11774,-13.199604 6.73323,-4.58183 -1.26242,2.46186 -4.19491,3.87888 -6.73323,4.58183 z m -0.0944,-0.62552 c 3.88199,-0.38794 8.78267,-6.58788 3.32792,-6.71846 -2.08439,0.79482 -6.43256,4.94925 -3.32792,6.71846 z m 7.88374,0.50287 c -4.64985,-3.40936 7.14009,-5.96763 2.54785,-0.76591 -0.75212,0.48601 -1.64006,0.8112 -2.54785,0.76591 z m 0.21167,-0.52532 c 6.33003,-1.45889 -1.56157,-6.10169 0,0 z M 0.0434771,3.8120465 C 0.60386309,7.5054995e-4 9.145049,-0.92909843 2.411485,2.0593075 1.527014,2.5015735 0.76005606,3.1390525 0.0434771,3.8120465 Z M 52.641375,2.0867335 C 50.783327,-1.6235975 66.467207,0.54854955 59.081787,0.87542153 56.963409,1.4093295 54.84024,2.0149925 52.641375,2.0867335 Z"
       id="path_background_drawing"
       sodipodi:nodetypes="cccccccccccccccccccccccccccccccccccccccccccccccccccccccccccccccccccccccccccccccccccccccccccccccccccccccccccccccccccccccccccccccccccccccccccccccccccccccccccccccccccccccccccccccccccccccccccccccsccccssccccccccccccccccccccccccccccccccccccccccccccccccccccccccccccccccccccccccccccccccccccccccccccccccccccccccaaacccccccccccccccaaaccccaaaaaaaacccccccccccccccccccccccccccccccccccc"
       inkscape:label="Drawing" />
  </g>
  <script
     id="script22">
    function hideUnblurredPaths() {
      var elements = document.querySelectorAll(&quot;[id^='path_']:not([id^='path_item_blurred'])&quot;);;
      for (element of elements) {
        element.style.display=&quot;none&quot;;
      }
    }

    function showBlurredPaths() {
      var elements = document.querySelectorAll(&quot;[id^='path_item_blurred']&quot;);;
      for (element of elements) {
        element.style.display=&quot;inline&quot;;
      }
    }

    function moveTo(subsection_name) {
      hideUnblurredPaths();
      showBlurredPaths();
      document.getElementById(&quot;path_item_blurred_&quot; + subsection_name).style.display=&quot;none&quot;
      document.getElementById(&quot;path_item_&quot; + subsection_name).style.display=&quot;inline&quot;
      document.getElementById(&quot;path_background_&quot; + subsection_name).style.display=&quot;inline&quot;
    }
  </script>
  <script
     xlink:href="../scripts/index.js"
     id="script24" />
</svg>
