<?xml version="1.0" encoding="UTF-8" standalone="no"?>
<!-- Created with Inkscape (http://www.inkscape.org/) -->

<svg
   xmlns:dc="http://purl.org/dc/elements/1.1/"
   xmlns:cc="http://creativecommons.org/ns#"
   xmlns:rdf="http://www.w3.org/1999/02/22-rdf-syntax-ns#"
   xmlns:svg="http://www.w3.org/2000/svg"
   xmlns="http://www.w3.org/2000/svg"
   xmlns:sodipodi="http://sodipodi.sourceforge.net/DTD/sodipodi-0.dtd"
   xmlns:inkscape="http://www.inkscape.org/namespaces/inkscape"
   width="326.2995"
   height="288.72818"
   id="svg3236"
   version="1.1"
   inkscape:version="0.48.5 r10040"
   sodipodi:docname="mm_cartoon_pondering.svg">
  <defs
     id="defs3238" />
  <sodipodi:namedview
     id="base"
     pagecolor="#ffffff"
     bordercolor="#666666"
     borderopacity="1.0"
     inkscape:pageopacity="0.0"
     inkscape:pageshadow="2"
     inkscape:zoom="0.7"
     inkscape:cx="-132.17517"
     inkscape:cy="199.91484"
     inkscape:document-units="px"
     inkscape:current-layer="layer1"
     showgrid="false"
     fit-margin-top="0.8"
     fit-margin-left="-3.7"
     fit-margin-right="0"
     fit-margin-bottom="0"
     inkscape:window-width="1280"
     inkscape:window-height="958"
     inkscape:window-x="0"
     inkscape:window-y="27"
     inkscape:window-maximized="1" />
  <metadata
     id="metadata3241">
    <rdf:RDF>
      <cc:Work
         rdf:about="">
        <dc:format>image/svg+xml</dc:format>
        <dc:type
           rdf:resource="http://purl.org/dc/dcmitype/StillImage" />
        <dc:title></dc:title>
      </cc:Work>
    </rdf:RDF>
  </metadata>
  <g
     inkscape:label="Layer 1"
     inkscape:groupmode="layer"
     id="layer1"
     transform="translate(-484.49375,-119.84778)">
    <path
       style="fill:#000000"
       d="m 494.46137,406.53353 c -4.22242,-2.64465 -9.96762,-10.96171 -9.96762,-14.42972 0,-4.7382 7.65656,-8.63112 16.67369,-8.47759 10.98204,0.18701 14.57395,1.33144 17.86568,5.69233 2.75235,3.64642 2.75093,3.66306 -0.81891,9.25645 -5.78634,9.06649 -16.33893,12.60217 -23.75284,7.95853 z m 11.37576,-4.02543 c 5.84203,-2.98813 8.78432,-7.52402 7.00924,-10.80498 -1.19655,-2.2114 -2.66563,-2.51267 -9.52066,-1.95238 -7.60286,0.62143 -11.71223,2.98782 -11.71223,6.74445 0,1.74448 6.71233,8.11757 8.54966,8.11757 0.85764,0 3.41091,-0.9471 5.67399,-2.10466 z m 44.00492,-35.90137 c -9.76756,-1.24367 -10.07043,-1.42339 -15.2899,-9.07311 -7.36167,-10.78925 -7.45607,-20.34717 -0.23724,-24.03952 5.74933,-2.94079 21.40049,-4.20516 27.48145,-2.22007 3.92084,1.27988 5.70447,1.27264 7.81619,-0.0316 1.50483,-0.92956 4.27441,-1.30776 6.15472,-0.84045 3.77375,0.93787 11.2506,11.24328 11.2506,15.50685 0,4.91821 -7.61255,14.48623 -14.59615,18.34573 -6.98361,3.85942 -9.05118,4.07481 -22.57967,2.35232 z m 20.13375,-8.60781 c 10.67846,-5.36739 14.30311,-11.0999 11.14793,-17.63085 -2.65751,-5.50067 -7.35838,-5.96848 -11.84595,-1.1789 -3.64815,3.89351 -7.89094,3.9244 -7.89094,0.0575 0,-3.57031 -2.42498,-3.82216 -12.84628,-1.33418 -12.41752,2.96452 -13.80971,4.89502 -9.87521,13.69296 1.57702,3.5263 3.52199,6.81171 4.32226,7.30091 1.26517,0.77336 11.5005,2.80291 16.57672,3.28695 0.95547,0.0911 5.64068,-1.79633 10.41147,-4.19432 z M 704.1185,331.0451 c -3.84234,-0.72625 -9.69487,-2.89064 -13.0056,-4.80978 -4.23225,-2.45328 -8.92263,-3.69943 -15.79707,-4.197 -16.52543,-1.19613 -29.46355,-3.58615 -35.02377,-6.4699 -4.28608,-2.22294 -6.2675,-2.49319 -10.26836,-1.40053 -12.83674,3.50587 -31.43361,-2.07731 -43.15839,-12.95714 -5.31445,-4.93146 -6.16469,-11.37997 -2.27476,-17.25227 2.22962,-3.36585 2.1926,-3.75123 -0.70585,-7.34488 -1.68252,-2.08596 -4.35627,-6.16944 -5.94198,-9.07438 -1.58556,-2.90495 -3.54676,-5.28173 -4.35813,-5.28173 -2.19615,0 -9.49202,-8.29929 -13.49943,-15.35618 -3.13483,-5.52018 -5.59298,-18.43763 -6.59274,-34.64421 -0.353,-5.72176 4.5283,-19.72779 7.73089,-22.18278 1.76812,-1.35538 4.01582,-3.12334 4.99478,-3.92879 1.01541,-0.83556 1.77993,-4.68372 1.77993,-8.96044 0,-6.62245 0.78816,-8.64265 6.76375,-17.33636 3.72006,-5.41221 8.72309,-12.03836 11.11802,-14.72478 5.29851,-5.94363 27.84343,-18.07881 33.58691,-18.07881 2.28644,0 9.32858,1.97263 15.64946,4.38372 l 11.4923,4.38374 11.60085,-5.60734 c 14.23734,-6.8817 39.517,-11.40905 49.24219,-8.8188 8.79983,2.34378 23.43993,17.42827 30.06352,30.97605 2.92691,5.98668 6.19163,11.2057 7.25493,11.59784 1.06332,0.39215 8.02066,1.83734 15.46078,3.21154 18.46849,3.41117 20.89314,4.46877 25.51613,11.1298 6.43035,9.26516 17.0642,31.181 19.36039,39.90074 3.30627,12.55564 2.78323,23.94218 -1.40901,30.67468 -4.39272,7.05444 -4.44885,9.87377 -0.3058,15.36012 8.39334,11.11477 9.73621,25.72543 3.57426,38.88895 -3.35033,7.15719 -4.39783,8.11036 -14.29206,13.00498 -9.98955,4.94178 -11.51013,5.28173 -23.62408,5.28173 -12.61959,0 -13.0509,0.10958 -17.03953,4.33103 -3.45151,3.65296 -5.63646,4.5278 -13.95564,5.58779 -12.19767,1.55413 -24.75937,1.44804 -33.93689,-0.28661 z m 39.03761,-4.87196 c 8.78065,-3.47513 10.84376,-9.15419 5.68305,-15.64362 -4.74553,-5.96736 -3.14267,-7.11652 1.82555,-1.30882 4.59435,5.3707 4.72116,5.41623 15.9982,5.74528 10.84273,0.31639 11.85168,0.0726 21.8694,-5.28575 9.637,-5.15464 10.78885,-6.25849 13.98114,-13.3983 2.77965,-6.21691 3.29491,-9.10403 2.56355,-14.36388 -11.38677,-43.82856 -32.79619,-14.83656 -12.32155,-31.66046 13.87911,-11.55152 12.45271,-27.75393 -5.32933,-60.53588 -6.18221,-11.39715 -12.17338,-16.19732 -20.21613,-16.19732 -2.97831,0 -8.59188,-0.67389 -12.4746,-1.49751 -6.41593,-1.36101 -7.71608,-1.16842 -14.26222,2.11269 -3.9615,1.98562 -7.54442,3.61021 -7.96205,3.61021 -1.36648,0 -0.79545,-5.44551 0.66464,-6.33808 4.34867,-2.6584 -1.44919,-20.95834 -9.94374,-31.3857 -10.78185,-13.23508 -17.22049,-15.13911 -39.89438,-11.79749 -7.8336,1.15449 -14.0948,3.31522 -23.49511,8.10813 -7.04854,3.5938 -13.86636,7.44523 -15.1509,8.55873 -2.41059,2.08978 -2.60468,1.94171 -15.20974,-11.60294 -3.23791,-3.47942 -8.80397,-2.24777 -20.36926,4.50739 -19.41679,11.341 -35.41882,30.22122 -35.41882,41.78943 0,6.03978 3.83697,9.42823 10.67633,9.42823 3.43355,0 6.63901,0.63381 7.123,1.40846 0.50465,0.80777 -0.82589,1.42986 -3.11986,1.45863 -6.51627,0.0817 -20.66872,3.86182 -22.96612,6.13421 -1.17163,1.15898 -2.66093,5.94511 -3.30954,10.63586 -1.51835,10.98224 1.48204,24.41183 8.06794,36.1101 3.87085,6.87569 5.9343,8.99632 10.46828,10.75795 5.4933,2.13435 5.62659,2.3464 4.88941,7.78258 -1.05215,7.7586 1.33039,11.62837 7.15918,11.62837 8.08217,0 8.49568,2.45735 1.52533,9.06352 -3.45094,3.27069 -6.27448,7.04179 -6.27448,8.38021 0,2.3405 6.16454,8.90534 12.10354,12.88941 1.71444,1.15017 7.87229,2.08066 15.47289,2.3381 13.22476,0.44793 13.64097,0.27765 15.78089,-6.45429 0.8031,-2.52682 0.97754,-2.53728 3.57282,-0.21414 1.50069,1.34332 3.40964,2.02598 4.24222,1.51705 2.5033,-1.53037 1.70902,-8.58426 -1.40814,-12.50398 -4.10425,-5.16094 -20.12606,-12.46357 -26.69089,-12.16549 -7.8458,0.35625 -8.08274,0.21949 -5.15809,-2.97715 2.1476,-2.34722 3.7538,-2.77597 7.92668,-2.11594 5.24752,0.83 14.48908,4.51282 21.1483,8.42775 1.95793,1.15107 5.23629,2.43947 7.28548,2.86312 3.12614,0.64634 3.85492,1.72464 4.52985,6.70158 0.50253,3.70587 0.0309,7.76206 -1.25691,10.81071 -2.48863,5.89141 -1.48902,9.83366 2.70795,10.67983 1.70994,0.34474 6.31286,1.27854 10.22871,2.07511 3.91585,0.79656 11.27659,1.30823 16.35718,1.13704 7.98592,-0.2691 9.30689,-0.69292 9.74986,-3.12819 0.96677,-5.31493 2.88641,-5.30657 5.13747,0.0224 3.89399,9.21825 11.13184,13.16569 26.91277,14.67792 18.02276,1.72706 20.41099,1.6565 26.58026,-0.78509 z"
       id="path3110"
       inkscape:connector-curvature="0"
       sodipodi:nodetypes="ssscssscsssscssscssscccscsssccccsssssssccsssscsscsscssssssssssssssscsssssccsssssssssccssscsccsssssscscscsscssccssssssscc" />
    <text
       xml:space="preserve"
       style="font-size:60.54963303px;font-style:normal;font-variant:normal;font-weight:500;font-stretch:normal;line-height:125%;letter-spacing:0px;word-spacing:0px;fill:#000000;fill-opacity:1;stroke:none;font-family:MMoneib-Yoken2-CalligraphyPen;-inkscape-font-specification:MMoneib-Yoken2-CalligraphyPen Medium"
       x="619.03168"
       y="-90.183075"
       id="text3389"
       sodipodi:linespacing="125%"
       transform="matrix(0.88972107,0.45650457,-0.45650457,0.88972107,0,0)"><tspan
         sodipodi:role="line"
         id="tspan3391"
         x="619.03168"
         y="-90.183075">Photography</tspan></text>
  </g>
</svg>
