<?xml version="1.0" encoding="UTF-8" standalone="no"?>
<!-- Created with Inkscape (http://www.inkscape.org/) -->

<svg
   xmlns:dc="http://purl.org/dc/elements/1.1/"
   xmlns:cc="http://creativecommons.org/ns#"
   xmlns:rdf="http://www.w3.org/1999/02/22-rdf-syntax-ns#"
   xmlns:svg="http://www.w3.org/2000/svg"
   xmlns="http://www.w3.org/2000/svg"
   xmlns:sodipodi="http://sodipodi.sourceforge.net/DTD/sodipodi-0.dtd"
   xmlns:inkscape="http://www.inkscape.org/namespaces/inkscape"
   width="161.31215"
   height="312.33426"
   id="svg3236"
   version="1.1"
   inkscape:version="0.48.5 r10040"
   sodipodi:docname="New document 15">
  <defs
     id="defs3238" />
  <sodipodi:namedview
     id="base"
     pagecolor="#ffffff"
     bordercolor="#666666"
     borderopacity="1.0"
     inkscape:pageopacity="0.0"
     inkscape:pageshadow="2"
     inkscape:zoom="0.98994949"
     inkscape:cx="78.186662"
     inkscape:cy="149.08046"
     inkscape:document-units="px"
     inkscape:current-layer="layer1"
     showgrid="false"
     fit-margin-top="0"
     fit-margin-left="0"
     fit-margin-right="0"
     fit-margin-bottom="0"
     inkscape:window-width="1280"
     inkscape:window-height="958"
     inkscape:window-x="0"
     inkscape:window-y="27"
     inkscape:window-maximized="1" />
  <metadata
     id="metadata3241">
    <rdf:RDF>
      <cc:Work
         rdf:about="">
        <dc:format>image/svg+xml</dc:format>
        <dc:type
           rdf:resource="http://purl.org/dc/dcmitype/StillImage" />
        <dc:title></dc:title>
      </cc:Work>
    </rdf:RDF>
  </metadata>
  <g
     inkscape:label="Layer 1"
     inkscape:groupmode="layer"
     id="layer1"
     transform="translate(-319.34392,-370.48077)">
    <path
       style="fill:#000000"
       d="m 319.55795,680.52019 c 0.31237,-1.27481 1.03345,-5.24284 1.60239,-8.81784 4.00711,-25.17905 5.34697,-30.79745 11.08915,-46.5 3.33849,-9.12944 5.26647,-19.11745 4.10804,-21.28199 -0.79572,-1.48683 -0.56444,-3.35852 0.94606,-7.65616 1.09959,-3.12853 2.52783,-6.53463 3.17387,-7.56911 0.94561,-1.51415 0.84208,-2.24832 -0.53099,-3.76554 -0.93808,-1.03658 -1.70561,-2.41045 -1.70561,-3.05306 0,-0.64261 -1.53554,-2.86804 -3.41232,-4.9454 -1.91479,-2.11946 -3.71677,-5.39993 -4.10607,-7.47506 -0.59158,-3.15341 -0.26123,-4.25439 2.24316,-7.47585 2.76892,-3.56174 2.91129,-4.19671 2.48909,-11.10101 -0.42589,-6.96446 -0.30888,-7.4682 2.38861,-10.28378 2.4322,-2.53866 2.66264,-3.23888 1.61698,-4.91325 -0.6707,-1.07396 -1.21945,-2.78901 -1.21945,-3.81123 0,-1.02222 -0.9,-2.67307 -2,-3.66856 -1.1,-0.99549 -2,-2.60023 -2,-3.56609 0,-2.63647 5.51452,-6.87363 8.07452,-6.20417 1.68312,0.44014 2.05159,0.16361 1.76499,-1.32459 -0.27742,-1.4405 -1.63474,-2.06401 -5.79718,-2.66304 -2.98923,-0.43019 -7.37162,-1.91712 -9.73865,-3.30429 -6.39131,-3.74556 -6.03098,-6.69966 1.81848,-14.9082 3.36719,-3.52123 6.92863,-7.72837 7.91432,-9.34921 0.98569,-1.62084 2.64083,-3.562 3.67809,-4.3137 1.03725,-0.75169 2.64812,-2.47549 3.57969,-3.83067 1.65514,-2.40777 1.61349,-2.54618 -1.82585,-6.06839 -2.79183,-2.85908 -3.64539,-4.66634 -4.12785,-8.73992 -0.54365,-4.59028 -0.27721,-5.65134 2.50953,-9.9941 3.41165,-5.31659 3.30765,-6.91875 -0.99767,-15.36977 -2.14495,-4.21038 -2.36092,-8.81563 -0.63699,-13.58307 0.95391,-2.63798 0.95391,-3.77998 0,-5.30743 -0.66849,-1.07042 -1.21543,-3.12861 -1.21543,-4.57376 0,-3.0759 7.58673,-15.67141 11.96747,-19.86843 3.70591,-3.55048 3.82826,-5.11463 0.46609,-5.95848 -3.7212,-0.93396 -2.83304,-3.98384 1.2762,-4.38243 2.11048,-0.2047 3.40233,-0.96807 3.80954,-2.25106 0.91082,-2.86975 3.75364,-3.99506 11.78166,-4.66368 3.95947,-0.32978 7.64904,-1.16363 8.19904,-1.853 1.11262,-1.39457 8.97688,-4.28193 14.7572,-5.41809 2.37383,-0.46659 5.87167,-0.20265 9.5,0.71685 3.15854,0.80044 10.2428,1.82031 15.7428,2.26638 8.26172,0.67004 11.44453,1.44895 18.31011,4.48088 10.82858,4.78204 15.18989,7.40351 15.18989,9.13025 0,0.77067 -0.45,1.40122 -1,1.40122 -1.68684,0 -1.11148,2.58914 1,4.5 1.1,0.99549 2,2.86523 2,4.15499 0,2.8715 3.28662,6.34501 6.00362,6.34501 4.71249,0 13.059,6.47122 14.59713,11.31745 0.36185,1.14009 1.98231,4.2253 3.60101,6.85602 1.6187,2.63073 2.65894,5.2429 2.31165,5.80483 -0.92033,1.48913 -3.07917,1.24985 -4.53347,-0.50247 -2.89077,-3.48317 -1.86687,-0.0746 2.54163,8.46106 3.87367,7.50015 4.4784,9.35822 3.44931,10.59819 -0.88302,1.06398 -2.23067,1.31921 -4.60937,0.87296 -3.23019,-0.60599 -3.36151,-0.50908 -3.36151,2.48067 0,3.3003 2.94749,7.11129 5.5,7.11129 0.82683,0 1.5,0.88604 1.5,1.97432 0,2.92624 -5.39117,5.37865 -10.15085,4.61755 -4.23746,-0.6776 -4.90395,0.42947 -2.31735,3.84926 2.0553,2.71735 1.82774,5.30997 -0.5318,6.05886 -3.28473,1.04253 -2.373,3.95054 1.81837,5.79977 6.36703,2.80912 8.68927,6.04613 8.63345,12.03432 -0.0881,9.44802 -6.70288,19.28488 -18.19579,27.05886 -4.88118,3.30171 -9.42429,3.19305 -13.90644,-0.3326 -5.20325,-4.09288 -13.34959,-1.8293 -13.34959,3.70937 0,1.16174 -0.47445,2.40547 -1.05434,2.76386 -0.69881,0.43189 -0.5162,1.47291 0.54156,3.08726 2.65976,4.05931 -0.73382,6.01994 -4.92835,2.84736 -4.29636,-3.24961 -5.16057,-0.78409 -1.91676,5.46836 1.10237,2.12481 1.03196,2.93674 -0.47904,5.52392 -2.2538,3.85905 -4.69154,4.32503 -7.15604,1.3679 -1.66794,-2.00135 -1.94516,-2.07764 -1.97376,-0.5432 -0.0183,0.98185 0.67899,2.87223 1.54952,4.20083 2.46871,3.76773 1.50639,6.01399 -2.57644,6.01399 -4.31907,0 -5.11908,2.50367 -2.10338,6.58262 1.15336,1.56002 2.09703,3.04666 2.09703,3.30365 0,0.70261 -6.118,3.61373 -7.59462,3.61373 -1.66896,0 -2.70609,1.70442 -1.86512,3.06514 0.44265,0.71622 1.19904,0.59438 2.30902,-0.37193 0.90789,-0.7904 4.72768,-2.00311 8.48841,-2.69492 6.35059,-1.16824 7.02566,-1.11751 9.4762,0.71208 2.88027,2.15043 3.93316,4.83611 4.08643,10.42349 0.0951,3.46582 0.36557,3.73945 5.84968,5.91738 16.81176,6.67655 26.91791,14.497 32.25616,24.96083 2.19105,4.29481 2.22995,4.88013 1.34342,20.21443 -0.50212,8.68535 -0.57009,19.94998 -0.15103,25.03252 0.44273,5.36966 0.35127,11.5173 -0.21832,14.67464 -0.53912,2.98851 -0.98023,7.60101 -0.98023,10.25 0,4.61183 -0.11925,4.81634 -2.80848,4.81634 l -2.80847,0 0.15537,-34.25 c 0.15437,-34.02865 0.14018,-34.28231 -2.19612,-39.25 -1.29332,-2.75 -3.61373,-6.37368 -5.15645,-8.05263 -2.81231,-3.06063 -15.02091,-10.46629 -22.88309,-13.88073 l -4.19724,-1.82281 -6.49917,5.17154 c -3.57454,2.84435 -6.76431,6.00695 -7.08838,7.02801 -0.32407,1.02106 0.41648,3.9265 1.64567,6.45654 1.84852,3.8048 2.70889,4.60008 4.97661,4.60008 3.39996,0 4.29742,1.31369 2.80391,4.10433 -0.80514,1.50442 -0.84254,2.78074 -0.12516,4.27067 0.56274,1.16875 1.27399,4.825 1.58056,8.125 1.39449,15.01054 9.25317,37.41203 17.66712,50.36081 2.16332,3.32929 3.93332,6.29759 3.93332,6.59622 0,0.29863 -1.24546,0.54297 -2.76768,0.54297 -2.45636,0 -3.38066,-1.08637 -8.21728,-9.65817 -8.48788,-15.04281 -15.06928,-32.49501 -17.21219,-45.64238 -0.6454,-3.9597 -1.62098,-7.79305 -2.16795,-8.51856 -1.25567,-1.66553 -8.78182,-0.8269 -16.85271,1.87788 -8.95729,3.00183 -16.40627,3.59141 -18.7361,1.48294 -1.05604,-0.9557 -2.38876,-1.44796 -2.96162,-1.09392 -1.31116,0.81035 2.03446,9.95192 4.73651,12.94205 4.7712,5.27988 11.33311,19.65014 17.63368,38.61689 l 3.35709,10.10595 -3.12056,-0.30634 c -3.43388,-0.3371 -3.20131,0.11032 -8.21648,-15.80634 -2.66627,-8.46195 -6.85685,-17.71869 -14.48662,-32 -2.20377,-4.125 -4.41923,-8.85 -4.92324,-10.5 -1.70506,-5.58194 -7.03788,-17.65338 -9.04236,-20.46842 -2.87731,-4.0408 -15.79243,-12.66164 -17.06391,-11.39016 -0.55744,0.55744 -1.17751,5.02866 -1.37795,9.93605 -0.29628,7.25383 -1.13896,11.16678 -4.5058,20.92253 -2.27774,6.6 -4.50217,13.575 -4.94317,15.5 -0.44099,1.925 -1.7937,6.65 -3.00602,10.5 -1.23389,3.91851 -2.73718,12.72277 -3.41492,20 l -1.21072,13 -3.87544,0.31784 c -3.60938,0.29603 -3.83644,0.15872 -3.30747,-2 z m 69.68291,-64.4891 c 0,-1.00851 -3.18696,-4.32874 -4.15499,-4.32874 -1.00011,0 -1.13892,3.37276 -0.17834,4.33333 0.86897,0.86897 4.33333,0.8653 4.33333,-0.005 z m -10.18664,-4.57874 c -0.27554,-2.85772 -0.70564,-3.28782 -3.56336,-3.56336 -2.20658,-0.21275 -3.25,0.11713 -3.25,1.0275 0,2.3484 3.04189,5.78586 5.12006,5.78586 1.66153,0 1.95276,-0.55897 1.6933,-3.25 z m 26.19227,1.59162 c 3.33104,-0.34816 6.23597,-0.92352 6.45541,-1.27858 0.21944,-0.35506 -0.90944,-3.327 -2.50862,-6.6043 -1.59919,-3.27731 -2.91769,-6.99902 -2.93001,-8.27047 -0.0152,-1.56972 2.22444,-4.4755 6.97759,-9.05289 4.99812,-4.8133 7,-7.45528 7,-9.23827 0,-1.37341 0.54,-3.03711 1.2,-3.69711 0.90148,-0.90148 0.91509,-1.48491 0.0547,-2.34528 -0.86038,-0.86038 -2.26518,-0.83173 -5.64711,0.11515 -3.48417,0.97551 -5.92662,2.78497 -10.80472,8.00457 -3.46659,3.70928 -7.01598,7.79108 -7.88754,9.07068 l -1.58465,2.32654 -2.98931,-2.12857 c -1.64412,-1.17072 -6.10603,-2.67458 -9.91535,-3.34192 -7.70655,-1.35007 -9.42602,-2.73504 -9.42602,-7.5923 0,-4.26496 -1.7756,-4.31942 -2.18664,-0.0671 -0.36862,3.81347 -2.98085,4.82158 -5.82475,2.24788 -2.32354,-2.10277 -3.55777,-1.39389 -4.33445,2.4895 -0.6332,3.16601 -2.34869,3.78984 -5.6149,2.04182 -1.29771,-0.69451 -2.14845,-0.59438 -2.92773,0.34461 -2.1905,2.63939 15.76723,14.56015 22.01252,14.61242 3.73807,0.0313 10.63387,4.16499 15.87595,9.5169 3.46353,3.53609 5.01239,4.46592 6.7246,4.03699 1.22353,-0.30651 4.95,-0.84215 8.28103,-1.19031 z m -50.75563,-31.01823 c 1.53609,-0.90409 0.66582,-3.60305 -2,-6.20258 -1.5125,-1.47489 -3.2,-3.43177 -3.75,-4.34863 -0.7049,-1.17508 -1.81152,-1.50058 -3.75,-1.10302 -2.24302,0.46002 -2.75,1.10206 -2.75,3.4826 0,2.79813 2.32538,7.52299 4.4769,9.09647 0.9484,0.69359 6.05575,0.0859 7.7731,-0.92484 z m 42.6772,-3.05123 c 3.15183,-3.82372 3.77946,-6.63129 2.0728,-9.27216 -0.97555,-1.50955 -1.21058,-1.10411 -1.39806,2.41168 -0.17085,3.20392 -2.56346,2.99716 -3.72034,-0.32149 -1.24598,-3.5742 -3.3248,-3.99911 -4.92618,-1.0069 -0.82517,1.54185 -0.80839,3.36113 0.0646,7 1.46813,6.11986 3.58084,6.43751 7.90722,1.18887 z m -13.38826,0.66483 c 0.67814,-1.09725 -2.19481,-4.93699 -3.69393,-4.93699 -0.99807,0 -1.14412,4.36756 -0.17834,5.33333 1.0137,1.0137 3.13501,0.79658 3.87227,-0.39634 z m -15.53894,-8.37797 c 0,-0.24254 -0.45,-0.7191 -1,-1.05902 -0.55,-0.33992 -1,-0.14148 -1,0.44098 0,0.58246 0.45,1.05902 1,1.05902 0.55,0 1,-0.19844 1,-0.44098 z m -10,-6.02914 c 0,-2.54609 0.77233,-4.00196 3.21205,-6.05485 3.2326,-2.72006 5.21814,-1.90324 2.7125,1.11588 -1.05122,1.26664 -0.82558,1.96261 1.33764,4.12582 l 2.60216,2.60217 2.7001,-1.90945 c 5.84099,-4.13063 6.75872,-4.42696 8.58673,-2.77263 1.07567,0.97346 2.49766,1.29202 3.8506,0.86262 1.46895,-0.46623 2.54694,-0.13128 3.41995,1.06264 2.33593,3.19457 3.88556,0.70426 3.27044,-5.2557 -0.69154,-6.70041 1.31473,-8.2896 4.85695,-3.84724 3.06244,3.84067 4.72479,2.55021 3.88957,-3.01945 -0.61191,-4.08048 -0.46963,-4.46847 2.06157,-5.62176 2.35062,-1.07102 2.89813,-0.99358 4.04275,0.57178 1.73998,2.37956 3.8412,1.19671 2.45969,-1.38466 -1.72593,-3.22493 -1.22046,-7.13534 0.9973,-7.7153 3.40802,-0.89122 2.22843,-2.99577 -1.99675,-3.56249 -2.91655,-0.39119 -5.40644,-1.80351 -9.21265,-5.22562 -9.81928,-8.82838 -12.34602,-14.6478 -6.64653,-15.30784 2.20208,-0.25502 3.0379,0.39845 5,3.90912 1.29576,2.31842 3.03093,4.54156 3.85593,4.94031 5.72674,2.76789 7.20464,3.16584 9.81694,2.64338 1.81825,-0.36365 3.64998,-0.0471 4.80983,0.83123 2.25304,1.70617 5.37323,1.91764 5.37323,0.36418 0,-0.6149 -1.3734,-2.6822 -3.05199,-4.59402 -3.43741,-3.91499 -3.40631,-5.47031 0.12613,-6.30833 1.97215,-0.46786 2.42586,-1.20376 2.42586,-3.93462 0,-5.07 2.23849,-4.89048 4.56367,0.36599 2.22127,5.02155 2.63463,5.26128 5.48193,3.17928 1.78475,-1.30505 1.80789,-1.54628 0.31171,-3.25 -0.88887,-1.01218 -2.35643,-3.30181 -3.26124,-5.08808 -1.48742,-2.93645 -1.49768,-3.47277 -0.10697,-5.59527 1.37724,-2.10192 1.3798,-2.72648 0.0245,-5.97012 -0.83247,-1.99244 -1.5136,-4.08707 -1.5136,-4.65473 0,-1.46125 3.54639,-1.28361 4.81172,0.24102 1.11146,1.33923 5.97916,13.67174 6.87499,17.41806 0.43224,1.80761 1.48202,2.31091 5.99664,2.87498 3.25649,0.40687 6.41271,0.25545 7.79401,-0.37391 1.27674,-0.58172 3.25531,-0.81343 4.39684,-0.51492 2.70138,0.70643 7.16176,-3.04457 11.78381,-9.90969 4.88648,-7.25789 5.2817,-10.54284 1.67416,-13.91514 -1.71478,-1.60295 -4.41031,-2.84826 -6.83217,-3.15637 -2.2,-0.2799 -5.32988,-0.72429 -6.9553,-0.98755 -1.62541,-0.26325 -3.9821,-0.0108 -5.23709,0.56101 -2.00406,0.91311 -2.20399,1.52622 -1.64256,5.03719 0.50401,3.1519 0.26884,4.26837 -1.11168,5.27783 -1.46096,1.06829 -2.40061,0.94166 -5.67422,-0.76464 -2.15781,-1.12471 -4.58837,-2.99445 -5.40123,-4.15497 -1.88595,-2.69258 -1.93431,-8.55265 -0.0765,-9.26558 0.7708,-0.29578 1.63337,-1.42463 1.91682,-2.50854 0.41836,-1.59981 1.04864,-1.84317 3.34854,-1.29294 1.55825,0.3728 3.40655,1.12989 4.10735,1.68243 2.71567,2.14116 2.18695,-0.30234 -1.21672,-5.62313 -3.95492,-6.18253 -4.43623,-9.96399 -1.84327,-14.48196 1.6209,-2.82426 1.61874,-3.35926 -0.0397,-9.83104 -2.14071,-8.3537 -2.02291,-7.32327 -1.832,-16.0247 0.1448,-6.60029 0.33705,-7.20627 2.37944,-7.5 1.62462,-0.23365 2.51728,-1.3761 3.32071,-4.24994 0.66571,-2.3812 1.95779,-4.31368 3.2781,-4.90282 1.19863,-0.53483 2.17931,-1.58476 2.17931,-2.33317 0,-0.74842 0.5625,-2.29271 1.25,-3.43177 1.0871,-1.80111 0.94263,-2.28805 -1.10857,-3.73643 -1.29722,-0.91598 -3.40938,-2.71629 -4.69369,-4.00068 -1.62716,-1.62726 -2.96314,-2.13593 -4.40658,-1.6778 -1.32556,0.42071 -3.35266,-0.13437 -5.62951,-1.54154 -2.55669,-1.58012 -3.86324,-1.8938 -4.64247,-1.11458 -0.77922,0.77922 -0.73439,1.50617 0.15929,2.58299 0.68404,0.82422 0.95341,1.96829 0.5986,2.54239 -0.98172,1.58846 -8.64479,1.23384 -12.02707,-0.55658 -2.20686,-1.16821 -5.55573,-1.55286 -12.66694,-1.45493 -5.59706,0.0771 -9.93046,-0.29328 -10.29288,-0.87968 -0.34427,-0.55703 -2.29415,-0.96522 -4.33306,-0.90707 -2.03892,0.0582 -6.54029,-0.37234 -10.00306,-0.95665 -5.50902,-0.92959 -6.82139,-0.82327 -10.5,0.85064 -4.14259,1.88503 -4.22351,1.88493 -5.53466,-0.007 -0.73467,-1.0602 -1.98285,-1.66986 -2.78698,-1.36129 -5.15331,1.97746 -11.52534,30.31646 -6.81668,30.31646 0.86116,0 2.40058,-0.44679 3.42094,-0.99287 1.02036,-0.54608 4.92827,-1.42873 8.68426,-1.96144 5.46492,-0.77509 7.10607,-0.69213 8.2158,0.41533 1.91599,1.91206 0.66345,4.53898 -2.16423,4.53898 -1.28714,0 -3.21376,0.66069 -4.28138,1.4682 -1.06762,0.8075 -2.58655,1.4825 -3.37541,1.5 -0.78885,0.0175 -3.42622,0.99609 -5.86082,2.17466 -2.84618,1.37781 -6.35061,2.14285 -9.81573,2.14285 -5.20512,0 -5.38917,0.0934 -5.38917,2.7347 0,1.50409 0.69063,3.30787 1.53474,4.00842 1.27567,1.05872 1.8823,0.90065 3.59379,-0.93641 1.63835,-1.75857 2.7039,-2.07192 5.21526,-1.53368 4.17875,0.89561 4.65621,1.2388 4.65621,3.34688 0,2.70958 6.68634,9.09438 9.52389,9.09438 1.48415,0 3.62164,-1.31215 5.49995,-3.37627 2.60256,-2.86002 4.02066,-3.49998 9.27425,-4.18528 11.67721,-1.52321 17.18185,0.0297 23.02299,6.49519 2.84841,3.15285 3.47177,4.74021 4.04018,10.28822 1.25002,12.20087 -2.21385,15.32437 -16.86126,15.20443 -11.90882,-0.0975 -20.24,-3.00062 -23.94227,-8.34298 -1.40675,-2.02995 -2.56462,-4.56662 -2.57304,-5.63706 -0.008,-1.07044 -0.44561,-2.62125 -0.97154,-3.44625 -1.29044,-2.02428 -4.17469,-0.2275 -5.08227,3.16606 -0.75377,2.81844 -10.57123,17.98826 -14.1242,21.82455 -1.26867,1.36984 -3.84904,4.51984 -5.73414,7 -1.8851,2.48016 -4.94959,6.22805 -6.80998,8.32865 -5.30253,5.9872 -4.47309,6.89278 8.24888,9.00612 12.66352,2.10363 13.97209,2.17293 21.73856,1.15123 6.66023,-0.87617 7.89216,0.79723 2.74368,3.72687 -3.38564,1.92652 -3.69009,3.35724 -1.40778,6.61568 1.4063,2.00778 8.53408,7.18083 9.89423,7.18083 1.27769,0 0.25448,-1.95005 -3.04707,-5.80717 -6.42442,-7.50548 -1.06726,-8.76287 6.29938,-1.47854 2.62216,2.59285 6.56756,5.41817 8.76756,6.27847 5.57978,2.18195 5.36491,4.5953 -0.37616,4.22491 -2.40689,-0.15529 -5.17213,-0.70833 -6.14499,-1.22899 -1.25708,-0.67277 -2.12396,-0.51875 -2.99629,0.53233 -1.74482,2.10238 -3.98612,1.84613 -9.58362,-1.09571 -6.47946,-3.40536 -8.79558,-5.80105 -8.85221,-9.15635 -0.0459,-2.72206 -0.16238,-2.77375 -6.87653,-3.05256 -5.89112,-0.24464 -6.78447,-0.0578 -6.5,1.35975 0.18139,0.90385 3.46716,3.33919 7.30171,5.41186 7.68645,4.15472 9.68685,6.25324 7.77924,8.16085 -0.93852,0.93852 -1.59484,0.87233 -2.97752,-0.30031 -2.01029,-1.70492 -11.84503,-5.84854 -13.8813,-5.84854 -0.73753,0 -2.0558,1.38233 -2.92948,3.07183 -1.23935,2.39664 -1.32798,3.38576 -0.40323,4.5 0.6519,0.7855 1.65724,1.42817 2.23408,1.42817 0.57685,0 1.87916,0.75145 2.89403,1.66989 1.97667,1.78886 6.4803,1.9708 19.31227,0.78019 4.24242,-0.39364 9.10338,-0.18015 12.33935,0.54192 4.65454,1.03862 5.52027,1.62443 6.75,4.56759 2.98303,7.13941 0.7678,10.72372 -3.49063,5.64793 -1.99413,-2.37688 -3.18034,-2.97982 -5.09872,-2.59163 -1.375,0.27824 -5.2,0.0708 -8.5,-0.461 -4.10258,-0.66112 -7.52756,-0.62019 -10.83043,0.12943 -3.69363,0.8383 -5.29692,0.80499 -6.81255,-0.14154 -1.09016,-0.68082 -2.83697,-0.96653 -3.8818,-0.63492 -1.04482,0.33162 -2.76942,0.13746 -3.83244,-0.43145 -2.53605,-1.35725 -3.84866,0.23207 -4.72673,5.7232 -0.45541,2.84797 -0.30854,4.20039 0.45614,4.20039 0.6203,0 1.12781,-0.59656 1.12781,-1.32569 0,-2.2473 4.86682,-6.20749 6.10588,-4.96843 0.77253,0.77253 0.76877,1.65982 -0.0132,3.12102 -1.87342,3.50051 -1.35952,4.31379 2.29284,3.62861 4.5706,-0.85745 5.80564,1.20138 2.26699,3.77911 -2.84279,2.07083 -3.5503,4.76538 -1.25125,4.76538 0.77068,0 2.34604,1.60133 3.50081,3.55852 2.44528,4.14444 4.09797,3.72959 4.09797,-1.02864 z m 13.25,-77.08173 c -2.42644,-1.08547 -3.25,-2.09462 -3.25,-3.9824 0,-3.21393 2.1664,-4.04001 6.82435,-2.6022 2.02161,0.62402 7.50065,1.32471 12.17565,1.55707 6.4961,0.32289 8.57235,0.77447 8.80687,1.9155 0.36018,1.75238 -1.19675,2.27681 -9.30687,3.13484 -3.3,0.34913 -7.35,0.81395 -9,1.03293 -1.65,0.21899 -4.4625,-0.2561 -6.25,-1.05574 z m 43.16231,-41.56963 c -2.76392,-3.08966 -9.19828,-5.58942 -20.14128,-7.82493 -5.2774,-1.0781 -9.94092,-2.51945 -10.36338,-3.203 -1.1762,-1.90314 0.89435,-4.8549 3.37753,-4.81496 9.33385,0.15012 38.71482,11.17127 38.71482,14.52239 0,1.26633 -0.64101,1.46011 -3.06716,0.92724 -2.15892,-0.47418 -3.59145,-0.19919 -4.83769,0.92864 -1.63373,1.4785 -1.91827,1.43714 -3.68284,-0.53538 z m 41.58769,29.16589 c 0,-1.14205 -3.73972,-6.75793 -7.38545,-11.09063 -3.52287,-4.1867 -5.3475,-3.33578 -2.14754,1.00151 1.39314,1.8883 2.53299,3.81408 2.53299,4.27949 0,0.46542 0.98463,2.17798 2.18806,3.80571 2.10902,2.85261 4.81194,3.97823 4.81194,2.00392 z m -52.22251,-4.60111 c 3.22595,-2.25953 2.7294,-4.12562 -1.29887,-4.88132 -4.71199,-0.88398 -9.88968,-5.61129 -12.14036,-11.08432 -2.24231,-5.4527 -3.77556,-5.63319 -10.55207,-1.24216 -4.95821,3.2128 -4.98969,3.26669 -4.49132,7.68826 0.55764,4.94735 3.23362,7.65921 9.62044,9.74939 5.39849,1.76674 16.19956,1.63512 18.86218,-0.22985 z m -51.39618,-3.87657 c 3.02647,-3.9679 3.38037,-7.34369 0.86869,-8.28613 -0.9625,-0.36116 -2.24423,-1.31578 -2.8483,-2.12139 -1.55262,-2.07066 -3.15622,-0.71057 -4.51691,3.83099 -0.91387,3.05025 -0.89333,4.57498 0.0938,6.95802 1.63358,3.94381 3.17368,3.85205 6.40276,-0.38149 z m -4.59901,-37.41222 c 0.28658,-0.86063 -0.19425,-1.221 -1.33427,-1 -0.98026,0.19002 -1.98391,0.95098 -2.23033,1.691 -0.28658,0.86063 0.19425,1.221 1.33427,1 0.98026,-0.19002 1.98391,-0.95098 2.23033,-1.691 z m 3.7177,-8.98783 c 0,-8.233 -1.35892,-9.38313 -3.38774,-2.86725 -1.18174,3.79537 -1.18251,4.9206 -0.005,7.58048 2.14899,4.8549 3.39287,3.12696 3.39287,-4.71323 z m 56.9763,-24.12833 c 0.93588,-1.51428 -7.34566,-5.28795 -10.09203,-4.59865 -3.5387,0.88816 -2.90596,2.19023 1.86573,3.83933 5.22695,1.80644 7.4522,2.01184 8.2263,0.75932 z m -36.93518,-11.10487 c 0.92034,-1.48915 -0.14673,-2.29879 -2.06137,-1.56407 -0.88358,0.33906 -1.32643,1.06965 -0.98412,1.62354 0.81058,1.31154 2.21511,1.28411 3.04549,-0.0595 z m -34.49699,293.81652 c 0.0586,-4.31341 2.24462,-12.43875 3.7521,-13.94623 0.90621,-0.90621 1.48764,-0.9199 2.35216,-0.0554 1.83919,1.83919 -2.08952,17.24674 -4.39839,17.24951 -1.31716,0.002 -1.73908,-0.80175 -1.70587,-3.2479 z"
       id="path3035"
       inkscape:connector-curvature="0" />
  </g>
</svg>
