<?xml version="1.0" encoding="UTF-8" standalone="no"?>
<!-- Created with Inkscape (http://www.inkscape.org/) -->

<svg
   xmlns:dc="http://purl.org/dc/elements/1.1/"
   xmlns:cc="http://creativecommons.org/ns#"
   xmlns:rdf="http://www.w3.org/1999/02/22-rdf-syntax-ns#"
   xmlns:svg="http://www.w3.org/2000/svg"
   xmlns="http://www.w3.org/2000/svg"
   xmlns:sodipodi="http://sodipodi.sourceforge.net/DTD/sodipodi-0.dtd"
   xmlns:inkscape="http://www.inkscape.org/namespaces/inkscape"
   width="487.36014"
   height="487.37048"
   id="svg2"
   version="1.1"
   inkscape:version="0.48.5 r10040"
   sodipodi:docname="mmoneib_website_logo.svg">
  <title
     id="title3191">MMoneib's Website Logo</title>
  <defs
     id="defs4">
    <linearGradient
       id="linearGradient4219">
      <stop
         style="stop-color:#ff0000;stop-opacity:1;"
         offset="0"
         id="stop4221" />
      <stop
         id="stop4239"
         offset="0.5"
         style="stop-color:#ff0000;stop-opacity:0.96862745;" />
      <stop
         style="stop-color:#ff3e1d;stop-opacity:0.25882354;"
         offset="1"
         id="stop4223" />
    </linearGradient>
    <filter
       inkscape:label="Clean edges"
       inkscape:menu="ABCs"
       inkscape:menu-tooltip="Removes or decreases glows and jaggeries around objects edges after applying some filters"
       height="1"
       width="1"
       y="0"
       x="0"
       color-interpolation-filters="sRGB"
       id="filter3363">
      <feGaussianBlur
         result="result6"
         stdDeviation="0.4"
         id="feGaussianBlur3365" />
      <feComposite
         in2="result6"
         operator="in"
         in="SourceGraphic"
         result="result7"
         id="feComposite3367" />
      <feComposite
         operator="in"
         in2="result7"
         result="result8"
         in="result7"
         id="feComposite3369" />
    </filter>
    <filter
       inkscape:label="Sharpen more"
       x="0"
       y="0"
       width="1"
       height="1"
       inkscape:menu="Image effects"
       inkscape:menu-tooltip="Sharpen edges and boundaries within the object, force=0.3"
       color-interpolation-filters="sRGB"
       id="filter4739">
      <feConvolveMatrix
         targetY="1"
         targetX="1"
         in="SourceGraphic"
         divisor="1"
         kernelMatrix="0 -0.3 0 -0.3 2.2 -0.3 0 -0.3 0"
         order="3 3"
         result="result1"
         id="feConvolveMatrix4741" />
      <feBlend
         in2="SourceGraphic"
         mode="normal"
         result="result2"
         id="feBlend4743" />
    </filter>
    <filter
       inkscape:label="Sharpen more"
       x="0"
       y="0"
       width="1"
       height="1"
       inkscape:menu="Image effects"
       inkscape:menu-tooltip="Sharpen edges and boundaries within the object, force=0.3"
       color-interpolation-filters="sRGB"
       id="filter4739-4">
      <feConvolveMatrix
         targetY="1"
         targetX="1"
         in="SourceGraphic"
         divisor="1"
         kernelMatrix="0 -0.3 0 -0.3 2.2 -0.3 0 -0.3 0"
         order="3 3"
         result="result1"
         id="feConvolveMatrix4741-3" />
      <feBlend
         in2="SourceGraphic"
         mode="normal"
         result="result2"
         id="feBlend4743-1" />
    </filter>
    <filter
       inkscape:label="Drop Shadow"
       id="filter3152"
       color-interpolation-filters="sRGB">
      <feFlood
         flood-opacity="1"
         flood-color="rgb(0,0,0)"
         result="flood"
         id="feFlood3154" />
      <feComposite
         in="flood"
         in2="SourceGraphic"
         operator="in"
         result="composite1"
         id="feComposite3156" />
      <feGaussianBlur
         stdDeviation="15"
         result="blur"
         id="feGaussianBlur3158" />
      <feOffset
         dx="2"
         dy="2"
         result="offset"
         id="feOffset3160" />
      <feComposite
         in="SourceGraphic"
         in2="offset"
         operator="over"
         result="composite2"
         id="feComposite3162" />
    </filter>
  </defs>
  <sodipodi:namedview
     id="base"
     pagecolor="#ffffff"
     bordercolor="#666666"
     borderopacity="1.0"
     inkscape:pageopacity="0.0"
     inkscape:pageshadow="2"
     inkscape:zoom="0.49497475"
     inkscape:cx="153.80435"
     inkscape:cy="358.63308"
     inkscape:document-units="px"
     inkscape:current-layer="layer1"
     showgrid="false"
     inkscape:window-width="1280"
     inkscape:window-height="958"
     inkscape:window-x="0"
     inkscape:window-y="27"
     inkscape:window-maximized="1"
     borderlayer="false"
     fit-margin-top="0"
     fit-margin-left="0"
     fit-margin-right="0"
     fit-margin-bottom="0"
     showborder="true" />
  <metadata
     id="metadata7">
    <rdf:RDF>
      <cc:Work
         rdf:about="">
        <dc:format>image/svg+xml</dc:format>
        <dc:type
           rdf:resource="http://purl.org/dc/dcmitype/StillImage" />
        <dc:title>MMoneib's Website Logo</dc:title>
        <dc:date>February 4, 2015</dc:date>
        <dc:creator>
          <cc:Agent>
            <dc:title>Muhammad Moneib</dc:title>
          </cc:Agent>
        </dc:creator>
        <dc:rights>
          <cc:Agent>
            <dc:title>Muhammad Moneib</dc:title>
          </cc:Agent>
        </dc:rights>
        <dc:publisher>
          <cc:Agent>
            <dc:title>Muhammad Moneib</dc:title>
          </cc:Agent>
        </dc:publisher>
      </cc:Work>
    </rdf:RDF>
  </metadata>
  <g
     inkscape:label="Layer 1"
     inkscape:groupmode="layer"
     id="layer1"
     transform="translate(36.086312,37.314568)">
    <g
       id="g4357"
       transform="matrix(1.1616244,0,0,1.1616244,-251.5188,-361.6121)"
       style="filter:url(#filter4739)">
      <path
         style="fill:#f7ecce"
         d="M 226.66608,484.48959 271.88546,380.57857 393.81894,324.05435 517.49163,377.96976 560.1022,492.31602 500.96917,615.35831 395.55815,657.09928 271.01586,591.00942 z"
         id="path4373"
         inkscape:connector-curvature="0"
         sodipodi:nodetypes="ccccccccc" />
      <path
         style="fill:#efdaa7"
         d="m 230.1445,487.0984 49.56739,-110.86785 114.10705,-49.56739 121.93349,46.08898 46.08898,120.43348 -58.26343,123.0423 -108.88943,40.00175 -120.19428,-54.78501 z m 188.96985,125.85881 c 0.76202,-0.9625 2.71406,-4.30472 4.33786,-7.42715 1.62381,-3.12244 3.35282,-5.92464 3.84225,-6.22713 0.48943,-0.30248 0.90019,-7.40686 0.91279,-15.7875 0.0204,-13.55004 -0.12986,-14.94595 -1.35654,-12.60473 -0.84214,1.60726 -2.57565,2.89551 -4.45038,3.30728 -1.88038,0.41299 -3.40275,1.54724 -3.92683,2.92569 -0.47075,1.23816 -2.18215,2.80055 -3.80311,3.47198 -2.86809,1.188 -2.96148,1.44967 -3.47926,9.74912 -0.49124,7.87402 -0.30994,9.01823 2.36307,14.91344 1.59233,3.51179 2.89514,7.06997 2.89514,7.90704 0,2.00762 0.96005,1.92547 2.66501,-0.22804 z m -35.13307,-65.28334 c 5.39949,-5.63585 14.32067,-9.51449 23.46806,-10.20316 3.19598,-0.24061 3.47147,-0.50697 3.1715,-3.06645 -0.18068,-1.54162 0.21192,-3.45412 0.87244,-4.25 0.99368,-1.1973 0.76819,-1.44705 -1.30649,-1.44705 -1.57111,0 -3.11911,0.93354 -4.14549,2.5 -0.90584,1.38248 -2.59834,2.5 -3.78627,2.5 -1.18152,0 -2.97297,0.7464 -3.98101,1.65866 -1.43139,1.29539 -2.33531,1.42971 -4.12717,0.61329 -1.92214,-0.87579 -2.65038,-0.64569 -4.48884,1.41831 -1.67497,1.88046 -3.08391,2.42254 -5.95157,2.28983 -6.22173,-0.28793 -7.00066,-0.0687 -7.57617,2.13203 -0.5018,1.91891 2.91687,8.84328 4.38198,8.8755 0.3096,0.007 1.87066,-1.35262 3.46903,-3.02096 z m -2.53194,-25.46666 c 1.50351,-1.81162 5.18647,-1.92363 9.69108,-0.29474 3.00721,1.08742 3.47868,0.99739 4.82224,-0.92082 0.81904,-1.16934 2.83861,-2.42246 4.48792,-2.78471 3.65322,-0.80238 3.70487,-1.61914 0.45322,-7.16765 -1.68909,-2.88222 -4.29659,-5.3479 -7.75,-7.32848 -6.35177,-3.64283 -7.07458,-3.68145 -8.54394,-0.45655 -1.48352,3.25595 -1.46415,3.45295 0.33948,3.45295 0.825,0 1.5,0.1882 1.5,0.41821 0,0.23002 0.24108,1.04645 0.53573,1.8143 0.52445,1.36671 -2.26318,5.02122 -8.77956,11.50974 l -3.25617,3.24225 2.62756,0.008 c 1.44515,0.004 3.18775,-0.66725 3.87244,-1.49225 z m -23.60611,-10.53118 c 2.56489,-1.84197 4.85413,-4.27598 5.0872,-5.40892 0.23307,-1.13295 0.58603,-7.33148 0.78434,-13.77452 0.29431,-9.56211 0.69311,-12.08209 2.17038,-13.71445 1.70154,-1.88018 1.71273,-2.24243 0.187,-6.05561 -0.89255,-2.23069 -1.64311,-5.05919 -1.66791,-6.28556 -0.0248,-1.22637 -0.6459,-3.57976 -1.3802,-5.22976 -1.49467,-3.35855 -1.45019,-3.43007 -4.04255,6.5 -0.9333,3.575 -2.48745,8.75 -3.45366,11.5 -9.56543,27.22465 -11.54966,33.82976 -10.77177,35.85692 0.85865,2.23761 7.73091,0.45847 13.08717,-3.3881 z m -19.69358,-50.32284 c 1.26646,-2.14433 4.86366,-3.64598 8.73395,-3.64598 3.79104,0 4.5046,-1.3772 2.57839,-4.97636 -1.53972,-2.877 -7.64561,-6.19788 -10.74147,-5.84211 -2.49349,0.28656 -2.85914,0.83681 -3.64897,5.49126 -1.2839,7.56602 0.62412,13.12821 3.0781,8.97319 z m 57.23008,-5.69767 c 0.92844,-4.7192 0.92232,-6.866 -0.0278,-9.75 -1.8943,-5.74994 -4.74396,-8.94597 -8.62578,-9.6742 -4.21686,-0.79109 -6.23376,0.75817 -10.38341,7.97589 -3.35238,5.83098 -3.91357,10.1943 -1.1434,8.89004 0.9625,-0.45316 3.64484,-0.82742 5.96076,-0.83168 3.29032,-0.006 4.87258,0.62634 7.23849,2.89302 1.66526,1.59541 3.28824,3.72153 3.60663,4.72469 1.05004,3.30839 2.16723,1.90872 3.37451,-4.22776 z m 11.58858,-5.67036 c -0.37462,-2.49814 -1.10733,-5.49514 -1.62825,-6.66001 -0.86037,-1.92392 -0.9,-1.88892 -0.43258,0.38206 0.283,1.375 0.53438,5.2 0.55861,8.5 0.0349,4.7541 0.26618,5.61793 1.11371,4.16001 0.63621,-1.0944 0.79364,-3.68048 0.38851,-6.38206 z m 35.70362,0.56355 3.03133,-2.1585 -3.37696,-1.0915 c -4.23926,-1.37021 -5.07403,-4.79024 -1.68823,-6.91671 1.89657,-1.19114 3.44463,-1.25606 8.62779,-0.36181 5.27617,0.91029 6.46775,0.85073 7.23469,-0.3616 1.17856,-1.86301 1.15255,-2.09893 -0.46675,-4.23351 -1.01591,-1.33918 -3.18281,-1.89133 -8.7182,-2.22147 -9.44793,-0.56351 -10.86626,-0.1051 -10.86626,3.51197 0,1.58048 -0.47635,3.16799 -1.05855,3.52781 -1.73729,1.07371 1.36825,12.46382 3.39829,12.46382 0.46834,0 2.21562,-0.97132 3.88285,-2.1585 z m -77.84829,-22.96817 c 2.68087,-1.30533 5.77363,-3.57112 6.87281,-5.03508 1.1511,-1.5331 3.39966,-2.9246 5.30292,-3.28166 1.81743,-0.34095 3.44966,-0.95942 3.62719,-1.37437 1.10295,-2.57802 7.01191,-5.18222 11.75854,-5.18222 5.89508,0 7.0349,-1.35594 4.79001,-5.69822 -1.82671,-3.5334 -3.68202,-8.63854 -5.0391,-13.86578 l -1.05508,-4.064 -11.74158,-0.11528 c -11.3093,-0.11103 -11.99283,0.005 -18.5658,3.14855 -3.75331,1.7951 -8.01552,3.56026 -9.47156,3.92257 -1.45605,0.3623 -4.47333,2.18429 -6.70507,4.04886 -2.23174,1.86457 -6.38047,4.22538 -9.21941,5.24624 -6.95156,2.49975 -10.92817,8.04754 -10.92817,15.24596 l 0,5.00855 4.75,0.67352 c 2.6125,0.37043 7.45,1.72463 10.75,3.00932 3.3,1.2847 8.025,2.47169 10.5,2.63776 4.52375,0.30354 5.42704,0.0318 14.3743,-4.32471 z"
         id="path4371"
         inkscape:connector-curvature="0"
         sodipodi:nodetypes="cccccccccsscsscsssssssssssssssssscscssssssssssccccsssssssssssssssssssssscsssssssssscsssssssssscsssssscscsssscssscc" />
      <path
         style="fill:#9bdee6"
         d="m 229.27489,484.48959 40.87136,-104.78062 128.89031,-51.3066 113.23745,45.21937 45.21938,117.82468 -50.437,122.17269 -110.62864,42.61056 -123.67269,-61.74184 z m 191.42445,127.80137 c 1.5125,-2.38877 2.75,-4.66127 2.75,-5.05001 0,-0.38873 1.30632,-2.58035 2.90292,-4.87026 2.88875,-4.14314 2.90278,-4.23554 2.87286,-18.91348 -0.0233,-11.45223 -0.32194,-14.75 -1.33554,-14.75 -0.718,0 -1.57068,0.83563 -1.89484,1.85695 -0.32415,1.02132 -2.37948,2.56012 -4.56738,3.41955 -2.20039,0.86434 -3.97802,2.23993 -3.97802,3.07833 0,0.83364 -1.51653,2.0641 -3.37007,2.73435 l -3.37007,1.21863 -0.5181,9.08671 c -0.3844,6.74177 -0.16651,9.58868 0.84432,11.03184 0.74934,1.06983 2.31147,5.01155 3.47141,8.75939 1.15994,3.74784 2.40902,6.79782 2.77574,6.77774 0.36673,-0.0201 1.90427,-1.99096 3.41677,-4.37974 z m -21.25,-43.59732 c 0,-0.55746 -0.52102,-1.84785 -1.15782,-2.86753 -1.4982,-2.39901 -0.4334,-5.1189 2.00399,-5.1189 1.04992,0 2.46914,-0.675 3.15383,-1.5 0.84475,-1.01786 3.10935,-1.5 7.04552,-1.5 5.04197,0 6.17284,-0.3722 8.64644,-2.84581 2.02662,-2.02662 2.84037,-3.82573 2.82692,-6.25 -0.0166,-2.99059 0.29001,-3.40136 2.52352,-3.38089 2.36046,0.0216 2.55793,-0.33617 2.75956,-5 0.16137,-3.73263 0.74589,-5.42287 2.27496,-6.57841 1.80893,-1.36704 1.9093,-1.88103 0.82992,-4.25 -1.39871,-3.06984 -2.41933,-3.40771 -3.30689,-1.09476 -0.47875,1.2476 -1.54884,1.48067 -4.85699,1.0579 -15.68763,-2.00483 -15.16764,-2.0208 -16.24296,0.49883 -0.65565,1.53629 -1.99949,2.45717 -3.90257,2.67429 -1.59642,0.18212 -3.56694,0.9955 -4.37894,1.80751 -0.812,0.812 -2.09335,1.22548 -2.84743,0.91885 -0.75408,-0.30663 -2.00541,-0.81505 -2.78072,-1.12983 -0.85688,-0.34789 -1.66121,0.22025 -2.05115,1.44885 -0.86441,2.72351 -3.17076,3.29753 -10.96142,2.72814 l -6.57777,-0.48075 0,5.0778 c 0,3.52501 0.49501,5.43976 1.61875,6.26145 1.35999,0.99445 1.41438,1.51092 0.34024,3.23089 -1.13666,1.82009 -0.79072,2.67178 3.11808,7.67658 2.41812,3.09615 4.68753,5.62936 5.04313,5.62936 0.35559,0 0.92431,-0.7875 1.26381,-1.75 0.3395,-0.9625 0.87949,-2.3125 1.19997,-3 0.36039,-0.77313 -0.16539,-1.25 -1.3782,-1.25 -3.12159,0 -4.58185,-2.42064 -3.12852,-5.18608 2.02773,-3.85843 7.05206,-9.21397 10.32859,-11.00948 6.54535,-3.5868 8.34149,-4.08989 16.28815,-4.56228 10.4647,-0.62207 13.54264,0.0859 13.12092,3.01815 -0.43535,3.027 -4.30096,4.70751 -10.86858,4.72495 -7.09426,0.0188 -14.43702,3.55312 -18.88747,9.0911 -1.7928,2.23091 -3.10197,4.15762 -2.90926,4.28157 5.82288,3.74531 7.92615,5.51293 8.774,7.37375 1.04499,2.29351 3.07639,3.12205 3.07639,1.25475 z m -33.91883,-37.58423 c 0.93301,-1.12421 2.31668,-1.43704 4.66827,-1.05543 2.8779,0.46701 3.47269,0.19919 4.28138,-1.92783 0.51654,-1.35861 1.73342,-2.71896 2.70417,-3.023 0.97076,-0.30405 2.95944,-1.19252 4.4193,-1.97438 1.45986,-0.78186 3.40031,-1.42156 4.3121,-1.42156 2.40208,0 11.46811,3.08501 12.10782,4.12007 0.72347,1.1706 3.42579,1.13075 3.42579,-0.0505 0,-0.51175 -1.0125,-1.07425 -2.25,-1.25 -3.46676,-0.49236 -2.94795,-4.06393 0.75,-5.1631 1.65,-0.49044 3.78139,-1.28877 4.73643,-1.77408 2.95519,-1.50168 6.48663,-0.98163 9.43684,1.3897 2.98929,2.40274 10.32673,6.06814 10.32673,5.1587 0,-0.29528 -1.125,-2.19246 -2.5,-4.21596 -3.12154,-4.59376 -3.12667,-5.75809 -0.0343,-7.78428 2.32127,-1.52096 2.65025,-1.48416 5.61699,0.62835 l 3.15131,2.24393 -2.29009,-3.97913 c -1.30748,-2.2718 -2.01476,-4.69665 -1.64838,-5.6514 0.83293,-2.1706 5.48508,-2.18081 7.87574,-0.0173 1.00581,0.91024 1.82567,1.24774 1.82191,0.75 -0.004,-0.49775 -1.49546,-1.91841 -3.31488,-3.15704 -5.23656,-3.56495 -9.00801,-7.94633 -8.33957,-9.68825 0.38584,-1.0055 1.8533,-1.5597 4.1299,-1.5597 1.94226,0 3.53138,-0.1936 3.53138,-0.43023 0,-0.23663 -1.40663,-3.46927 -3.12585,-7.18365 -2.43666,-5.2644 -2.88824,-7.13391 -2.04816,-8.47909 0.59273,-0.94912 0.82551,-3.27976 0.51727,-5.1792 -0.30824,-1.89944 -0.0587,-4.39103 0.55454,-5.53686 0.91613,-1.71182 0.668,-2.74198 -1.39142,-5.7767 -1.37851,-2.03135 -2.51457,-4.86807 -2.52458,-6.30382 -0.01,-1.43575 -1.36001,-4.59067 -3,-7.01093 -3.55387,-5.24472 -3.81628,-8.58255 -0.80158,-10.19597 1.99314,-1.0667 2.03695,-1.27158 0.51061,-2.38767 -0.91829,-0.67147 -2.31224,-2.75887 -3.09767,-4.63867 -0.78543,-1.8798 -2.3652,-4.26592 -3.51061,-5.3025 -1.14541,-1.03659 -2.08256,-2.412 -2.08256,-3.05648 0,-0.64449 -2.025,-3.37743 -4.5,-6.07322 -2.475,-2.69579 -4.5,-5.42559 -4.5,-6.06624 0,-1.5277 2.35483,-2.37878 6.58179,-2.37878 3.2004,0 3.41821,-0.21028 3.41821,-3.3 0,-1.815 0.50706,-3.80706 1.1268,-4.4268 0.83573,-0.83573 0.55891,-2.04566 -1.07165,-4.68397 -2.73387,-4.42348 -2.4167,-7.96711 0.7533,-8.41644 4.31873,-0.61216 2.04378,-3.44917 -4.26843,-5.32302 -3.27539,-0.97233 -5.97432,-1.6738 -5.99764,-1.55882 -0.0233,0.11498 -1.00501,2.00905 -2.18157,4.20905 -2.36992,4.43145 -5.48286,5.60451 -8.24329,3.10635 -1.5618,-1.4134 -1.87083,-1.37534 -3.40775,0.41964 -1.48613,1.73567 -2.97437,1.97401 -12.32628,1.97401 -9.77787,0 -11.10037,0.23593 -16.39019,2.92403 -3.16475,1.60821 -7.59554,3.47573 -9.8462,4.15004 -2.25065,0.67431 -4.89197,1.95823 -5.8696,2.85316 -3.28061,3.00308 -7.74371,5.70215 -12.2775,7.42484 -6.27374,2.38382 -10,8.31321 -10,15.91244 l 0,5.50504 5.61991,0.70216 c 3.09096,0.38619 7.70346,1.60664 10.25,2.71211 2.54655,1.10547 6.65509,2.30788 9.13009,2.67202 3.63826,0.53528 4.56066,1.08714 4.81676,2.88181 0.18942,1.3274 -0.64217,3.17867 -2.06862,4.60512 l -2.38538,2.38538 3.33208,3.63592 c 1.83264,1.99976 4.23567,3.63593 5.34006,3.63593 3.42242,0 4.41493,3.95654 2.67163,10.65018 -3.72321,14.29579 -4.61643,17.12923 -11.459,36.34982 -4.72434,13.27056 -5.28369,15.84857 -4.60107,21.20636 1.08003,8.47703 5.78654,9.8644 12.74318,3.75639 2.02737,-1.78005 6.34519,-3.88586 10.57521,-5.15754 4.24795,-1.27708 7.54362,-2.88679 8.12166,-3.96686 0.97966,-1.8305 5.88786,-4.83835 7.89521,-4.83835 1.99037,0 2.19255,2.82407 0.3456,4.82742 -1.00503,1.09013 -2.58063,3.07675 -3.50135,4.41471 -0.92071,1.33796 -4.52071,3.80235 -8,5.47643 -6.73567,3.2409 -11.46465,7.43902 -10.37172,9.20741 0.93006,1.50487 2.08127,1.33862 3.62692,-0.52377 z m 11.66883,-40.425 c -2.02215,-1.244 -2.28823,-4.03897 -0.55,-5.7772 0.66,-0.66 3.50332,-1.2 6.3185,-1.2 6.94664,0 14.62726,-2.42633 22.83893,-7.21487 6.27336,-3.65824 6.99311,-3.86316 8.4504,-2.40587 1.45729,1.45728 1.34167,1.8578 -1.35743,4.7023 -7.13273,7.51699 -30.2804,15.22996 -35.7004,11.89564 z m -5.04372,-11.9936 c -3.83895,-3.01972 -6.70628,-8.27553 -6.70628,-12.29262 0,-1.96512 -0.45,-3.85106 -1,-4.19098 -1.84174,-1.13826 -1.15765,-12.7679 1,-17 1.1,-2.15759 2,-4.4869 2,-5.17626 0,-0.68935 -0.9,-1.73504 -2,-2.32374 -4.50664,-2.41188 -1.44692,-8.0231 6.91278,-12.67736 3.62297,-2.01709 8.93051,-5.38986 11.79452,-7.49504 5.52016,-4.05757 10.11944,-4.94622 12.25871,-2.36856 1.47265,1.77444 0.52951,6.88483 -1.59623,8.64903 -0.82591,0.68544 -2.1261,2.45382 -2.88932,3.92972 -1.28896,2.49258 -1.2219,2.75899 0.94285,3.74531 4.91611,2.23993 9.32323,7.15323 10.45777,11.6589 1.54629,6.14086 1.41253,15.69094 -0.25331,18.08549 -0.75472,1.08488 -1.68475,3.40895 -2.06673,5.1646 -0.38198,1.75565 -1.98658,4.97573 -3.56577,7.15574 -2.55484,3.52686 -3.6437,4.13935 -9.88067,5.55791 -9.21586,2.09611 -12.31482,2.0112 -15.40832,-0.42214 z m 23.21086,-21.03282 c 1.36749,-6.37639 1.35794,-8.30061 -0.0647,-13.04912 -1.51977,-5.07255 -4.75686,-7.94503 -9.70078,-8.60815 l -4.04498,-0.54255 -4.04381,6.37452 c -2.57306,4.05607 -4.04727,7.55656 -4.05332,9.62452 -0.009,3.22824 1.24164,4.2707 2.5618,2.13464 1.02984,-1.66633 9.15642,-0.44103 11.57166,1.74474 1.13399,1.02624 2.70228,3.10446 3.4851,4.61826 2.05033,3.9649 3.0624,3.42291 4.28908,-2.29686 z m 46.77585,18.31825 c -0.25354,-0.97297 -0.47766,-0.41903 -0.49804,1.23097 -0.0204,1.65 0.18706,2.44606 0.46099,1.76903 0.27392,-0.67703 0.29059,-2.02703 0.0371,-3 z m 4.76646,-8.72729 c 2.84261,0.6613 9.53272,-3.40639 12.26098,-7.45485 1.25376,-1.86046 2.26067,-4.77861 2.23758,-6.48477 -0.0676,-4.99432 -3.40135,-17.47403 -5.12956,-19.20224 -1.49594,-1.49594 -8.13096,-1.87037 -22.22365,-1.25413 l -2.8952,0.1266 2.3952,1.82183 c 1.94913,1.48255 2.19018,2.15556 1.29434,3.61383 -0.60548,0.98559 -2.29298,1.93438 -3.75,2.10841 -3.68444,0.44008 -3.35636,2.78043 0.96051,6.85176 2.86372,2.70084 3.50477,3.95294 3.10214,6.05915 -0.50317,2.63219 1.66832,7.27267 3.40322,7.27267 0.48674,0 0.88499,-1.32448 0.88499,-2.9433 0,-3.14678 3.00466,-6.0567 6.25389,-6.0567 1.8046,0 3.50653,-2.57291 2.42039,-3.65905 -0.31503,-0.31503 -2.01518,-0.86779 -3.77809,-1.22835 -4.09833,-0.83819 -5.95309,-3.48946 -3.87924,-5.54509 1.25198,-1.24099 2.62282,-1.29257 8.79833,-0.33106 9.14568,1.42396 10.10498,2.70823 7.71013,10.32207 -1.86009,5.91371 -2.87074,7.09012 -6.52541,7.59566 -1.6676,0.23068 -2.60323,1.0708 -2.81003,2.5232 -0.46104,3.23789 -2.63086,4.69222 -5.06057,3.39187 -2.55046,-1.36496 -7.59788,0.31822 -6.53387,2.17888 2.00425,3.5049 2.50988,3.65837 5.68719,1.72613 1.7249,-1.04897 4.05443,-1.69361 5.17673,-1.43252 z m -107.806,-5.54174 c 2.09276,-2.4871 3.2684,-3 6.87643,-3 4.77316,0 5.9365,-0.95521 4.94975,-4.06419 -1.52095,-4.79208 -13.0275,-10.09442 -14.99552,-6.9101 -1.7963,2.90648 -1.71384,16.97429 0.0995,16.97429 0.30003,0 1.68146,-1.35 3.06984,-3 z M 327.32745,397.8037 c 0.75797,-0.48009 1.06816,-1.37441 0.68932,-1.98739 -0.7934,-1.28375 -4.56743,0.30776 -4.56743,1.92608 0,1.19499 2.0374,1.2272 3.87811,0.0613 z"
         id="path4369"
         inkscape:connector-curvature="0"
         sodipodi:nodetypes="cccccccccssssssssscssscsssssssscsssssssssssscssssssssssssssssssssssssssssssssscssscsssssssssssssssssssssssscssssssssscssssscssssssssssssssssssssssssssssssssssssssscsscscssscccccccssssscssssssssssssssssssssssssscsscc" />
      <path
         style="fill:#9b8e73"
         d="m 366.92308,633.45721 c 0.68238,-6.36449 3.18844,-14.29559 6.61914,-20.94812 1.04892,-2.03396 1.92239,-4.50896 1.94105,-5.5 0.0187,-0.99103 0.90339,-3.60188 1.96607,-5.80188 1.06268,-2.2 1.94741,-4.75484 1.96607,-5.67742 0.0187,-0.92258 1.04643,-2.52441 2.28393,-3.55962 1.2375,-1.03521 3.99258,-3.73075 6.12241,-5.9901 l 3.87241,-4.1079 -3.87241,-1.96169 c -2.12983,-1.07893 -5.82221,-2.94457 -8.2053,-4.14587 -2.39524,-1.20742 -5.07841,-3.55086 -6,-5.24029 -0.91691,-1.68087 -3.57961,-5.96256 -5.91711,-9.51487 -2.3375,-3.55232 -4.25,-6.71609 -4.25,-7.03061 0,-0.31452 -2.18828,-3.9918 -4.86284,-8.17174 -2.67457,-4.17994 -5.16726,-8.5726 -5.53933,-9.76146 -0.53882,-1.72173 -1.73675,-2.29602 -5.88715,-2.82233 -7.66131,-0.97153 -8.58819,-1.37854 -10.18902,-4.47422 -1.06095,-2.05165 -1.38444,-5.63015 -1.19135,-13.17913 0.22083,-8.63392 0.72991,-11.51067 3.05146,-17.24349 1.53252,-3.7844 3.02481,-8.34989 3.31621,-10.14553 0.48255,-2.97366 0.26562,-3.32281 -2.43271,-3.91547 -5.01582,-1.10166 -9.14874,-6.45261 -12.35634,-15.99794 -3.23825,-9.63658 -3.49545,-13.18862 -1.38009,-19.06032 2.17493,-6.03708 1.90641,-7.24903 -1.77884,-8.02851 -4.67158,-0.9881 -7.75,-4.17916 -7.75,-8.03359 0,-2.03671 -1.28169,-5.07672 -3.5,-8.30158 -1.925,-2.79846 -3.5,-6.26699 -3.5,-7.70784 0,-1.44086 -0.95624,-3.96265 -2.12498,-5.60399 -1.67693,-2.35504 -1.99941,-3.86351 -1.52948,-7.15437 0.32751,-2.29357 0.87976,-6.19512 1.22722,-8.67012 1.17885,-8.39721 4.67332,-11.90337 22.92724,-23.00392 4.4,-2.67572 11.79986,-6.76688 16.44412,-9.09146 8.2646,-4.13666 8.70402,-4.23653 20.6686,-4.69744 11.33521,-0.43667 12.48587,-0.30937 15.81798,1.74999 2.53527,1.56688 4.84153,2.14107 7.83141,1.94977 4.52129,-0.28927 11.11347,0.77575 13.98789,2.25987 2.47958,1.28025 2.19727,4.48296 -0.45633,5.17689 -1.21348,0.31734 -1.86668,0.91662 -1.45155,1.33175 1.27499,1.27499 9.91764,3.23383 14.47362,3.28042 4.85746,0.0497 8.18426,1.45484 8.18426,3.45687 0,2.06217 2.44793,3.73933 3.67167,2.51559 2.18844,-2.18844 5.92749,1.35366 12.20551,11.56259 3.50744,5.7036 8.12829,12.30515 10.26854,14.6701 2.14026,2.36496 3.65803,4.90801 3.37283,5.65124 -0.2852,0.74322 -0.51855,1.53951 -0.51855,1.76953 0,0.23001 -0.65182,0.41821 -1.44848,0.41821 -0.79666,0 -2.67546,1.13713 -4.17512,2.52696 l -2.72664,2.52697 1.99817,2.67632 c 1.26405,1.69307 3.67828,3.10493 6.57126,3.84293 7.52696,1.92015 11.03867,5.33194 13.51981,13.13514 1.18773,3.73542 2.28074,9.74466 2.4289,13.35387 0.24385,5.9404 -0.034,7.02025 -2.93275,11.39652 -3.37871,5.10091 -8.90991,9.53094 -11.9321,9.5566 -3.84524,0.0327 -4.44239,1.46299 -4.9432,11.84024 -0.32887,6.81472 -0.14005,10.14445 0.57529,10.14445 1.97148,0 1.0859,3.19561 -1.43514,5.17866 -2.74019,2.15543 -3.10752,4.39387 -1.35298,8.24467 0.88991,1.95314 0.85612,2.86796 -0.15073,4.08114 -1.06554,1.2839 -1.05539,2.01659 0.0568,4.09466 1.61712,3.02161 0.266,4.36055 -4.42549,4.38556 -2.43925,0.013 -2.68471,0.24153 -1.62756,1.51531 0.68469,0.825 2.07396,1.5 3.08726,1.5 2.42552,0 4.23075,3.28199 2.66594,4.8468 -0.6343,0.63426 -2.18824,1.1532 -3.45324,1.1532 -2.82,0 -2.84852,0.58801 -0.23635,4.87268 2.42445,3.97677 1.93017,6.12732 -1.40831,6.12732 l -2.40742,0 1.25157,5.99756 c 0.68837,3.29866 1.81969,6.6821 2.51406,7.51876 1.2586,1.51653 0.12831,3.69393 -3.64743,7.02639 -0.64977,0.57349 -1.4924,3.11656 -1.8725,5.65127 -0.62143,4.144 -0.4749,4.67719 1.4536,5.28927 3.49949,1.11069 11.01233,9.09541 16.71833,17.76838 2.93395,4.45953 5.33445,8.54652 5.33445,9.0822 0,0.53568 1.51299,3.71722 3.36219,7.07007 1.8492,3.35286 3.6457,7.5973 3.9922,9.43211 0.34651,1.8348 2.43352,7.18459 4.63781,11.88842 2.20429,4.70383 4.0078,9.16513 4.0078,9.91399 0,1.13259 -9.43457,1.36158 -56.09819,1.36158 l -56.09818,0 0.67011,-6.25 z m 53.77626,-21.16625 c 1.5125,-2.38877 2.75,-4.66127 2.75,-5.05001 0,-0.38873 1.30632,-2.58035 2.90292,-4.87026 2.88875,-4.14314 2.90278,-4.23554 2.87286,-18.91348 -0.0233,-11.45223 -0.32194,-14.75 -1.33554,-14.75 -0.718,0 -1.57068,0.83563 -1.89484,1.85695 -0.32415,1.02132 -2.37948,2.56012 -4.56738,3.41955 -2.20039,0.86434 -3.97802,2.23993 -3.97802,3.07833 0,0.83364 -1.51653,2.0641 -3.37007,2.73435 l -3.37007,1.21863 -0.5181,9.08671 c -0.3844,6.74177 -0.16651,9.58868 0.84432,11.03184 0.74934,1.06983 2.31147,5.01155 3.47141,8.75939 1.15994,3.74784 2.40902,6.79782 2.77574,6.77774 0.36673,-0.0201 1.90427,-1.99096 3.41677,-4.37974 z m -21.25,-43.59732 c 0,-0.55746 -0.52102,-1.84785 -1.15782,-2.86753 -1.4982,-2.39901 -0.4334,-5.1189 2.00399,-5.1189 1.04992,0 2.46914,-0.675 3.15383,-1.5 0.84475,-1.01786 3.10935,-1.5 7.04552,-1.5 5.04197,0 6.17284,-0.3722 8.64644,-2.84581 2.02662,-2.02662 2.84037,-3.82573 2.82692,-6.25 -0.0166,-2.99059 0.29001,-3.40136 2.52352,-3.38089 2.36046,0.0216 2.55793,-0.33617 2.75956,-5 0.16137,-3.73263 0.74589,-5.42287 2.27496,-6.57841 1.80893,-1.36704 1.9093,-1.88103 0.82992,-4.25 -1.39871,-3.06984 -2.41933,-3.40771 -3.30689,-1.09476 -0.47875,1.2476 -1.54884,1.48067 -4.85699,1.0579 -15.68763,-2.00483 -15.16764,-2.0208 -16.24296,0.49883 -0.65565,1.53629 -1.99949,2.45717 -3.90257,2.67429 -1.59642,0.18212 -3.56694,0.9955 -4.37894,1.80751 -0.812,0.812 -2.09335,1.22548 -2.84743,0.91885 -0.75408,-0.30663 -2.00541,-0.81505 -2.78072,-1.12983 -0.85688,-0.34789 -1.66121,0.22025 -2.05115,1.44885 -0.86441,2.72351 -3.17076,3.29753 -10.96142,2.72814 l -6.57777,-0.48075 0,5.0778 c 0,3.52501 0.49501,5.43976 1.61875,6.26145 1.35999,0.99445 1.41438,1.51092 0.34024,3.23089 -1.13666,1.82009 -0.79072,2.67178 3.11808,7.67658 2.41812,3.09615 4.68753,5.62936 5.04313,5.62936 0.35559,0 0.92431,-0.7875 1.26381,-1.75 0.3395,-0.9625 0.87949,-2.3125 1.19997,-3 0.36039,-0.77313 -0.16539,-1.25 -1.3782,-1.25 -3.12159,0 -4.58185,-2.42064 -3.12852,-5.18608 2.02773,-3.85843 7.05206,-9.21397 10.32859,-11.00948 6.54535,-3.5868 8.34149,-4.08989 16.28815,-4.56228 10.4647,-0.62207 13.54264,0.0859 13.12092,3.01815 -0.43535,3.027 -4.30096,4.70751 -10.86858,4.72495 -7.09426,0.0188 -14.43702,3.55312 -18.88747,9.0911 -1.7928,2.23091 -3.10197,4.15762 -2.90926,4.28157 5.82288,3.74531 7.92615,5.51293 8.774,7.37375 1.04499,2.29351 3.07639,3.12205 3.07639,1.25475 z m 38.55887,-28.51823 c -1.06762,-0.80751 -2.41762,-1.45389 -3,-1.4364 -0.58238,0.0175 -0.18536,0.6925 0.88226,1.5 1.06762,0.80751 2.41762,1.45389 3,1.4364 0.58238,-0.0175 0.18536,-0.6925 -0.88226,-1.5 z m -72.4777,-9.066 c 0.93301,-1.12421 2.31668,-1.43704 4.66827,-1.05543 2.8779,0.46701 3.47269,0.19919 4.28138,-1.92783 0.51654,-1.35861 1.73342,-2.71896 2.70417,-3.023 0.97076,-0.30405 2.95944,-1.19252 4.4193,-1.97438 1.45986,-0.78186 3.40031,-1.42156 4.3121,-1.42156 2.40208,0 11.46811,3.08501 12.10782,4.12007 0.72347,1.1706 3.42579,1.13075 3.42579,-0.0505 0,-0.51175 -1.0125,-1.07425 -2.25,-1.25 -3.46676,-0.49236 -2.94795,-4.06393 0.75,-5.1631 1.65,-0.49044 3.78139,-1.28877 4.73643,-1.77408 2.95519,-1.50168 6.48663,-0.98163 9.43684,1.3897 2.98929,2.40274 10.32673,6.06814 10.32673,5.1587 0,-0.29528 -1.125,-2.19246 -2.5,-4.21596 -3.12154,-4.59376 -3.12667,-5.75809 -0.0343,-7.78428 2.32127,-1.52096 2.65025,-1.48416 5.61699,0.62835 l 3.15131,2.24393 -2.29009,-3.97913 c -1.30748,-2.2718 -2.01476,-4.69665 -1.64838,-5.6514 0.83293,-2.1706 5.48508,-2.18081 7.87574,-0.0173 1.00581,0.91024 1.82567,1.24774 1.82191,0.75 -0.004,-0.49775 -1.49546,-1.91841 -3.31488,-3.15704 -5.23656,-3.56495 -9.00801,-7.94633 -8.33957,-9.68825 0.38584,-1.0055 1.8533,-1.5597 4.1299,-1.5597 1.94226,0 3.53138,-0.1936 3.53138,-0.43023 0,-0.23663 -1.40663,-3.46927 -3.12585,-7.18365 -2.43666,-5.2644 -2.88824,-7.13391 -2.04816,-8.47909 0.59273,-0.94912 0.82551,-3.27976 0.51727,-5.1792 -0.30824,-1.89944 -0.0587,-4.39103 0.55454,-5.53686 0.91613,-1.71182 0.668,-2.74198 -1.39142,-5.7767 -1.37851,-2.03135 -2.51457,-4.86807 -2.52458,-6.30382 -0.01,-1.43575 -1.36001,-4.59067 -3,-7.01093 -3.55387,-5.24472 -3.81628,-8.58255 -0.80158,-10.19597 1.99314,-1.0667 2.03695,-1.27158 0.51061,-2.38767 -0.91829,-0.67147 -2.31224,-2.75887 -3.09767,-4.63867 -0.78543,-1.8798 -2.3652,-4.26592 -3.51061,-5.3025 -1.14541,-1.03659 -2.08256,-2.412 -2.08256,-3.05648 0,-0.64449 -2.025,-3.37743 -4.5,-6.07322 -2.475,-2.69579 -4.5,-5.42559 -4.5,-6.06624 0,-1.5277 2.35483,-2.37878 6.58179,-2.37878 3.2004,0 3.41821,-0.21028 3.41821,-3.3 0,-1.815 0.50706,-3.80706 1.1268,-4.4268 0.83573,-0.83573 0.55891,-2.04566 -1.07165,-4.68397 -2.73387,-4.42348 -2.4167,-7.96711 0.7533,-8.41644 4.31873,-0.61216 2.04378,-3.44917 -4.26843,-5.32302 -3.27539,-0.97233 -5.97432,-1.6738 -5.99764,-1.55882 -0.0233,0.11498 -1.00501,2.00905 -2.18157,4.20905 -2.36992,4.43145 -5.48286,5.60451 -8.24329,3.10635 -1.5618,-1.4134 -1.87083,-1.37534 -3.40775,0.41964 -1.48613,1.73567 -2.97437,1.97401 -12.32628,1.97401 -9.77787,0 -11.10037,0.23593 -16.39019,2.92403 -3.16475,1.60821 -7.59554,3.47573 -9.8462,4.15004 -2.25065,0.67431 -4.89197,1.95823 -5.8696,2.85316 -3.28061,3.00308 -7.74371,5.70215 -12.2775,7.42484 -6.27374,2.38382 -10,8.31321 -10,15.91244 l 0,5.50504 5.61991,0.70216 c 3.09096,0.38619 7.70346,1.60664 10.25,2.71211 2.54655,1.10547 6.65509,2.30788 9.13009,2.67202 3.63826,0.53528 4.56066,1.08714 4.81676,2.88181 0.18942,1.3274 -0.64217,3.17867 -2.06862,4.60512 l -2.38538,2.38538 3.33208,3.63592 c 1.83264,1.99976 4.23567,3.63593 5.34006,3.63593 3.42242,0 4.41493,3.95654 2.67163,10.65018 -3.72321,14.29579 -4.61643,17.12923 -11.459,36.34982 -4.72434,13.27056 -5.28369,15.84857 -4.60107,21.20636 1.08003,8.47703 5.78654,9.8644 12.74318,3.75639 2.02737,-1.78005 6.34519,-3.88586 10.57521,-5.15754 4.24795,-1.27708 7.54362,-2.88679 8.12166,-3.96686 0.97966,-1.8305 5.88786,-4.83835 7.89521,-4.83835 1.99037,0 2.19255,2.82407 0.3456,4.82742 -1.00503,1.09013 -2.58063,3.07675 -3.50135,4.41471 -0.92071,1.33796 -4.52071,3.80235 -8,5.47643 -6.73567,3.2409 -11.46465,7.43902 -10.37172,9.20741 0.93006,1.50487 2.08127,1.33862 3.62692,-0.52377 z m 11.66883,-40.425 c -2.02215,-1.244 -2.28823,-4.03897 -0.55,-5.7772 0.66,-0.66 3.50332,-1.2 6.3185,-1.2 6.94664,0 14.62726,-2.42633 22.83893,-7.21487 6.27336,-3.65824 6.99311,-3.86316 8.4504,-2.40587 1.45729,1.45728 1.34167,1.8578 -1.35743,4.7023 -7.13273,7.51699 -30.2804,15.22996 -35.7004,11.89564 z m -5.04372,-11.9936 c -3.83895,-3.01972 -6.70628,-8.27553 -6.70628,-12.29262 0,-1.96512 -0.45,-3.85106 -1,-4.19098 -1.84174,-1.13826 -1.15765,-12.7679 1,-17 1.1,-2.15759 2,-4.4869 2,-5.17626 0,-0.68935 -0.9,-1.73504 -2,-2.32374 -4.50664,-2.41188 -1.44692,-8.0231 6.91278,-12.67736 3.62297,-2.01709 8.93051,-5.38986 11.79452,-7.49504 5.52016,-4.05757 10.11944,-4.94622 12.25871,-2.36856 1.47265,1.77444 0.52951,6.88483 -1.59623,8.64903 -0.82591,0.68544 -2.1261,2.45382 -2.88932,3.92972 -1.28896,2.49258 -1.2219,2.75899 0.94285,3.74531 4.91611,2.23993 9.32323,7.15323 10.45777,11.6589 1.54629,6.14086 1.41253,15.69094 -0.25331,18.08549 -0.75472,1.08488 -1.68475,3.40895 -2.06673,5.1646 -0.38198,1.75565 -1.98658,4.97573 -3.56577,7.15574 -2.55484,3.52686 -3.6437,4.13935 -9.88067,5.55791 -9.21586,2.09611 -12.31482,2.0112 -15.40832,-0.42214 z m 23.21086,-21.03282 c 1.44004,-6.71472 1.3651,-10.33951 -0.29596,-14.315 -2.00963,-4.80971 -6.24806,-7.7979 -10.54495,-7.43442 -3.02967,0.25628 -4.05782,1.0787 -7.24921,5.79864 -2.59279,3.83463 -3.73522,6.63548 -3.77293,9.25 -0.0527,3.65188 1.12605,4.88559 2.51721,2.63464 1.02984,-1.66633 9.15642,-0.44103 11.57166,1.74474 1.13399,1.02624 2.70228,3.10446 3.4851,4.61826 2.05033,3.9649 3.0624,3.42291 4.28908,-2.29686 z m 46.77585,18.31825 c -0.25354,-0.97297 -0.47766,-0.41903 -0.49804,1.23097 -0.0204,1.65 0.18706,2.44606 0.46099,1.76903 0.27392,-0.67703 0.29059,-2.02703 0.0371,-3 z m 4.76646,-8.72729 c 2.84261,0.6613 9.53272,-3.40639 12.26098,-7.45485 1.25376,-1.86046 2.26067,-4.77861 2.23758,-6.48477 -0.0676,-4.99432 -3.40135,-17.47403 -5.12956,-19.20224 -1.49594,-1.49594 -8.13096,-1.87037 -22.22365,-1.25413 l -2.8952,0.1266 2.3952,1.82183 c 1.94913,1.48255 2.19018,2.15556 1.29434,3.61383 -0.60548,0.98559 -2.29298,1.93438 -3.75,2.10841 -3.68444,0.44008 -3.35636,2.78043 0.96051,6.85176 2.86372,2.70084 3.50477,3.95294 3.10214,6.05915 -0.50317,2.63219 1.66832,7.27267 3.40322,7.27267 0.48674,0 0.88499,-1.32448 0.88499,-2.9433 0,-3.14678 3.00466,-6.0567 6.25389,-6.0567 1.8046,0 3.50653,-2.57291 2.42039,-3.65905 -0.31503,-0.31503 -2.01518,-0.86779 -3.77809,-1.22835 -4.09833,-0.83819 -5.95309,-3.48946 -3.87924,-5.54509 1.25198,-1.24099 2.62282,-1.29257 8.79833,-0.33106 9.14568,1.42396 10.10498,2.70823 7.71013,10.32207 -1.86009,5.91371 -2.87074,7.09012 -6.52541,7.59566 -1.6676,0.23068 -2.60323,1.0708 -2.81003,2.5232 -0.46104,3.23789 -2.63086,4.69222 -5.06057,3.39187 -2.55046,-1.36496 -7.59788,0.31822 -6.53387,2.17888 2.00425,3.5049 2.50988,3.65837 5.68719,1.72613 1.7249,-1.04897 4.05443,-1.69361 5.17673,-1.43252 z m -107.85058,-5.48876 c 1.98955,-2.36444 3.40821,-3.00691 7.17645,-3.25 6.26465,-0.40413 6.65922,-2.59373 1.41281,-7.84015 -3.29374,-3.29373 -4.63697,-3.96283 -7.95548,-3.96283 -3.67177,0 -4.04288,0.25115 -4.61765,3.125 -1.18663,5.93316 -0.55752,14.875 1.04655,14.875 0.25166,0 1.57346,-1.32616 2.93732,-2.94702 z M 327.32745,397.8037 c 0.75797,-0.48009 1.06816,-1.37441 0.68932,-1.98739 -0.7934,-1.28375 -4.56743,0.30776 -4.56743,1.92608 0,1.19499 2.0374,1.2272 3.87811,0.0613 z"
         id="path4367"
         inkscape:connector-curvature="0" />
      <path
         style="fill:#1e97e0"
         d="m 366.94233,636.95721 c 0.3904,-1.5125 1.05334,-5 1.4732,-7.75 0.41986,-2.75 2.21091,-8.375 3.98011,-12.5 1.7692,-4.125 3.59249,-8.85 4.05177,-10.5 2.10028,-7.54554 4.92774,-12.53859 10.19868,-18.00999 4.30725,-4.47105 5.43596,-6.22764 4.62756,-7.20171 -0.58806,-0.70856 -1.6263,-1.2883 -2.30721,-1.2883 -0.6809,0 -2.89579,-1.125 -4.92196,-2.5 -2.02618,-1.375 -4.29897,-2.5 -5.05066,-2.5 -1.69186,0 -6.16565,-5.19965 -7.09366,-8.2446 -0.37806,-1.24047 -1.40535,-3.07213 -2.28286,-4.07034 -2.19639,-2.49851 -11.58041,-18.05841 -14.69104,-24.35962 l -2.55446,-5.17456 -6.51853,-0.69807 c -7.90054,-0.84608 -9.39762,-2.52684 -9.36555,-10.51466 0.012,-2.99098 -0.0141,-7.82176 -0.0581,-10.73506 -0.0464,-3.07202 0.60503,-6.64231 1.55082,-8.5 2.50579,-4.92175 5.67312,-15.72856 5.07027,-17.29955 -0.29623,-0.77195 -1.45142,-1.40354 -2.56709,-1.40354 -1.11568,0 -3.75282,-1.55781 -5.8603,-3.46179 -2.99322,-2.70419 -4.41635,-5.23607 -6.50288,-11.56917 -3.10082,-9.4117 -3.31846,-13.6903 -1.0223,-20.09722 2.03881,-5.68882 1.46898,-7.39827 -2.74723,-8.24151 -4.35316,-0.87063 -6.90156,-3.33389 -6.90156,-6.67099 0,-2.96672 -1.23623,-5.72344 -4.79306,-10.68824 -1.26118,-1.76042 -2.47046,-4.6025 -2.68728,-6.31573 -0.21682,-1.71323 -1.12249,-4.22643 -2.01259,-5.5849 -2.0771,-3.17006 -1.18575,-14.99525 1.57559,-20.90255 2.01174,-4.3037 8.45541,-9.75601 15.91734,-13.46845 2.475,-1.23136 6.525,-3.66798 9,-5.41472 2.475,-1.74673 7.875,-4.90331 12,-7.01462 7.27266,-3.72238 7.88411,-3.85376 20.17178,-4.33433 11.71093,-0.45801 12.93612,-0.33221 16.15798,1.65901 2.52145,1.55834 4.96453,2.12486 8.82822,2.04717 11.6172,-0.23359 16.68732,2.40322 11.76305,6.11761 -1.31513,0.992 -2.17287,1.98304 -1.90609,2.20231 1.11375,0.91538 13.91464,3.87822 15.62556,3.61663 2.89665,-0.44288 7.3595,1.02344 7.3595,2.41804 0,0.69214 0.74603,2.32354 1.65784,3.62533 1.59699,2.28002 1.70808,2.29818 3.0269,0.49459 1.06687,-1.45904 1.74939,-1.63657 3.09216,-0.80427 1.99687,1.23772 8.17624,9.99841 11.33318,16.06743 1.19578,2.2988 4.1652,6.45571 6.59872,9.23759 4.36561,4.99055 4.78907,7.02991 1.48218,7.13811 -0.93004,0.0304 -2.72375,1.36358 -3.98603,2.96255 -2.15918,2.73512 -2.20423,3.08284 -0.76096,5.8738 1.55243,3.00208 2.27265,3.3953 8.54601,4.66583 8.57484,1.73665 13.28447,9.90277 14.32315,24.83518 0.4507,6.47941 0.28242,7.19892 -2.80661,12 -3.66303,5.69319 -7.28328,8.22579 -13.09788,9.16281 l -3.90866,0.62987 8.6e-4,10.65732 c 4.7e-4,5.86152 0.40749,11.50052 0.90449,12.5311 0.66042,1.36947 0.46164,2.12114 -0.7386,2.79283 -2.96409,1.65879 -3.96141,4.70779 -2.60838,7.97431 0.97922,2.36403 0.96574,3.44551 -0.067,5.37518 -1.02895,1.92261 -1.04039,2.71991 -0.056,3.906 1.81552,2.18756 0.42527,3.57789 -3.5777,3.57789 -4.39424,0 -4.09482,1.8115 0.7019,4.24652 4.33,2.19809 4.41181,4.15982 0.19045,4.56684 -1.7875,0.17235 -3.25,0.49781 -3.25,0.72325 0,0.22544 1.00107,2.4704 2.22461,4.9888 2.88421,5.93658 1.38418,7.23021 -4.86391,4.19465 -2.37425,-1.1535 -4.61582,-1.79827 -4.98126,-1.43283 -1.00818,1.00817 1.40206,3.44112 4.07315,4.11151 1.8644,0.46794 2.52144,1.50308 3.07723,4.84812 0.38867,2.33923 1.3395,5.48963 2.11295,7.0009 1.23436,2.41186 1.20585,3.05365 -0.23326,5.25 -0.90176,1.37623 -2.2628,2.50224 -3.02454,2.50224 -0.79122,0 -1.38499,1.01821 -1.38499,2.375 0,1.30625 -0.27252,3.73759 -0.60559,5.40297 -0.54013,2.70063 -0.24227,3.20039 2.75526,4.62281 8.63857,4.09927 23.70621,27.05708 29.2713,44.59922 0.95965,3.025 3.28252,8.57334 5.16193,12.32964 1.8794,3.7563 3.4171,7.2438 3.4171,7.75 0,0.54955 -22.60609,0.92036 -56.10841,0.92036 l -56.10841,0 0.70981,-2.75 z m 52.52521,-20.5 c 0.01,-0.6875 1.24751,-3.14658 2.75,-5.46462 8.60447,-13.27497 8.01709,-11.15793 7.84793,-28.28538 -0.12946,-13.10918 -0.3816,-15.45288 -1.6346,-15.19453 -0.81484,0.16801 -2.2953,1.39005 -3.28991,2.71564 -1.00623,1.34109 -3.33496,2.69656 -5.25,3.05582 -2.51741,0.47227 -3.44162,1.16655 -3.44162,2.58539 0,1.25608 -1.18377,2.43434 -3.35869,3.34308 l -3.3587,1.40336 -0.52765,9.25426 c -0.39051,6.849 -0.17466,9.79299 0.83048,11.32703 0.74697,1.14003 2.26048,4.89737 3.36335,8.34964 1.10287,3.45228 2.26712,6.70064 2.58723,7.21859 0.85295,1.3801 3.46096,1.14921 3.48218,-0.30828 z m -16.33509,-33.9375 c -0.31922,-0.79773 -0.55618,-0.56078 -0.60416,0.60417 -0.0434,1.05416 0.19292,1.64479 0.52522,1.3125 0.33229,-0.3323 0.36781,-1.1948 0.0789,-1.91667 z m -2.79322,-13.17982 c 0.86313,-1.04001 0.77275,-1.66778 -0.37756,-2.62245 -2.22012,-1.84253 -1.84581,-3.93294 0.89053,-4.9733 1.32157,-0.50246 2.69813,-1.39132 3.05902,-1.97525 0.84829,-1.37256 11.07574,-1.3795 13.63607,-0.009 1.74895,0.93601 1.90049,0.78954 1.36997,-1.3242 -0.73725,-2.93746 1.60755,-5.15643 4.48409,-4.24345 2.39194,0.75917 2.71139,-0.68931 0.54799,-2.48477 -2.01672,-1.67373 -1.96932,-6 0.0657,-6 0.86116,0 2.43616,0.46583 3.5,1.03518 1.46343,0.78321 1.93426,0.71018 1.93426,-0.3 0,-0.73435 -0.38272,-1.76268 -0.85048,-2.28518 -0.46776,-0.5225 -0.647,-2.8467 -0.39831,-5.16489 0.32332,-3.01384 0.99309,-4.38657 2.35048,-4.81738 1.04407,-0.33138 1.89663,-1.13468 1.89457,-1.78512 -0.005,-1.72012 -3.80462,-7.68287 -4.89501,-7.68287 -1.20993,0 -7.10121,-8.0156 -7.10121,-9.66182 0,-0.6973 0.91756,-1.75887 2.03902,-2.35906 1.67582,-0.89688 2.58009,-0.63596 5.07672,1.46482 5.3076,4.46605 6.36157,3.19438 2.30287,-2.77852 -1.41976,-2.08937 -2.33388,-4.44383 -2.03138,-5.23214 0.70339,-1.83301 3.56168,-1.7865 6.0539,0.0985 2.03781,1.54132 5.57843,2.00104 5.53134,0.7182 -0.0151,-0.4125 -1.64689,-1.875 -3.62611,-3.25 -4.90033,-3.40435 -10.34377,-9.19517 -9.66935,-10.2864 0.30362,-0.49127 2.0755,-0.60741 3.93751,-0.25809 4.2752,0.80203 4.31881,-0.0797 0.45039,-9.10655 -2.48245,-5.79271 -2.74284,-7.1574 -1.68844,-8.84896 0.89442,-1.4349 0.96551,-2.76935 0.2516,-4.72287 -0.71368,-1.95289 -0.63744,-3.3911 0.26962,-5.08595 1.10794,-2.07022 0.94478,-2.8345 -1.3165,-6.16668 -1.41966,-2.09198 -2.58938,-4.9783 -2.59939,-6.41405 -0.01,-1.43575 -1.36001,-4.59067 -3,-7.01093 -3.56861,-5.26648 -3.73147,-7.35144 -0.7318,-9.36866 l 2.25,-1.51307 -2.05916,-2.3589 c -1.13253,-1.29739 -2.61545,-3.66237 -3.29536,-5.2555 -1.46257,-3.42703 -4.07548,-6.99356 -9.98546,-13.62985 -2.38699,-2.68034 -4.04793,-5.34589 -3.69098,-5.92344 0.83147,-1.34536 5.09511,-1.35373 7.5967,-0.0149 1.76619,0.94523 1.93426,0.67884 1.93426,-3.06574 0,-2.25551 0.47215,-4.98316 1.04923,-6.06144 0.81491,-1.52266 0.56069,-2.82975 -1.13829,-5.85268 -2.44961,-4.35846 -2.01993,-7.0553 1.1241,-7.0553 1.69537,0 2.0371,-0.52369 1.78138,-2.72984 -0.28348,-2.44565 -0.99311,-2.91058 -6.81642,-4.46597 -7.27712,-1.9437 -9,-1.742 -9,1.05364 0,1.05633 -0.82991,2.9455 -1.84424,4.19814 -1.84507,2.27857 -2.87306,2.23233 -6.39489,-0.28763 -1.46551,-1.04862 -1.98575,-0.89229 -3.3067,0.99363 -1.45865,2.08251 -2.31823,2.23803 -12.37011,2.23803 -10.01422,0 -11.20073,0.21249 -16.25935,2.91192 -3.00125,1.60156 -7.22709,3.39018 -9.39076,3.97471 -2.16367,0.58453 -6.22287,2.78493 -9.02045,4.88977 -2.79757,2.10485 -7.15457,4.6168 -9.68221,5.58212 -3.52444,1.346 -5.32303,2.88853 -7.71583,6.61738 -2.72858,4.25213 -3.08216,5.59157 -2.81778,10.67439 l 0.30232,5.81214 6.5,1.11991 c 3.575,0.61596 8.87916,2.08691 11.78702,3.26879 2.90786,1.18188 6.40948,2.14887 7.78139,2.14887 1.3719,0 2.73989,0.63984 3.03998,1.42186 0.82346,2.14591 -1.41843,5.57814 -3.64357,5.57814 -1.08065,0 -1.96482,0.26514 -1.96482,0.5892 0,1.54086 9.70245,9.82553 11.21659,9.57755 2.82137,-0.46209 3.07126,3.80917 0.72452,12.38385 -1.19659,4.37217 -2.54254,9.2994 -2.99101,10.9494 -0.84522,3.10975 -1.98806,6.44809 -7.70257,22.5 -4.73639,13.3044 -5.30492,15.88468 -4.62706,21 0.74076,5.58994 2.80287,9 5.44242,9 2.49883,0 9.11601,-3.30571 10.88578,-5.43815 0.72318,-0.87139 4.42848,-2.53006 8.234,-3.68595 4.56348,-1.38612 7.42907,-2.8799 8.41697,-4.38763 1.49728,-2.28513 7.00723,-5.21473 7.97938,-4.24258 0.28319,0.28319 -0.85526,2.54508 -2.5299,5.02642 -2.37289,3.51596 -4.57069,5.22746 -9.95953,7.75581 -3.90807,1.83361 -7.85745,4.5194 -9.08282,6.17679 -3.42809,4.63674 -1.0168,7.63017 3.43436,4.26349 2.42132,-1.8314 4.3137,-1.84464 7.74548,-0.0542 3.29675,1.71997 10.65138,2.45028 11.0338,1.09565 0.15377,-0.54471 -1.88225,-1.38533 -4.52449,-1.86806 -4.11679,-0.75211 -4.76058,-1.18268 -4.5,-3.00962 0.2096,-1.46955 1.13577,-2.22806 2.9809,-2.4413 1.47225,-0.17015 3.21485,-0.95765 3.87245,-1.75 0.65759,-0.79235 2.15302,-1.43409 3.32317,-1.42609 2.55221,0.0175 10.62093,2.73506 12.32872,4.1524 0.67401,0.55937 2.61034,0.70391 4.34021,0.32396 2.85937,-0.62802 3.09521,-0.48761 2.79096,1.66155 -0.2509,1.77233 -1.06741,2.4293 -3.33233,2.6812 -1.65,0.18352 -3.75007,1.00689 -4.66681,1.82971 -1.34093,1.20354 -2.09938,1.26454 -3.87924,0.31199 -1.93081,-1.03335 -2.48452,-0.8428 -4.35027,1.49707 -2.06953,2.59544 -2.38499,2.66359 -9.87077,2.13238 l -7.73291,-0.54877 0,5.91295 c 0,3.25212 0.47635,6.20734 1.05855,6.56716 0.5822,0.35982 0.79981,1.84888 0.48358,3.30902 -0.46691,2.1559 0.38936,3.82931 4.55651,8.9048 2.82231,3.4375 5.4998,6.25 5.94999,6.25 0.45019,0 0.96092,-1.2375 1.13495,-2.75 0.52903,-4.59781 4.05343,-4.15544 9.04885,1.13578 4.75798,5.03973 5.05096,5.18261 6.65746,3.2469 z m -18.63865,-11.78144 c -2.83534,-2.83534 4.97369,-11.2862 14.74876,-15.96094 1.375,-0.65757 6.88163,-1.40399 12.23695,-1.65872 8.46898,-0.40283 9.82106,-0.24398 10.38279,1.21985 1.05827,2.75781 -1.07732,3.79695 -9.31307,4.53157 -9.36071,0.83497 -14.92696,3.41741 -19.42185,9.0107 -3.26028,4.05698 -6.39621,5.09491 -8.63358,2.85754 z m 35.74876,-29.85124 c -1.375,-0.44035 -4.3553,-0.8455 -6.62288,-0.90032 -2.26759,-0.0548 -6.23261,-1.03291 -8.81116,-2.17353 -3.85592,-1.70566 -4.47814,-2.32704 -3.50467,-3.5 0.65098,-0.78438 2.45194,-1.42615 4.00214,-1.42615 1.55019,0 3.09665,-0.45 3.43657,-1 0.90364,-1.46213 5.07171,-1.22098 6.39195,0.36981 0.62527,0.7534 4.06237,2.81004 7.638,4.57032 3.57564,1.76028 6.2426,3.61887 5.92659,4.13019 -0.6775,1.09622 -4.92428,1.06091 -8.45654,-0.0703 z m -39.9012,-38.38096 c -2.56292,-3.08813 -0.65194,-4.29534 7.70627,-4.86823 8.0833,-0.55404 18.08626,-4.25282 24.0863,-8.90634 1.8512,-1.43577 2.70578,-1.59377 3.78331,-0.6995 1.16622,0.96788 1.02498,1.54582 -0.87097,3.56397 -6.63985,7.06779 -31.42679,14.86 -34.70491,10.9101 z m -4.79427,-11.11829 c -3.09059,-2.16474 -6.36668,-7.88839 -6.70025,-11.70603 -0.15834,-1.81209 -0.75191,-4.41972 -1.31906,-5.79472 -1.31992,-3.20004 -0.0193,-13.11389 2.12142,-16.17018 2.20467,-3.1476 1.99258,-5.68279 -0.65664,-7.84907 -2.16775,-1.77258 -2.18869,-1.94293 -0.57279,-4.66029 1.59847,-2.68805 3.57703,-4.20347 10.32279,-7.90644 1.65,-0.90574 5.3793,-3.42168 8.28732,-5.59098 4.06171,-3.02992 6.03203,-3.8722 8.5,-3.63362 2.97375,0.28748 3.19304,0.55796 2.94853,3.63682 -0.15344,1.93226 -1.58548,4.97047 -3.41705,7.24961 -1.7341,2.15786 -2.86649,4.20979 -2.51642,4.55986 0.35007,0.35007 2.78337,2.04127 5.40734,3.75823 2.62396,1.71696 5.41755,4.46821 6.20796,6.1139 1.88122,3.91684 2.72903,18.00799 1.19471,19.85674 -0.62909,0.75801 -1.81918,3.57357 -2.64464,6.25681 -2.27914,7.40851 -4.91856,9.88571 -12.53164,11.76141 -8.16518,2.01172 -11.88502,2.04171 -14.63158,0.11795 z m 21.47903,-14.75075 c 0.56565,-0.6875 1.57927,-4.06236 2.25249,-7.4997 2.27759,-11.62891 -2.54693,-20.48221 -11.25958,-20.66204 -4.18605,-0.0864 -4.36633,0.0485 -8.52647,6.37925 -6.24844,9.50866 -5.71734,15.68147 1.12538,13.07987 4.17707,-1.58812 9.03466,0.87589 11.58603,5.87698 2.1954,4.30333 3.14739,4.86118 4.82215,2.82564 z m 49.21644,35.80902 c 0,-1.74279 -1.63967,-2.89975 -2.95633,-2.08601 -1.33094,0.82257 -0.13222,3.52699 1.56332,3.52699 0.76615,0 1.39301,-0.64844 1.39301,-1.44098 z m -1,-10.5 c 0,-1.17986 -1.95035,-2.442 -2.66667,-1.72569 -0.71631,0.71632 0.54583,2.66667 1.72569,2.66667 0.51754,0 0.94098,-0.42344 0.94098,-0.94098 z m 1,-11.25779 c 0,-1.74893 -0.75653,-3.66907 -1.75,-4.44165 -1.64224,-1.27712 -1.60288,-1.48545 0.63938,-3.3834 1.38078,-1.16876 3.14378,-1.78304 4.17659,-1.45524 2.83567,0.90001 8.11307,-1.85951 12.18403,-6.37095 2.95959,-3.27982 3.74115,-4.94555 3.70801,-7.90287 -0.0679,-6.06251 -3.3746,-18.10816 -5.5749,-20.30846 -2.02228,-2.02227 -5.34474,-2.29127 -23.13311,-1.87292 -3.74667,0.0881 -4.39512,2.25104 -1.18923,3.96678 2.81981,1.50912 1.88657,3.46748 -1.6524,3.46748 -2.43571,0 -2.96018,0.45089 -3.22715,2.77444 -0.24655,2.14582 0.49722,3.49688 3.28269,5.96294 2.93704,2.60026 3.49403,3.67763 3.01913,5.83983 -0.43158,1.96499 0.103,3.46581 2.06508,5.79761 l 2.64741,3.14626 -2.30825,1.86911 -2.30825,1.86911 2.65713,3.48368 c 1.46142,1.91602 2.94372,4.78268 3.29401,6.37035 1.06959,4.84795 1.41679,5.53749 2.46277,4.89104 0.55388,-0.34232 1.00706,-2.00874 1.00706,-3.70314 z m -1.40494,-14.10806 c -1.26446,-0.9246 -1.65248,-2.35663 -1.41795,-5.23305 0.29619,-3.63263 0.65115,-4.0673 4.29236,-5.25621 6.76616,-2.20925 6.94185,-5.79469 0.33569,-6.85106 -4.04845,-0.64737 -5.88207,-2.67594 -4.06301,-4.495 1.2859,-1.2859 13.16823,0.85209 15.18137,2.73159 1.21456,1.13394 1.22517,1.95884 0.0723,5.61979 -1.72172,5.46736 -3.69948,7.79077 -6.63177,7.79077 -1.63668,0 -2.50885,0.72869 -2.94312,2.45898 -0.89472,3.56486 -2.70996,4.78139 -4.82588,3.23419 z m -102.15983,-0.19317 c 2.55405,-2.70808 4.09498,-3.5 6.8104,-3.5 6.69311,0 7.06499,-5.03651 0.76339,-10.33896 -3.48101,-2.92908 -6.58813,-4.00217 -10.11658,-3.49392 -1.78927,0.25773 -2.50662,1.23591 -3.17754,4.33288 -1.27322,5.87719 -0.0427,16.5 1.91127,16.5 0.27947,0 1.99355,-1.575 3.80906,-3.5 z m -12.01702,-64.10699 c 1.92866,-0.74009 2.01879,-2.41312 0.25961,-4.81893 -1.25577,-1.71738 -1.45665,-1.68356 -4,0.67354 -1.4728,1.36495 -2.67782,2.99262 -2.67782,3.61705 0,1.21501 3.8112,1.52874 6.41821,0.52834 z m 94.0144,-8.64301 c -0.78013,-2.4998 -2.75881,-4.18963 -3.24746,-2.77339 -0.45398,1.31572 1.69931,5.02339 2.91742,5.02339 0.61182,0 0.74623,-0.91636 0.33004,-2.25 z m -65.93261,-21.75 c 0.33992,-0.55 -0.057,-1 -0.88197,-1 -0.825,0 -1.77811,0.45 -2.11803,1 -0.33992,0.55 0.057,1 0.88197,1 0.825,0 1.77811,-0.45 2.11803,-1 z"
         id="path4365"
         inkscape:connector-curvature="0" />
      <path
         style="fill:#075ee3"
         d="m 366.94233,636.95721 c 0.3904,-1.5125 1.05334,-5 1.4732,-7.75 0.41986,-2.75 2.21091,-8.375 3.98011,-12.5 1.7692,-4.125 3.59249,-8.85 4.05177,-10.5 2.10028,-7.54554 4.92774,-12.53859 10.19868,-18.00999 4.30725,-4.47105 5.43596,-6.22764 4.62756,-7.20171 -0.58806,-0.70856 -1.6263,-1.2883 -2.30721,-1.2883 -0.6809,0 -2.89579,-1.125 -4.92196,-2.5 -2.02618,-1.375 -4.29897,-2.5 -5.05066,-2.5 -1.69186,0 -6.16565,-5.19965 -7.09366,-8.2446 -0.37806,-1.24047 -1.40535,-3.07213 -2.28286,-4.07034 -2.19639,-2.49851 -11.58041,-18.05841 -14.69104,-24.35962 l -2.55446,-5.17456 -6.51853,-0.69807 c -7.90054,-0.84608 -9.39762,-2.52684 -9.36555,-10.51466 0.012,-2.99098 -0.0141,-7.82176 -0.0581,-10.73506 -0.0464,-3.07202 0.60503,-6.64231 1.55082,-8.5 2.50579,-4.92175 5.67312,-15.72856 5.07027,-17.29955 -0.29623,-0.77195 -1.45142,-1.40354 -2.56709,-1.40354 -1.11568,0 -3.75282,-1.55781 -5.8603,-3.46179 -2.99322,-2.70419 -4.41635,-5.23607 -6.50288,-11.56917 -3.10082,-9.4117 -3.31846,-13.6903 -1.0223,-20.09722 2.03881,-5.68882 1.46898,-7.39827 -2.74723,-8.24151 -4.35316,-0.87063 -6.90156,-3.33389 -6.90156,-6.67099 0,-2.96672 -1.23623,-5.72344 -4.79306,-10.68824 -1.26118,-1.76042 -2.47046,-4.6025 -2.68728,-6.31573 -0.21682,-1.71323 -1.12249,-4.22643 -2.01259,-5.5849 -2.0771,-3.17006 -1.18575,-14.99525 1.57559,-20.90255 2.01174,-4.3037 8.45541,-9.75601 15.91734,-13.46845 2.475,-1.23136 6.525,-3.66798 9,-5.41472 2.475,-1.74673 7.875,-4.90331 12,-7.01462 7.27266,-3.72238 7.88411,-3.85376 20.17178,-4.33433 11.71093,-0.45801 12.93612,-0.33221 16.15798,1.65901 2.52145,1.55834 4.96453,2.12486 8.82822,2.04717 11.6172,-0.23359 16.68732,2.40322 11.76305,6.11761 -1.31513,0.992 -2.17287,1.98304 -1.90609,2.20231 1.11375,0.91538 13.91464,3.87822 15.62556,3.61663 2.89665,-0.44288 7.3595,1.02344 7.3595,2.41804 0,0.69214 0.74603,2.32354 1.65784,3.62533 1.59699,2.28002 1.70808,2.29818 3.0269,0.49459 1.06687,-1.45904 1.74939,-1.63657 3.09216,-0.80427 1.99687,1.23772 8.17624,9.99841 11.33318,16.06743 1.19578,2.2988 4.1652,6.45571 6.59872,9.23759 4.36561,4.99055 4.78907,7.02991 1.48218,7.13811 -0.93004,0.0304 -2.72375,1.36358 -3.98603,2.96255 -2.15918,2.73512 -2.20423,3.08284 -0.76096,5.8738 1.55243,3.00208 2.27265,3.3953 8.54601,4.66583 8.57484,1.73665 13.28447,9.90277 14.32315,24.83518 0.4507,6.47941 0.28242,7.19892 -2.80661,12 -3.66303,5.69319 -7.28328,8.22579 -13.09788,9.16281 l -3.90866,0.62987 8.6e-4,10.65732 c 4.7e-4,5.86152 0.40749,11.50052 0.90449,12.5311 0.66042,1.36947 0.46164,2.12114 -0.7386,2.79283 -2.96409,1.65879 -3.96141,4.70779 -2.60838,7.97431 0.97922,2.36403 0.96574,3.44551 -0.067,5.37518 -1.02895,1.92261 -1.04039,2.71991 -0.056,3.906 1.81552,2.18756 0.42527,3.57789 -3.5777,3.57789 -4.39424,0 -4.09482,1.8115 0.7019,4.24652 4.33,2.19809 4.41181,4.15982 0.19045,4.56684 -1.7875,0.17235 -3.25,0.49781 -3.25,0.72325 0,0.22544 1.00107,2.4704 2.22461,4.9888 2.88421,5.93658 1.38418,7.23021 -4.86391,4.19465 -2.37425,-1.1535 -4.61582,-1.79827 -4.98126,-1.43283 -1.00818,1.00817 1.40206,3.44112 4.07315,4.11151 1.8644,0.46794 2.52144,1.50308 3.07723,4.84812 0.38867,2.33923 1.3395,5.48963 2.11295,7.0009 1.23436,2.41186 1.20585,3.05365 -0.23326,5.25 -0.90176,1.37623 -2.2628,2.50224 -3.02454,2.50224 -0.79122,0 -1.38499,1.01821 -1.38499,2.375 0,1.30625 -0.27252,3.73759 -0.60559,5.40297 -0.54013,2.70063 -0.24227,3.20039 2.75526,4.62281 8.63857,4.09927 23.70621,27.05708 29.2713,44.59922 0.95965,3.025 3.28252,8.57334 5.16193,12.32964 1.8794,3.7563 3.4171,7.2438 3.4171,7.75 0,0.52001 -6.59482,0.92036 -15.1608,0.92036 l -15.1608,0 -2.95922,-3.25 c -1.62758,-1.7875 -5.64915,-7.4125 -8.93684,-12.5 -3.2877,-5.0875 -6.31394,-9.25 -6.72499,-9.25 -1.63685,0 -3.93337,3.79426 -5.66854,9.36543 -1.9839,6.36975 -3.26972,7.46549 -6.84755,5.83532 -3.0132,-1.3729 -7.75425,-11.50397 -6.92664,-14.80142 0.44675,-1.77999 -0.19382,-3.29497 -2.50728,-5.92986 -1.70904,-1.94648 -3.10734,-4.07703 -3.10734,-4.73455 0,-0.93574 -6.00242,-11.62186 -7.67655,-13.66657 -0.69408,-0.84773 -7.53289,6.49796 -9.37361,10.06837 -2.42968,4.7128 -9.02221,22.34608 -11.81922,31.61328 -2.18584,7.24224 -2.19202,7.25 -5.76781,7.25 -3.41045,0 -3.54608,-0.12996 -2.86982,-2.75 z m 52.52521,-20.5 c 0.01,-0.6875 1.24751,-3.14658 2.75,-5.46462 8.60447,-13.27497 8.01709,-11.15793 7.84793,-28.28538 -0.12946,-13.10918 -0.3816,-15.45288 -1.6346,-15.19453 -0.81484,0.16801 -2.2953,1.39005 -3.28991,2.71564 -1.00623,1.34109 -3.33496,2.69656 -5.25,3.05582 -2.51741,0.47227 -3.44162,1.16655 -3.44162,2.58539 0,1.25608 -1.18377,2.43434 -3.35869,3.34308 l -3.3587,1.40336 -0.52765,9.25426 c -0.39051,6.849 -0.17466,9.79299 0.83048,11.32703 0.74697,1.14003 2.26048,4.89737 3.36335,8.34964 1.10287,3.45228 2.26712,6.70064 2.58723,7.21859 0.85295,1.3801 3.46096,1.14921 3.48218,-0.30828 z m -16.33509,-33.9375 c -0.31922,-0.79773 -0.55618,-0.56078 -0.60416,0.60417 -0.0434,1.05416 0.19292,1.64479 0.52522,1.3125 0.33229,-0.3323 0.36781,-1.1948 0.0789,-1.91667 z m -2.79322,-13.17982 c 0.86313,-1.04001 0.77275,-1.66778 -0.37756,-2.62245 -2.22012,-1.84253 -1.84581,-3.93294 0.89053,-4.9733 1.32157,-0.50246 2.69813,-1.39132 3.05902,-1.97525 0.84829,-1.37256 11.07574,-1.3795 13.63607,-0.009 1.74895,0.93601 1.90049,0.78954 1.36997,-1.3242 -0.73725,-2.93746 1.60755,-5.15643 4.48409,-4.24345 2.39194,0.75917 2.71139,-0.68931 0.54799,-2.48477 -2.01672,-1.67373 -1.96932,-6 0.0657,-6 0.86116,0 2.43616,0.46583 3.5,1.03518 1.46343,0.78321 1.93426,0.71018 1.93426,-0.3 0,-0.73435 -0.38272,-1.76268 -0.85048,-2.28518 -0.46776,-0.5225 -0.647,-2.8467 -0.39831,-5.16489 0.32332,-3.01384 0.99309,-4.38657 2.35048,-4.81738 1.04407,-0.33138 1.89663,-1.13468 1.89457,-1.78512 -0.005,-1.72012 -3.80462,-7.68287 -4.89501,-7.68287 -1.20993,0 -7.10121,-8.0156 -7.10121,-9.66182 0,-0.6973 0.91756,-1.75887 2.03902,-2.35906 1.67582,-0.89688 2.58009,-0.63596 5.07672,1.46482 5.3076,4.46605 6.36157,3.19438 2.30287,-2.77852 -1.41976,-2.08937 -2.33388,-4.44383 -2.03138,-5.23214 0.70339,-1.83301 3.56168,-1.7865 6.0539,0.0985 2.03781,1.54132 5.57843,2.00104 5.53134,0.7182 -0.0151,-0.4125 -1.64689,-1.875 -3.62611,-3.25 -4.90033,-3.40435 -10.34377,-9.19517 -9.66935,-10.2864 0.30362,-0.49127 2.0755,-0.60741 3.93751,-0.25809 4.2752,0.80203 4.31881,-0.0797 0.45039,-9.10655 -2.48245,-5.79271 -2.74284,-7.1574 -1.68844,-8.84896 0.89442,-1.4349 0.96551,-2.76935 0.2516,-4.72287 -0.71368,-1.95289 -0.63744,-3.3911 0.26962,-5.08595 1.10794,-2.07022 0.94478,-2.8345 -1.3165,-6.16668 -1.41966,-2.09198 -2.58938,-4.9783 -2.59939,-6.41405 -0.01,-1.43575 -1.36001,-4.59067 -3,-7.01093 -3.56861,-5.26648 -3.73147,-7.35144 -0.7318,-9.36866 l 2.25,-1.51307 -2.05916,-2.3589 c -1.13253,-1.29739 -2.61545,-3.66237 -3.29536,-5.2555 -1.46257,-3.42703 -4.07548,-6.99356 -9.98546,-13.62985 -2.38699,-2.68034 -4.04793,-5.34589 -3.69098,-5.92344 0.83147,-1.34536 5.09511,-1.35373 7.5967,-0.0149 1.76619,0.94523 1.93426,0.67884 1.93426,-3.06574 0,-2.25551 0.47215,-4.98316 1.04923,-6.06144 0.81491,-1.52266 0.56069,-2.82975 -1.13829,-5.85268 -2.44961,-4.35846 -2.01993,-7.0553 1.1241,-7.0553 1.69537,0 2.0371,-0.52369 1.78138,-2.72984 -0.28348,-2.44565 -0.99311,-2.91058 -6.81642,-4.46597 -7.27712,-1.9437 -9,-1.742 -9,1.05364 0,1.05633 -0.82991,2.9455 -1.84424,4.19814 -1.84507,2.27857 -2.87306,2.23233 -6.39489,-0.28763 -1.46551,-1.04862 -1.98575,-0.89229 -3.3067,0.99363 -1.45865,2.08251 -2.31823,2.23803 -12.37011,2.23803 -10.01422,0 -11.20073,0.21249 -16.25935,2.91192 -3.00125,1.60156 -7.22709,3.39018 -9.39076,3.97471 -2.16367,0.58453 -6.22287,2.78493 -9.02045,4.88977 -2.79757,2.10485 -7.15457,4.6168 -9.68221,5.58212 -3.52444,1.346 -5.32303,2.88853 -7.71583,6.61738 -2.72858,4.25213 -3.08216,5.59157 -2.81778,10.67439 l 0.30232,5.81214 6.5,1.11991 c 3.575,0.61596 8.87916,2.08691 11.78702,3.26879 2.90786,1.18188 6.40948,2.14887 7.78139,2.14887 1.3719,0 2.73989,0.63984 3.03998,1.42186 0.82346,2.14591 -1.41843,5.57814 -3.64357,5.57814 -1.08065,0 -1.96482,0.26514 -1.96482,0.5892 0,1.54086 9.70245,9.82553 11.21659,9.57755 2.82137,-0.46209 3.07126,3.80917 0.72452,12.38385 -1.19659,4.37217 -2.54254,9.2994 -2.99101,10.9494 -0.84522,3.10975 -1.98806,6.44809 -7.70257,22.5 -4.73639,13.3044 -5.30492,15.88468 -4.62706,21 0.74076,5.58994 2.80287,9 5.44242,9 2.49883,0 9.11601,-3.30571 10.88578,-5.43815 0.72318,-0.87139 4.42848,-2.53006 8.234,-3.68595 4.56348,-1.38612 7.42907,-2.8799 8.41697,-4.38763 1.49728,-2.28513 7.00723,-5.21473 7.97938,-4.24258 0.28319,0.28319 -0.85526,2.54508 -2.5299,5.02642 -2.37289,3.51596 -4.57069,5.22746 -9.95953,7.75581 -3.90807,1.83361 -7.85745,4.5194 -9.08282,6.17679 -3.42809,4.63674 -1.0168,7.63017 3.43436,4.26349 2.42132,-1.8314 4.3137,-1.84464 7.74548,-0.0542 3.29675,1.71997 10.65138,2.45028 11.0338,1.09565 0.15377,-0.54471 -1.88225,-1.38533 -4.52449,-1.86806 -4.11679,-0.75211 -4.76058,-1.18268 -4.5,-3.00962 0.2096,-1.46955 1.13577,-2.22806 2.9809,-2.4413 1.47225,-0.17015 3.21485,-0.95765 3.87245,-1.75 0.65759,-0.79235 2.15302,-1.43409 3.32317,-1.42609 2.55221,0.0175 10.62093,2.73506 12.32872,4.1524 0.67401,0.55937 2.61034,0.70391 4.34021,0.32396 2.85937,-0.62802 3.09521,-0.48761 2.79096,1.66155 -0.2509,1.77233 -1.06741,2.4293 -3.33233,2.6812 -1.65,0.18352 -3.75007,1.00689 -4.66681,1.82971 -1.34093,1.20354 -2.09938,1.26454 -3.87924,0.31199 -1.93081,-1.03335 -2.48452,-0.8428 -4.35027,1.49707 -2.06953,2.59544 -2.38499,2.66359 -9.87077,2.13238 l -7.73291,-0.54877 0,5.91295 c 0,3.25212 0.47635,6.20734 1.05855,6.56716 0.5822,0.35982 0.79981,1.84888 0.48358,3.30902 -0.46691,2.1559 0.38936,3.82931 4.55651,8.9048 2.82231,3.4375 5.4998,6.25 5.94999,6.25 0.45019,0 0.96092,-1.2375 1.13495,-2.75 0.52903,-4.59781 4.05343,-4.15544 9.04885,1.13578 4.75798,5.03973 5.05096,5.18261 6.65746,3.2469 z m -18.63865,-11.78144 c -2.83534,-2.83534 4.97369,-11.2862 14.74876,-15.96094 1.375,-0.65757 6.88163,-1.40399 12.23695,-1.65872 8.46898,-0.40283 9.82106,-0.24398 10.38279,1.21985 1.05827,2.75781 -1.07732,3.79695 -9.31307,4.53157 -9.36071,0.83497 -14.92696,3.41741 -19.42185,9.0107 -3.26028,4.05698 -6.39621,5.09491 -8.63358,2.85754 z m 35.74876,-29.85124 c -1.375,-0.44035 -4.3553,-0.8455 -6.62288,-0.90032 -2.26759,-0.0548 -6.23261,-1.03291 -8.81116,-2.17353 -3.85592,-1.70566 -4.47814,-2.32704 -3.50467,-3.5 0.65098,-0.78438 2.45194,-1.42615 4.00214,-1.42615 1.55019,0 3.09665,-0.45 3.43657,-1 0.90364,-1.46213 5.07171,-1.22098 6.39195,0.36981 0.62527,0.7534 4.06237,2.81004 7.638,4.57032 3.57564,1.76028 6.2426,3.61887 5.92659,4.13019 -0.6775,1.09622 -4.92428,1.06091 -8.45654,-0.0703 z m -39.9012,-38.38096 c -2.56292,-3.08813 -0.65194,-4.29534 7.70627,-4.86823 8.0833,-0.55404 18.08626,-4.25282 24.0863,-8.90634 1.8512,-1.43577 2.70578,-1.59377 3.78331,-0.6995 1.16622,0.96788 1.02498,1.54582 -0.87097,3.56397 -6.63985,7.06779 -31.42679,14.86 -34.70491,10.9101 z m -4.79427,-11.11829 c -3.09059,-2.16474 -6.36668,-7.88839 -6.70025,-11.70603 -0.15834,-1.81209 -0.75191,-4.41972 -1.31906,-5.79472 -1.31992,-3.20004 -0.0193,-13.11389 2.12142,-16.17018 2.20467,-3.1476 1.99258,-5.68279 -0.65664,-7.84907 -2.16775,-1.77258 -2.18869,-1.94293 -0.57279,-4.66029 1.59847,-2.68805 3.57703,-4.20347 10.32279,-7.90644 1.65,-0.90574 5.3793,-3.42168 8.28732,-5.59098 4.06171,-3.02992 6.03203,-3.8722 8.5,-3.63362 2.97375,0.28748 3.19304,0.55796 2.94853,3.63682 -0.15344,1.93226 -1.58548,4.97047 -3.41705,7.24961 -1.7341,2.15786 -2.86649,4.20979 -2.51642,4.55986 0.35007,0.35007 2.78337,2.04127 5.40734,3.75823 2.62396,1.71696 5.41755,4.46821 6.20796,6.1139 1.88122,3.91684 2.72903,18.00799 1.19471,19.85674 -0.62909,0.75801 -1.81918,3.57357 -2.64464,6.25681 -2.27914,7.40851 -4.91856,9.88571 -12.53164,11.76141 -8.16518,2.01172 -11.88502,2.04171 -14.63158,0.11795 z m 21.47903,-14.75075 c 0.56565,-0.6875 1.57927,-4.06236 2.25249,-7.4997 2.27759,-11.62891 -2.54693,-20.48221 -11.25958,-20.66204 -4.18605,-0.0864 -4.36633,0.0485 -8.52647,6.37925 -6.24844,9.50866 -5.71734,15.68147 1.12538,13.07987 4.17707,-1.58812 9.03466,0.87589 11.58603,5.87698 2.1954,4.30333 3.14739,4.86118 4.82215,2.82564 z m 49.21644,35.80902 c 0,-1.74279 -1.63967,-2.89975 -2.95633,-2.08601 -1.33094,0.82257 -0.13222,3.52699 1.56332,3.52699 0.76615,0 1.39301,-0.64844 1.39301,-1.44098 z m -1,-10.5 c 0,-1.17986 -1.95035,-2.442 -2.66667,-1.72569 -0.71631,0.71632 0.54583,2.66667 1.72569,2.66667 0.51754,0 0.94098,-0.42344 0.94098,-0.94098 z m 1,-11.25779 c 0,-1.74893 -0.75653,-3.66907 -1.75,-4.44165 -1.64224,-1.27712 -1.60288,-1.48545 0.63938,-3.3834 1.38078,-1.16876 3.14378,-1.78304 4.17659,-1.45524 2.83567,0.90001 8.11307,-1.85951 12.18403,-6.37095 2.95959,-3.27982 3.74115,-4.94555 3.70801,-7.90287 -0.0679,-6.06251 -3.3746,-18.10816 -5.5749,-20.30846 -2.02228,-2.02227 -5.34474,-2.29127 -23.13311,-1.87292 -3.74667,0.0881 -4.39512,2.25104 -1.18923,3.96678 2.81981,1.50912 1.88657,3.46748 -1.6524,3.46748 -2.43571,0 -2.96018,0.45089 -3.22715,2.77444 -0.24655,2.14582 0.49722,3.49688 3.28269,5.96294 2.93704,2.60026 3.49403,3.67763 3.01913,5.83983 -0.43158,1.96499 0.103,3.46581 2.06508,5.79761 l 2.64741,3.14626 -2.30825,1.86911 -2.30825,1.86911 2.65713,3.48368 c 1.46142,1.91602 2.94372,4.78268 3.29401,6.37035 1.06959,4.84795 1.41679,5.53749 2.46277,4.89104 0.55388,-0.34232 1.00706,-2.00874 1.00706,-3.70314 z m -1.40494,-14.10806 c -1.26446,-0.9246 -1.65248,-2.35663 -1.41795,-5.23305 0.29619,-3.63263 0.65115,-4.0673 4.29236,-5.25621 6.76616,-2.20925 6.94185,-5.79469 0.33569,-6.85106 -4.04845,-0.64737 -5.88207,-2.67594 -4.06301,-4.495 1.2859,-1.2859 13.16823,0.85209 15.18137,2.73159 1.21456,1.13394 1.22517,1.95884 0.0723,5.61979 -1.72172,5.46736 -3.69948,7.79077 -6.63177,7.79077 -1.63668,0 -2.50885,0.72869 -2.94312,2.45898 -0.89472,3.56486 -2.70996,4.78139 -4.82588,3.23419 z m -102.15983,-0.19317 c 2.55405,-2.70808 4.09498,-3.5 6.8104,-3.5 6.69311,0 7.06499,-5.03651 0.76339,-10.33896 -3.48101,-2.92908 -6.58813,-4.00217 -10.11658,-3.49392 -1.78927,0.25773 -2.50662,1.23591 -3.17754,4.33288 -1.27322,5.87719 -0.0427,16.5 1.91127,16.5 0.27947,0 1.99355,-1.575 3.80906,-3.5 z m -12.01702,-64.10699 c 1.92866,-0.74009 2.01879,-2.41312 0.25961,-4.81893 -1.25577,-1.71738 -1.45665,-1.68356 -4,0.67354 -1.4728,1.36495 -2.67782,2.99262 -2.67782,3.61705 0,1.21501 3.8112,1.52874 6.41821,0.52834 z m 94.0144,-8.64301 c -0.78013,-2.4998 -2.75881,-4.18963 -3.24746,-2.77339 -0.45398,1.31572 1.69931,5.02339 2.91742,5.02339 0.61182,0 0.74623,-0.91636 0.33004,-2.25 z m -65.93261,-21.75 c 0.33992,-0.55 -0.057,-1 -0.88197,-1 -0.825,0 -1.77811,0.45 -2.11803,1 -0.33992,0.55 0.057,1 0.88197,1 0.825,0 1.77811,-0.45 2.11803,-1 z"
         id="path4363"
         inkscape:connector-curvature="0" />
      <path
         style="fill:#5f6056"
         d="m 366.94233,636.95721 c 0.3904,-1.5125 1.05334,-5 1.4732,-7.75 0.41986,-2.75 2.21091,-8.375 3.98011,-12.5 1.7692,-4.125 3.59249,-8.85 4.05177,-10.5 2.10028,-7.54554 4.92774,-12.53859 10.19868,-18.00999 4.30725,-4.47105 5.43596,-6.22764 4.62756,-7.20171 -0.58806,-0.70856 -1.6263,-1.2883 -2.30721,-1.2883 -0.6809,0 -2.89579,-1.125 -4.92196,-2.5 -2.02618,-1.375 -4.29897,-2.5 -5.05066,-2.5 -1.69186,0 -6.16565,-5.19965 -7.09366,-8.2446 -0.37806,-1.24047 -1.40535,-3.07213 -2.28286,-4.07034 -2.19639,-2.49851 -11.58041,-18.05841 -14.69104,-24.35962 l -2.55446,-5.17456 -6.51853,-0.69807 c -7.90054,-0.84608 -9.39762,-2.52684 -9.36555,-10.51466 0.012,-2.99098 -0.0141,-7.82176 -0.0581,-10.73506 -0.0464,-3.07202 0.60503,-6.64231 1.55082,-8.5 2.50579,-4.92175 5.67312,-15.72856 5.07027,-17.29955 -0.29623,-0.77195 -1.45142,-1.40354 -2.56709,-1.40354 -1.11568,0 -3.75282,-1.55781 -5.8603,-3.46179 -2.99322,-2.70419 -4.41635,-5.23607 -6.50288,-11.56917 -3.10082,-9.4117 -3.31846,-13.6903 -1.0223,-20.09722 2.03881,-5.68882 1.46898,-7.39827 -2.74723,-8.24151 -4.35316,-0.87063 -6.90156,-3.33389 -6.90156,-6.67099 0,-2.96672 -1.23623,-5.72344 -4.79306,-10.68824 -1.26118,-1.76042 -2.47046,-4.6025 -2.68728,-6.31573 -0.21682,-1.71323 -1.12249,-4.22643 -2.01259,-5.5849 -2.0771,-3.17006 -1.18575,-14.99525 1.57559,-20.90255 2.01174,-4.3037 8.45541,-9.75601 15.91734,-13.46845 2.475,-1.23136 6.525,-3.66798 9,-5.41472 2.475,-1.74673 7.875,-4.90331 12,-7.01462 7.27266,-3.72238 7.88411,-3.85376 20.17178,-4.33433 11.71093,-0.45801 12.93612,-0.33221 16.15798,1.65901 2.52145,1.55834 4.96453,2.12486 8.82822,2.04717 11.6172,-0.23359 16.68732,2.40322 11.76305,6.11761 -1.31513,0.992 -2.17287,1.98304 -1.90609,2.20231 1.11375,0.91538 13.91464,3.87822 15.62556,3.61663 2.89665,-0.44288 7.3595,1.02344 7.3595,2.41804 0,0.69214 0.74603,2.32354 1.65784,3.62533 1.59699,2.28002 1.70808,2.29818 3.0269,0.49459 1.06687,-1.45904 1.74939,-1.63657 3.09216,-0.80427 1.99687,1.23772 8.17624,9.99841 11.33318,16.06743 1.19578,2.2988 4.1652,6.45571 6.59872,9.23759 4.36561,4.99055 4.78907,7.02991 1.48218,7.13811 -0.93004,0.0304 -2.72375,1.36358 -3.98603,2.96255 -2.15918,2.73512 -2.20423,3.08284 -0.76096,5.8738 1.55243,3.00208 2.27265,3.3953 8.54601,4.66583 8.57484,1.73665 13.28447,9.90277 14.32315,24.83518 0.4507,6.47941 0.28242,7.19892 -2.80661,12 -3.66303,5.69319 -7.28328,8.22579 -13.09788,9.16281 l -3.90866,0.62987 8.6e-4,10.65732 c 4.7e-4,5.86152 0.40749,11.50052 0.90449,12.5311 0.66042,1.36947 0.46164,2.12114 -0.7386,2.79283 -2.96409,1.65879 -3.96141,4.70779 -2.60838,7.97431 0.97922,2.36403 0.96574,3.44551 -0.067,5.37518 -1.02895,1.92261 -1.04039,2.71991 -0.056,3.906 1.81552,2.18756 0.42527,3.57789 -3.5777,3.57789 -4.39424,0 -4.09482,1.8115 0.7019,4.24652 4.33,2.19809 4.41181,4.15982 0.19045,4.56684 -1.7875,0.17235 -3.25,0.49781 -3.25,0.72325 0,0.22544 1.00107,2.4704 2.22461,4.9888 2.88421,5.93658 1.38418,7.23021 -4.86391,4.19465 -2.37425,-1.1535 -4.61582,-1.79827 -4.98126,-1.43283 -1.00818,1.00817 1.40206,3.44112 4.07315,4.11151 1.8644,0.46794 2.52144,1.50308 3.07723,4.84812 0.38867,2.33923 1.3395,5.48963 2.11295,7.0009 1.23436,2.41186 1.20585,3.05365 -0.23326,5.25 -0.90176,1.37623 -2.2628,2.50224 -3.02454,2.50224 -0.79122,0 -1.38499,1.01821 -1.38499,2.375 0,1.30625 -0.27252,3.73759 -0.60559,5.40297 -0.54013,2.70063 -0.24227,3.20039 2.75526,4.62281 8.63857,4.09927 23.70621,27.05708 29.2713,44.59922 0.95965,3.025 3.28252,8.57334 5.16193,12.32964 1.8794,3.7563 3.4171,7.2438 3.4171,7.75 0,0.5062 -1.60039,0.92036 -3.55641,0.92036 -3.52331,0 -3.6023,-0.0954 -8.48563,-10.25 -2.71106,-5.6375 -4.93568,-11.16149 -4.94358,-12.27554 -0.008,-1.11405 -2.2727,-6.4744 -5.03287,-11.91188 -6.23912,-12.29097 -8.8576,-16.56258 -10.15278,-16.56258 -1.36264,0 -4.44499,3.69475 -6.85469,8.21656 -1.08931,2.04411 -2.76702,4.13746 -3.72823,4.65189 -2.35145,1.25846 -10.78996,15.63202 -12.13063,20.66245 -2.5103,9.41917 -6.47818,9.72453 -10.55822,0.81255 -1.5088,-3.29564 -2.31416,-6.46265 -1.98101,-7.79005 0.3764,-1.4997 -0.23562,-3.19507 -1.85735,-5.14507 -1.3303,-1.59958 -3.83026,-5.83333 -5.55547,-9.40833 -1.7252,-3.575 -3.96992,-7.56263 -4.98826,-8.8614 l -1.85153,-2.3614 -3.69989,3.24855 c -2.03494,1.78671 -4.78074,5.09934 -6.10177,7.3614 -3.58164,6.13303 -11.62601,28.32159 -13.0824,36.08482 -0.60757,3.23864 -0.94872,3.52803 -4.15898,3.52803 -3.32044,0 -3.46126,-0.13893 -2.78731,-2.75 z m 52.52521,-20.5 c 0.01,-0.6875 1.24751,-3.14658 2.75,-5.46462 8.60447,-13.27497 8.01709,-11.15793 7.84793,-28.28538 -0.12946,-13.10918 -0.3816,-15.45288 -1.6346,-15.19453 -0.81484,0.16801 -2.2953,1.39005 -3.28991,2.71564 -1.00623,1.34109 -3.33496,2.69656 -5.25,3.05582 -2.51741,0.47227 -3.44162,1.16655 -3.44162,2.58539 0,1.25608 -1.18377,2.43434 -3.35869,3.34308 l -3.3587,1.40336 -0.52765,9.25426 c -0.39051,6.849 -0.17466,9.79299 0.83048,11.32703 0.74697,1.14003 2.26048,4.89737 3.36335,8.34964 1.10287,3.45228 2.26712,6.70064 2.58723,7.21859 0.85295,1.3801 3.46096,1.14921 3.48218,-0.30828 z m 23.7318,-28.73635 c 1.90792,-0.0208 1.49405,-2.12497 -0.92431,-4.6992 -3.29263,-3.50484 -5.82569,-3.06182 -5.82569,1.01888 0,4.00397 0.78462,4.96104 3.47457,4.23823 1.11399,-0.29934 2.58793,-0.5504 3.27543,-0.55791 z m -40.06689,-5.20115 c -0.31922,-0.79773 -0.55618,-0.56078 -0.60416,0.60417 -0.0434,1.05416 0.19292,1.64479 0.52522,1.3125 0.33229,-0.3323 0.36781,-1.1948 0.0789,-1.91667 z m -2.79322,-13.17982 c 0.86313,-1.04001 0.77275,-1.66778 -0.37756,-2.62245 -2.22012,-1.84253 -1.84581,-3.93294 0.89053,-4.9733 1.32157,-0.50246 2.69813,-1.39132 3.05902,-1.97525 0.84829,-1.37256 11.07574,-1.3795 13.63607,-0.009 1.74895,0.93601 1.90049,0.78954 1.36997,-1.3242 -0.73725,-2.93746 1.60755,-5.15643 4.48409,-4.24345 2.39194,0.75917 2.71139,-0.68931 0.54799,-2.48477 -2.01672,-1.67373 -1.96932,-6 0.0657,-6 0.86116,0 2.43616,0.46583 3.5,1.03518 1.46343,0.78321 1.93426,0.71018 1.93426,-0.3 0,-0.73435 -0.38272,-1.76268 -0.85048,-2.28518 -0.46776,-0.5225 -0.647,-2.8467 -0.39831,-5.16489 0.32332,-3.01384 0.99309,-4.38657 2.35048,-4.81738 1.04407,-0.33138 1.89663,-1.13468 1.89457,-1.78512 -0.005,-1.72012 -3.80462,-7.68287 -4.89501,-7.68287 -1.20993,0 -7.10121,-8.0156 -7.10121,-9.66182 0,-0.6973 0.91756,-1.75887 2.03902,-2.35906 1.67582,-0.89688 2.58009,-0.63596 5.07672,1.46482 5.3076,4.46605 6.36157,3.19438 2.30287,-2.77852 -1.41976,-2.08937 -2.33388,-4.44383 -2.03138,-5.23214 0.70339,-1.83301 3.56168,-1.7865 6.0539,0.0985 2.03781,1.54132 5.57843,2.00104 5.53134,0.7182 -0.0151,-0.4125 -1.64689,-1.875 -3.62611,-3.25 -4.90033,-3.40435 -10.34377,-9.19517 -9.66935,-10.2864 0.30362,-0.49127 2.0755,-0.60741 3.93751,-0.25809 4.2752,0.80203 4.31881,-0.0797 0.45039,-9.10655 -2.48245,-5.79271 -2.74284,-7.1574 -1.68844,-8.84896 0.89442,-1.4349 0.96551,-2.76935 0.2516,-4.72287 -0.71368,-1.95289 -0.63744,-3.3911 0.26962,-5.08595 1.10794,-2.07022 0.94478,-2.8345 -1.3165,-6.16668 -1.41966,-2.09198 -2.58938,-4.9783 -2.59939,-6.41405 -0.01,-1.43575 -1.36001,-4.59067 -3,-7.01093 -3.56861,-5.26648 -3.73147,-7.35144 -0.7318,-9.36866 l 2.25,-1.51307 -2.05916,-2.3589 c -1.13253,-1.29739 -2.61545,-3.66237 -3.29536,-5.2555 -1.46257,-3.42703 -4.07548,-6.99356 -9.98546,-13.62985 -2.38699,-2.68034 -4.04793,-5.34589 -3.69098,-5.92344 0.83147,-1.34536 5.09511,-1.35373 7.5967,-0.0149 1.76619,0.94523 1.93426,0.67884 1.93426,-3.06574 0,-2.25551 0.47215,-4.98316 1.04923,-6.06144 0.81491,-1.52266 0.56069,-2.82975 -1.13829,-5.85268 -2.44961,-4.35846 -2.01993,-7.0553 1.1241,-7.0553 1.69537,0 2.0371,-0.52369 1.78138,-2.72984 -0.28348,-2.44565 -0.99311,-2.91058 -6.81642,-4.46597 -7.27712,-1.9437 -9,-1.742 -9,1.05364 0,1.05633 -0.82991,2.9455 -1.84424,4.19814 -1.84507,2.27857 -2.87306,2.23233 -6.39489,-0.28763 -1.46551,-1.04862 -1.98575,-0.89229 -3.3067,0.99363 -1.45865,2.08251 -2.31823,2.23803 -12.37011,2.23803 -10.01422,0 -11.20073,0.21249 -16.25935,2.91192 -3.00125,1.60156 -7.22709,3.39018 -9.39076,3.97471 -2.16367,0.58453 -6.22287,2.78493 -9.02045,4.88977 -2.79757,2.10485 -7.15457,4.6168 -9.68221,5.58212 -3.52444,1.346 -5.32303,2.88853 -7.71583,6.61738 -2.72858,4.25213 -3.08216,5.59157 -2.81778,10.67439 l 0.30232,5.81214 6.5,1.11991 c 3.575,0.61596 8.87916,2.08691 11.78702,3.26879 2.90786,1.18188 6.40948,2.14887 7.78139,2.14887 1.3719,0 2.73989,0.63984 3.03998,1.42186 0.82346,2.14591 -1.41843,5.57814 -3.64357,5.57814 -1.08065,0 -1.96482,0.26514 -1.96482,0.5892 0,1.54086 9.70245,9.82553 11.21659,9.57755 2.82137,-0.46209 3.07126,3.80917 0.72452,12.38385 -1.19659,4.37217 -2.54254,9.2994 -2.99101,10.9494 -0.84522,3.10975 -1.98806,6.44809 -7.70257,22.5 -4.73639,13.3044 -5.30492,15.88468 -4.62706,21 0.74076,5.58994 2.80287,9 5.44242,9 2.49883,0 9.11601,-3.30571 10.88578,-5.43815 0.72318,-0.87139 4.42848,-2.53006 8.234,-3.68595 4.56348,-1.38612 7.42907,-2.8799 8.41697,-4.38763 1.49728,-2.28513 7.00723,-5.21473 7.97938,-4.24258 0.28319,0.28319 -0.85526,2.54508 -2.5299,5.02642 -2.37289,3.51596 -4.57069,5.22746 -9.95953,7.75581 -3.90807,1.83361 -7.85745,4.5194 -9.08282,6.17679 -3.42809,4.63674 -1.0168,7.63017 3.43436,4.26349 2.42132,-1.8314 4.3137,-1.84464 7.74548,-0.0542 3.29675,1.71997 10.65138,2.45028 11.0338,1.09565 0.15377,-0.54471 -1.88225,-1.38533 -4.52449,-1.86806 -4.11679,-0.75211 -4.76058,-1.18268 -4.5,-3.00962 0.2096,-1.46955 1.13577,-2.22806 2.9809,-2.4413 1.47225,-0.17015 3.21485,-0.95765 3.87245,-1.75 0.65759,-0.79235 2.15302,-1.43409 3.32317,-1.42609 2.55221,0.0175 10.62093,2.73506 12.32872,4.1524 0.67401,0.55937 2.61034,0.70391 4.34021,0.32396 2.85937,-0.62802 3.09521,-0.48761 2.79096,1.66155 -0.2509,1.77233 -1.06741,2.4293 -3.33233,2.6812 -1.65,0.18352 -3.75007,1.00689 -4.66681,1.82971 -1.34093,1.20354 -2.09938,1.26454 -3.87924,0.31199 -1.93081,-1.03335 -2.48452,-0.8428 -4.35027,1.49707 -2.06953,2.59544 -2.38499,2.66359 -9.87077,2.13238 l -7.73291,-0.54877 0,5.91295 c 0,3.25212 0.47635,6.20734 1.05855,6.56716 0.5822,0.35982 0.79981,1.84888 0.48358,3.30902 -0.46691,2.1559 0.38936,3.82931 4.55651,8.9048 2.82231,3.4375 5.4998,6.25 5.94999,6.25 0.45019,0 0.96092,-1.2375 1.13495,-2.75 0.52903,-4.59781 4.05343,-4.15544 9.04885,1.13578 4.75798,5.03973 5.05096,5.18261 6.65746,3.2469 z m -18.63865,-11.78144 c -2.83534,-2.83534 4.97369,-11.2862 14.74876,-15.96094 1.375,-0.65757 6.88163,-1.40399 12.23695,-1.65872 8.46898,-0.40283 9.82106,-0.24398 10.38279,1.21985 1.05827,2.75781 -1.07732,3.79695 -9.31307,4.53157 -9.36071,0.83497 -14.92696,3.41741 -19.42185,9.0107 -3.26028,4.05698 -6.39621,5.09491 -8.63358,2.85754 z m 35.74876,-29.85124 c -1.375,-0.44035 -4.3553,-0.8455 -6.62288,-0.90032 -2.26759,-0.0548 -6.23261,-1.03291 -8.81116,-2.17353 -3.85592,-1.70566 -4.47814,-2.32704 -3.50467,-3.5 0.65098,-0.78438 2.45194,-1.42615 4.00214,-1.42615 1.55019,0 3.09665,-0.45 3.43657,-1 0.90364,-1.46213 5.07171,-1.22098 6.39195,0.36981 0.62527,0.7534 4.06237,2.81004 7.638,4.57032 3.57564,1.76028 6.2426,3.61887 5.92659,4.13019 -0.6775,1.09622 -4.92428,1.06091 -8.45654,-0.0703 z m -39.9012,-38.38096 c -2.56292,-3.08813 -0.65194,-4.29534 7.70627,-4.86823 8.0833,-0.55404 18.08626,-4.25282 24.0863,-8.90634 1.8512,-1.43577 2.70578,-1.59377 3.78331,-0.6995 1.16622,0.96788 1.02498,1.54582 -0.87097,3.56397 -6.63985,7.06779 -31.42679,14.86 -34.70491,10.9101 z m -4.79427,-11.11829 c -3.09059,-2.16474 -6.36668,-7.88839 -6.70025,-11.70603 -0.15834,-1.81209 -0.75191,-4.41972 -1.31906,-5.79472 -1.31992,-3.20004 -0.0193,-13.11389 2.12142,-16.17018 2.20467,-3.1476 1.99258,-5.68279 -0.65664,-7.84907 -2.16775,-1.77258 -2.18869,-1.94293 -0.57279,-4.66029 1.59847,-2.68805 3.57703,-4.20347 10.32279,-7.90644 1.65,-0.90574 5.3793,-3.42168 8.28732,-5.59098 4.06171,-3.02992 6.03203,-3.8722 8.5,-3.63362 2.97375,0.28748 3.19304,0.55796 2.94853,3.63682 -0.15344,1.93226 -1.58548,4.97047 -3.41705,7.24961 -1.7341,2.15786 -2.86649,4.20979 -2.51642,4.55986 0.35007,0.35007 2.78337,2.04127 5.40734,3.75823 2.62396,1.71696 5.41755,4.46821 6.20796,6.1139 1.88122,3.91684 2.72903,18.00799 1.19471,19.85674 -0.62909,0.75801 -1.81918,3.57357 -2.64464,6.25681 -2.27914,7.40851 -4.91856,9.88571 -12.53164,11.76141 -8.16518,2.01172 -11.88502,2.04171 -14.63158,0.11795 z m 21.47903,-14.75075 c 0.56565,-0.6875 1.57927,-4.06236 2.25249,-7.4997 2.27759,-11.62891 -2.54693,-20.48221 -11.25958,-20.66204 -4.18605,-0.0864 -4.36633,0.0485 -8.52647,6.37925 -6.24844,9.50866 -5.71734,15.68147 1.12538,13.07987 4.17707,-1.58812 9.03466,0.87589 11.58603,5.87698 2.1954,4.30333 3.14739,4.86118 4.82215,2.82564 z m 49.21644,35.80902 c 0,-1.74279 -1.63967,-2.89975 -2.95633,-2.08601 -1.33094,0.82257 -0.13222,3.52699 1.56332,3.52699 0.76615,0 1.39301,-0.64844 1.39301,-1.44098 z m -1,-10.5 c 0,-1.17986 -1.95035,-2.442 -2.66667,-1.72569 -0.71631,0.71632 0.54583,2.66667 1.72569,2.66667 0.51754,0 0.94098,-0.42344 0.94098,-0.94098 z m 1,-11.25779 c 0,-1.74893 -0.75653,-3.66907 -1.75,-4.44165 -1.64224,-1.27712 -1.60288,-1.48545 0.63938,-3.3834 1.38078,-1.16876 3.14378,-1.78304 4.17659,-1.45524 2.83567,0.90001 8.11307,-1.85951 12.18403,-6.37095 2.95959,-3.27982 3.74115,-4.94555 3.70801,-7.90287 -0.0679,-6.06251 -3.3746,-18.10816 -5.5749,-20.30846 -2.02228,-2.02227 -5.34474,-2.29127 -23.13311,-1.87292 -3.74667,0.0881 -4.39512,2.25104 -1.18923,3.96678 2.81981,1.50912 1.88657,3.46748 -1.6524,3.46748 -2.43571,0 -2.96018,0.45089 -3.22715,2.77444 -0.24655,2.14582 0.49722,3.49688 3.28269,5.96294 2.93704,2.60026 3.49403,3.67763 3.01913,5.83983 -0.43158,1.96499 0.103,3.46581 2.06508,5.79761 l 2.64741,3.14626 -2.30825,1.86911 -2.30825,1.86911 2.65713,3.48368 c 1.46142,1.91602 2.94372,4.78268 3.29401,6.37035 1.06959,4.84795 1.41679,5.53749 2.46277,4.89104 0.55388,-0.34232 1.00706,-2.00874 1.00706,-3.70314 z m -1.40494,-14.10806 c -1.26446,-0.9246 -1.65248,-2.35663 -1.41795,-5.23305 0.29619,-3.63263 0.65115,-4.0673 4.29236,-5.25621 6.76616,-2.20925 6.94185,-5.79469 0.33569,-6.85106 -4.04845,-0.64737 -5.88207,-2.67594 -4.06301,-4.495 1.2859,-1.2859 13.16823,0.85209 15.18137,2.73159 1.21456,1.13394 1.22517,1.95884 0.0723,5.61979 -1.72172,5.46736 -3.69948,7.79077 -6.63177,7.79077 -1.63668,0 -2.50885,0.72869 -2.94312,2.45898 -0.89472,3.56486 -2.70996,4.78139 -4.82588,3.23419 z m -102.15983,-0.19317 c 2.55405,-2.70808 4.09498,-3.5 6.8104,-3.5 6.69311,0 7.06499,-5.03651 0.76339,-10.33896 -3.48101,-2.92908 -6.58813,-4.00217 -10.11658,-3.49392 -1.78927,0.25773 -2.50662,1.23591 -3.17754,4.33288 -1.27322,5.87719 -0.0427,16.5 1.91127,16.5 0.27947,0 1.99355,-1.575 3.80906,-3.5 z m -12.01702,-64.10699 c 1.92866,-0.74009 2.01879,-2.41312 0.25961,-4.81893 -1.25577,-1.71738 -1.45665,-1.68356 -4,0.67354 -1.4728,1.36495 -2.67782,2.99262 -2.67782,3.61705 0,1.21501 3.8112,1.52874 6.41821,0.52834 z m 94.0144,-8.64301 c -0.78013,-2.4998 -2.75881,-4.18963 -3.24746,-2.77339 -0.45398,1.31572 1.69931,5.02339 2.91742,5.02339 0.61182,0 0.74623,-0.91636 0.33004,-2.25 z m -65.93261,-21.75 c 0.33992,-0.55 -0.057,-1 -0.88197,-1 -0.825,0 -1.77811,0.45 -2.11803,1 -0.33992,0.55 0.057,1 0.88197,1 0.825,0 1.77811,-0.45 2.11803,-1 z"
         id="path4361"
         inkscape:connector-curvature="0" />
      <path
         style="fill:#0f0e0e"
         d="m 366.44934,638.8539 c 0,-0.53901 0.44382,-1.13002 0.98626,-1.31336 0.54245,-0.18333 1.26009,-2.58333 1.59477,-5.33333 0.6376,-5.2391 3.38574,-13.47701 6.55056,-19.63615 1.02763,-1.99989 1.88368,-4.47489 1.90234,-5.5 0.0187,-1.02512 0.90339,-3.66385 1.96607,-5.86385 1.06268,-2.2 1.94825,-4.45 1.96794,-5 0.0197,-0.55 2.72159,-3.7 6.00421,-7 3.28262,-3.3 5.98178,-6.56144 5.99813,-7.24763 0.0163,-0.6862 -2.10778,-2.31948 -4.72028,-3.62952 -2.6125,-1.31003 -6.58117,-3.3073 -8.81928,-4.43838 -2.9167,-1.47403 -4.60705,-3.24909 -5.96794,-6.26701 -1.04427,-2.31577 -2.37829,-4.70706 -2.96449,-5.31397 -0.5862,-0.60692 -2.35988,-3.35349 -3.94152,-6.10349 -1.58163,-2.75 -4.76146,-7.925 -7.0663,-11.5 -2.30483,-3.575 -4.63072,-7.85 -5.16865,-9.5 -0.90741,-2.78334 -1.46591,-3.07222 -7.73328,-4 -4.70646,-0.69671 -7.1818,-1.5845 -8.16171,-2.92721 -1.96708,-2.69538 -1.43108,-23.35705 0.69301,-26.71364 2.03172,-3.21063 5.17605,-14.08421 4.735,-16.37438 -0.22222,-1.15393 -1.68411,-2.19653 -3.85637,-2.75033 -3.99098,-1.01747 -8.99847,-5.32014 -8.99847,-7.73192 0,-0.89281 -1.15734,-4.52112 -2.57187,-8.06291 -2.03025,-5.08346 -2.46515,-7.55978 -2.06512,-11.75868 0.27871,-2.92548 1.01675,-5.93359 1.6401,-6.68467 0.62334,-0.75109 0.99015,-2.8386 0.81512,-4.63893 -0.28082,-2.88853 -0.78868,-3.3958 -4.32027,-4.31532 -5.57257,-1.45093 -6.49796,-2.24189 -6.49796,-5.55397 0,-3.54207 -1.67532,-7.56574 -4.71107,-11.31477 -1.25891,-1.55469 -2.28893,-4.08151 -2.28893,-5.61514 0,-1.53363 -0.89313,-3.92384 -1.98473,-5.31159 -1.89811,-2.41305 -1.9253,-2.95262 -0.62305,-12.36185 1.34759,-9.73683 1.40695,-9.87884 5.73473,-13.72064 2.40518,-2.13509 6.62305,-5.02024 9.37305,-6.41145 2.75,-1.39121 7.475,-4.2061 10.5,-6.25532 3.025,-2.04921 8.875,-5.42795 13,-7.5083 7.10193,-3.5817 8.11037,-3.80658 19,-4.23686 10.69712,-0.42268 11.87283,-0.27949 16.8402,2.05106 4.21351,1.97687 5.98105,2.32168 8.37772,1.63432 1.83233,-0.5255 3.75431,-0.48754 4.84407,0.0957 0.99359,0.53176 2.88611,0.96683 4.2056,0.96683 3.6414,0 3.96356,1.05644 1.12454,3.68755 -4.47519,4.14747 -1.9684,5.3563 14.39409,6.94117 5.92663,0.57405 6.36411,0.79531 7.64796,3.868 1.78422,4.27022 3.20825,5.0326 6.3048,3.37538 2.26967,-1.21469 2.66925,-1.16016 3.65465,0.49868 1.12228,1.88927 5.27447,8.37918 12.13775,18.9714 2.082,3.21319 4.38917,6.07384 5.12704,6.35698 2.03729,0.78179 1.60259,2.30084 -0.65842,2.30084 -1.1,0 -2,0.60526 -2,1.34501 0,0.73976 -0.9,2.1595 -2,3.15499 -2.65917,2.40652 -2.52168,4.72657 0.49239,8.30859 1.80732,2.14788 3.73008,3.14764 6.99525,3.63729 2.52612,0.37881 5.79025,1.75851 7.43545,3.14286 3.69998,3.11333 6.903,12.57235 7.25224,21.41699 0.23219,5.88048 -0.0468,6.94707 -2.90262,11.0979 -4.036,5.86613 -7.24277,7.93065 -12.82194,8.2548 -4.90267,0.28484 -7.93024,2.13661 -5.20382,3.18284 1.34335,0.51549 1.50821,2.12293 1.09529,10.67931 -0.36418,7.54617 -0.16427,10.27138 0.79706,10.86551 0.95446,0.58989 0.56145,1.4619 -1.53415,3.40404 -2.17253,2.01343 -2.69477,3.22879 -2.28187,5.31043 1.3059,6.58383 1.28396,6.71435 -1.07328,6.38658 -2.93602,-0.40825 -2.85022,0.90036 0.25,3.81286 3.09871,2.91109 3.17995,4.19821 0.25,3.96087 -4.92451,-0.39889 -5.89696,-0.0141 -5.56955,2.20384 0.18616,1.26112 1.66669,2.82644 3.54684,3.75 3.84275,1.88761 4.31412,3.56348 0.75075,2.66913 -3.48648,-0.87505 -4.2492,1.64203 -1.896,6.25705 1.02618,2.01251 2.02752,3.99661 2.22521,4.40911 0.643,1.34176 -2.08484,0.79403 -6.36524,-1.27807 -3.49016,-1.68956 -4.28654,-2.62643 -4.77117,-5.61288 -0.41064,-2.5305 -2.21241,-5.2944 -6.12629,-9.39769 -5.90266,-6.18833 -6.32108,-7.072 -4.18718,-8.84299 1.04831,-0.87002 2.21807,-0.44252 5.13751,1.87756 2.07907,1.65224 4.16825,3.00407 4.64262,3.00407 1.65324,0 0.84487,-3.56168 -1.6375,-7.21481 -1.375,-2.0235 -2.5,-4.15296 -2.5,-4.73214 0,-1.58475 3.57938,-1.26479 5,0.44695 1.55942,1.87898 9.36266,2.10169 8.75949,0.25 -0.22395,-0.6875 -1.49895,-1.80575 -2.83333,-2.485 -3.94486,-2.00806 -12.49338,-10.0062 -11.63068,-10.88186 0.43751,-0.44409 1.69332,-0.24672 2.79068,0.43859 2.31665,1.44678 3.91419,0.78101 3.91303,-1.63075 -9.3e-4,-1.91276 -3.19843,-10.72355 -4.28655,-11.81168 -1.0677,-1.0677 -0.85824,-4.8337 0.33523,-6.02717 0.7305,-0.7305 0.68811,-1.83749 -0.13998,-3.65494 -0.92791,-2.03655 -0.91064,-3.27634 0.0789,-5.66539 1.14894,-2.7738 1.02242,-3.41095 -1.36002,-6.84881 -1.44474,-2.08477 -2.62681,-5.1737 -2.62681,-6.8643 0,-1.69059 -0.70467,-3.65863 -1.56594,-4.37341 -1.89913,-1.57617 -4.43402,-6.30916 -4.43402,-8.27899 0,-0.78816 0.9,-1.66838 2,-1.95604 2.70509,-0.7074 2.51645,-3.30777 -0.5,-6.89262 -1.375,-1.63409 -2.5,-3.53311 -2.5,-4.22004 0,-0.68693 -1.125,-2.30585 -2.5,-3.59759 -1.375,-1.29175 -2.5,-2.83289 -2.5,-3.42476 0,-0.59187 -1.8,-3.0453 -4,-5.45206 -2.2,-2.40677 -4,-4.76907 -4,-5.24956 0,-1.69583 4.57837,-0.84694 6.3044,1.16893 2.53999,2.96649 3.73591,1.53067 3.02784,-3.63523 -0.38583,-2.81494 -0.15394,-5.37196 0.61797,-6.81428 1.04425,-1.95121 0.90566,-2.95523 -0.89516,-6.48513 -2.02626,-3.9718 -2.03385,-6.10791 -0.0217,-6.10791 0.50341,0 1.65449,1.4625 2.55795,3.25 2.07294,4.10132 5.45248,7.84098 6.50056,7.19323 1.11416,-0.68859 -1.75842,-8.45325 -4.03799,-10.91476 -1.03319,-1.11566 -2.03048,-3.1225 -2.2162,-4.45964 -0.2954,-2.12687 -1.27458,-2.6609 -7.82322,-4.2666 -8.39357,-2.05806 -10.01444,-1.84156 -10.01444,1.33764 0,1.21146 -0.73545,3.01531 -1.63434,4.00857 -1.55571,1.71905 -1.776,1.72283 -4.57931,0.0787 -2.86386,-1.6796 -2.99542,-1.6652 -4.77596,0.52282 -1.68525,2.07092 -2.65616,2.25 -12.19889,2.25 -9.79129,0 -10.77411,0.19466 -17.6712,3.5 -4.0168,1.925 -7.88928,3.5 -8.60552,3.5 -0.71623,0 -4.16706,1.94505 -7.66851,4.32233 -3.50145,2.37729 -8.16627,5.01612 -10.36627,5.86407 -2.57679,0.99319 -5.34089,3.28016 -7.76864,6.42767 -3.6261,4.70112 -3.75849,5.14961 -3.5,11.85689 l 0.26864,6.97097 7,1.11803 c 3.85,0.61492 9.37916,2.09049 12.28702,3.27904 2.90786,1.18855 6.39536,2.161 7.75,2.161 4.23751,0 2.60664,4.29165 -1.95415,5.14239 -3.21636,0.59996 -2.8612,2.52247 0.89482,4.84382 1.96394,1.21378 4.25829,3.53633 5.09855,5.16122 1.15519,2.23388 2.004,2.80319 3.48068,2.3345 3.83056,-1.21577 3.62844,1.56176 -1.42036,19.51807 -1.62987,5.79672 -2.89801,9.57588 -8.38903,25 -4.73439,13.29878 -5.28396,15.84687 -4.59066,21.28479 0.69171,5.42553 3.54212,9.71521 6.45555,9.71521 2.45772,0 9.08196,-3.32437 10.83625,-5.43815 0.72318,-0.87139 4.43093,-2.53081 8.23944,-3.6876 4.7201,-1.43369 7.84668,-3.08994 9.82109,-5.20256 1.5931,-1.70461 3.17593,-2.81989 3.51741,-2.47842 1.15979,1.15979 -2.34304,6.37131 -5.1913,7.72362 -13.70116,6.50514 -17.23854,9.66193 -15.82332,14.12088 0.76489,2.40997 2.42657,2.47839 6.29339,0.25914 2.81285,-1.61435 3.1818,-1.60644 7.08104,0.15187 3.92191,1.76854 6.021,4.50755 2.36358,3.08412 -1.97998,-0.77059 -2.25991,-0.81617 -4,-0.65132 -1.54033,0.14592 -1.76835,13.68003 -0.24633,14.62069 0.55202,0.34116 0.72641,1.72499 0.38754,3.07518 -0.48455,1.93059 0.26434,3.46586 3.50663,7.18871 2.26752,2.60361 4.79313,5.52134 5.61246,6.48384 0.81934,0.9625 2.36192,1.75 3.42796,1.75 1.48731,0 1.89447,-0.63069 1.75,-2.71081 -0.36046,-5.19034 4.18658,-3.34963 10.10117,4.08911 1.62224,2.04028 2.64715,2.04226 4.68035,0.009 1.43377,-1.43376 1.44917,-1.86211 0.13891,-3.86183 -1.37424,-2.09735 -1.2785,-2.39353 1.4183,-4.38736 3.89842,-2.88223 11.56037,-2.9042 16.4029,-0.047 l 3.54422,2.09113 -1.41803,-3.39381 c -1.86552,-4.46481 -0.61739,-6.90868 2.53131,-4.95636 3.35581,2.08075 4.87193,-0.18205 2.09937,-3.13331 -1.97654,-2.1039 -3.00924,-5.69876 -1.6371,-5.69876 0.30231,0 1.8854,0.69074 3.51797,1.53497 2.69034,1.39123 3.02587,1.38494 3.58312,-0.0672 0.33815,-0.8812 0.10506,-2.11194 -0.51797,-2.73497 -1.33367,-1.33369 -1.54181,-9.7328 -0.24119,-9.7328 0.49038,0 1.17719,1.13791 1.52626,2.5287 0.38812,1.54642 1.95139,3.1566 4.02434,4.14512 2.65772,1.26738 3.52457,2.39486 4.01437,5.2213 0.34357,1.98269 1.09409,4.80155 1.6678,6.26415 1.40023,3.56969 -0.34966,6.84073 -3.65954,6.84073 -2.51017,0 -3.29427,1.36934 -1.44022,2.5152 0.62162,0.38419 0.77093,2.54549 0.37962,5.4953 -0.63878,4.81536 -0.61182,4.87592 2.80629,6.3041 3.24891,1.35748 11.80183,9.44684 12.7005,12.01215 0.22606,0.64529 2.13856,3.51654 4.25,6.38055 2.11144,2.86402 3.83899,5.72474 3.83899,6.35717 0,0.63243 1.52478,4.13915 3.38839,7.7927 1.86361,3.65356 4.16181,9.11783 5.10711,12.14283 2.0661,6.61166 7.56848,18 8.69685,18 0.44421,0 0.80765,0.45 0.80765,1 0,0.55 -1.53192,1 -3.40426,1 -3.1919,0 -3.62166,-0.42106 -6.88946,-6.75 -1.91685,-3.7125 -4.40285,-9.73102 -5.52443,-13.37448 -5.20604,-16.91183 -20.96272,-41.32479 -25.53865,-39.56885 -1.4087,0.54057 -1.60982,1.38148 -1.05962,4.43027 0.92667,5.13492 1.11612,5.32773 4.11466,4.18769 4.11266,-1.56363 4.66938,0.33777 1.32943,4.54055 -1.66522,2.09541 -3.02767,4.41258 -3.02767,5.14927 0,0.73669 -1.11194,2.06802 -2.47099,2.9585 -3.28465,2.15218 -9.98134,12.89 -12.89075,20.66966 -1.93483,5.17371 -2.73671,6.25739 -4.63019,6.25739 -1.25956,0 -2.64811,-0.675 -3.08567,-1.5 -2.75672,-5.19761 -3.9224,-8.75768 -3.9224,-11.97932 0,-2.58959 -0.71202,-4.34096 -2.41539,-5.9412 -1.32847,-1.24802 -2.70586,-3.46397 -3.06087,-4.92431 -0.35501,-1.46034 -1.76064,-4.35955 -3.12362,-6.44268 -1.36298,-2.08313 -2.89945,-4.89563 -3.41438,-6.25 -0.51493,-1.35437 -1.39608,-2.46249 -1.95811,-2.46249 -1.892,0 -9.154,7.32873 -11.3277,11.43179 -3.58155,6.7605 -14.0746,36.94792 -13.40619,38.56821 0.11344,0.275 -1.25624,0.64101 -3.04374,0.81336 -1.7875,0.17235 -3.25,-0.12765 -3.25,-0.66667 z m 54.49425,-23.39669 c 1.77342,-3.78914 4.87488,-9.00299 7.88175,-13.25 1.94365,-2.74527 2.13308,-4.38713 2.23094,-19.33628 0.0904,-13.80936 -0.12979,-16.42712 -1.42344,-16.92355 -0.96279,-0.36945 -2.50504,0.58024 -4.15836,2.56066 -1.69936,2.03555 -4.02328,3.44139 -6.57657,3.97844 -3.19118,0.67122 -3.8936,1.22182 -3.662,2.87048 0.21829,1.55383 -0.49662,2.26389 -3,2.97966 l -3.28657,0.93971 -0.64524,9.86354 c -0.5644,8.6277 -0.40825,10.25218 1.24626,12.96544 1.04033,1.70604 1.89319,3.64752 1.89524,4.31439 0.002,0.66687 0.93607,3.70437 2.07559,6.75 2.47014,6.60204 5.03336,7.392 7.4224,2.28751 z M 405.07505,584.2402 c 0.67144,-1.74974 -0.93397,-7.03299 -2.1371,-7.03299 -1.07508,0 -2.62983,5.59348 -2.01519,7.25 0.63886,1.72177 3.46499,1.57407 4.15229,-0.21701 z m -24.62571,-13.97397 c 0,-0.24254 -0.45,-0.7191 -1,-1.05902 -0.55,-0.33992 -1,-0.14148 -1,0.44098 0,0.58246 0.45,1.05902 1,1.05902 0.55,0 1,-0.19844 1,-0.44098 z m 32,-7 c 0,-0.24254 -0.45,-0.7191 -1,-1.05902 -0.55,-0.33992 -1,-0.14148 -1,0.44098 0,0.58246 0.45,1.05902 1,1.05902 0.55,0 1,-0.19844 1,-0.44098 z m 31.83749,-63.52426 c 0.51804,-3.5436 -4.25545,-5.7151 -5.49016,-2.49751 -0.67057,1.74749 2.45057,5.69419 4.07968,5.15875 0.59014,-0.19396 1.22486,-1.39152 1.41048,-2.66124 z m -0.83749,-10.43879 c 0,-1.83884 -3.67368,-4.91568 -4.93699,-4.13491 -1.53697,0.9499 -1.32479,1.88083 0.9966,4.37255 2.08219,2.23497 3.94039,2.12291 3.94039,-0.23764 z m 1,-10.60954 c 0,-2.20746 -0.54547,-4.887 -1.21215,-5.95452 -1.58308,-2.53492 -0.71368,-3.26338 4.22747,-3.54218 7.45191,-0.42046 16.02201,-8.71712 15.94269,-15.43401 -0.0777,-6.57744 -3.40595,-17.9582 -6.01477,-20.56703 -2.11277,-2.11277 -3.58365,-2.51909 -10.26214,-2.83486 -4.28773,-0.20273 -8.31005,-0.88278 -8.93849,-1.51122 -1.70258,-1.70258 -2.74261,-1.38693 -2.74261,0.83239 0,1.64262 -0.48447,1.87811 -2.87872,1.39926 -4.14698,-0.8294 -5.08381,1.40106 -1.78152,4.24156 3.44396,2.96238 3.35309,3.4459 -0.58976,3.13799 -3.00791,-0.2349 -3.27364,-0.008 -3.56734,3.04963 -0.26179,2.72505 0.31636,3.88391 3.30201,6.61866 2.86951,2.62837 3.49329,3.81753 3.01082,5.73983 -0.41126,1.6386 0.0582,3.2722 1.44799,5.03908 2.16574,2.7533 2.66172,4.79899 1.16351,4.79899 -2.21651,0 -1.80161,3.41208 0.94072,7.73628 1.64559,2.59483 2.74721,5.35577 2.44803,6.13542 -0.63227,1.64767 2.19066,5.1283 4.15925,5.1283 0.90327,0 1.34501,-1.31817 1.34501,-4.01357 z m -2.33333,-16.6531 c -1.10484,-1.10483 -0.75007,-5.84993 0.53333,-7.13333 0.66,-0.66 2.22463,-1.2 3.47695,-1.2 1.32647,0 2.9621,-1.04567 3.91829,-2.50501 2.07251,-3.16305 0.68884,-5.16347 -4.20677,-6.08189 -3.68871,-0.69201 -5.31348,-2.15281 -3.20185,-2.87873 2.50843,-0.86233 13.28798,1.97598 13.59691,3.58013 0.1626,0.84427 -0.60619,3.63889 -1.70842,6.21027 -1.56903,3.66041 -2.51099,4.67523 -4.33957,4.67523 -2.79032,0 -4.73554,1.72523 -4.73554,4.2 0,1.76454 -2.01651,2.45016 -3.33333,1.13333 z m -5.66667,16.10765 c 0,-0.79254 -0.675,-1.44098 -1.5,-1.44098 -1.50623,0 -2.05568,2.11099 -0.86052,3.30615 0.93324,0.93324 2.36052,-0.19452 2.36052,-1.86517 z m -95.5678,-12.94098 c 2.13527,-2.79948 3.3553,-3.5 6.09564,-3.5 4.32453,0 7.02798,-3.43523 5.59937,-7.11502 -1.89795,-4.88868 -8.94333,-9.88498 -13.93902,-9.88498 -4.64336,0 -5.68819,2.20421 -5.68819,12 0,12.27474 2.78048,15.25426 7.9322,8.5 z m 101.5678,-40.03518 c 0,-1.89514 -2.90871,-6.46482 -4.11501,-6.46482 -0.48674,0 -1.78499,-0.9 -2.88499,-2 -2.62605,-2.62605 -4.21707,-2.53899 -3.81955,0.20901 0.19063,1.31779 1.23224,2.42726 2.58179,2.75 1.24423,0.29754 3.15012,2.00349 4.2353,3.79099 2.09269,3.44705 4.00246,4.26528 4.00246,1.71482 z m -114.25,-25.09511 c 2.6756,-0.71703 2.92346,-3.41225 0.63499,-6.90489 -1.77659,-2.71142 -4.38499,-3.30627 -4.38499,-1 0,0.80564 -0.9,1.94648 -2,2.53518 -1.16955,0.62592 -2,2.09382 -2,3.53518 0,2.02554 0.49011,2.46239 2.75,2.45116 1.5125,-0.007 3.7625,-0.28499 5,-0.61663 z m 11.69721,-16.45512 c -0.32197,-0.52097 -1.01165,-0.68378 -1.53262,-0.3618 -0.52097,0.32197 -0.68378,1.01165 -0.3618,1.53262 0.32197,0.52097 1.01165,0.68378 1.53262,0.3618 0.52097,-0.32197 0.68378,-1.01165 0.3618,-1.53262 z m 40.37611,-3.24746 c 0.24417,-1.25897 -0.41466,-1.66713 -2.69098,-1.66713 -3.82829,0 -4.97436,1.73184 -1.94658,2.94151 2.94514,1.17665 4.23072,0.82338 4.63756,-1.27438 z m -21.32332,-5.66713 c 0.33992,-0.55 0.14148,-1 -0.44098,-1 -0.58246,0 -1.05902,0.45 -1.05902,1 0,0.55 0.19844,1 0.44098,1 0.24254,0 0.7191,-0.45 1.05902,-1 z m -1.89423,-5.47735 c 2.76561,-1.81209 3.13162,-3.52265 0.75376,-3.52265 -2.27454,0 -10.35953,4.14265 -10.35953,5.3081 0,1.34986 6.72977,0.099 9.60577,-1.78545 z m 6.39423,-3.52265 c 0,-0.55 -0.42344,-1 -0.94098,-1 -0.51754,0 -1.2191,0.45 -1.55902,1 -0.33992,0.55 0.0835,1 0.94098,1 0.85746,0 1.55902,-0.45 1.55902,-1 z m 18.70655,191.37322 c -0.95119,-0.95119 1.76371,-5.55953 4.95417,-8.40934 5.8153,-5.19439 11.28625,-7.31963 20.02331,-7.77821 4.52735,-0.23762 9.03805,-0.11947 10.02376,0.26256 3.34929,1.29809 -1.48855,3.55071 -7.64892,3.56154 -7.2026,0.0127 -14.53527,3.39232 -19.21041,8.85416 -3.20926,3.7493 -6.48849,5.1627 -8.14191,3.50929 z m -2.12699,-21.2445 c -0.29617,-0.4792 1.25227,-0.82432 3.44098,-0.76693 2.1887,0.0574 3.97946,0.44947 3.97946,0.87128 0,1.06356 -6.75737,0.96853 -7.42044,-0.10435 z m 14.18634,-3.23985 c -0.95306,-0.53336 -2.75278,-0.85269 -3.99937,-0.70962 -3.74536,0.42987 -13.91975,-2.21796 -13.49404,-3.51174 0.21129,-0.64213 1.32874,-1.30703 2.48322,-1.47754 1.15448,-0.17052 2.63683,-0.95802 3.29411,-1.75 0.65729,-0.79199 2.15247,-1.43342 3.32262,-1.42542 2.53902,0.0174 10.61751,2.73222 12.31005,4.1369 0.65904,0.54696 2.10464,0.84914 3.21244,0.67151 1.10779,-0.17763 2.05245,0.12704 2.09923,0.67704 0.0468,0.55 -0.94526,1.15353 -2.20455,1.34118 -1.25929,0.18764 -2.96489,0.94333 -3.79024,1.6793 -1.04605,0.93278 -2.02554,1.04438 -3.23347,0.36839 z m 23.2341,-5.88887 c -1.375,-0.44035 -4.05996,-0.8455 -5.96657,-0.90032 -3.97813,-0.11439 -12.03343,-2.9497 -12.03343,-4.23554 0,-0.47528 1.13111,-0.86414 2.51357,-0.86414 1.38246,0 3.41302,-0.56172 4.51235,-1.24826 1.65298,-1.0323 2.4724,-0.95016 4.73643,0.47483 1.50571,0.9477 4.65015,2.61843 6.98765,3.71272 6.18883,2.8973 5.64679,5.10932 -0.75,3.06071 z m -39.4287,-37.88464 c -1.20086,-1.94303 0.55906,-3.32323 3.65764,-2.86845 5.73057,0.84107 20.32902,-4.10615 27.9731,-9.47969 2.79454,-1.96448 3.50623,0.23338 0.79796,2.4643 -3.43929,2.8331 -14.41204,7.90393 -19.39037,8.96086 -8.29973,1.76209 -12.34285,2.0483 -13.03833,0.92298 z m -6.64482,-13.19406 c -2.82452,-3.02366 -5.34361,-9.43735 -4.34274,-11.05679 0.27981,-0.45275 -0.03,-1.82981 -0.68844,-3.06015 -1.92482,-3.59656 -1.13569,-11.74254 1.65464,-17.08052 l 2.49666,-4.77615 -2.68467,-2.48807 c -2.45815,-2.27814 -2.57082,-2.7008 -1.3353,-5.00938 0.74215,-1.38673 2.33082,-3.06783 3.53037,-3.73578 1.19955,-0.66795 4.15245,-2.29157 6.562,-3.60804 2.40955,-1.31648 6.26695,-3.93643 8.572,-5.82212 3.01647,-2.46768 4.97823,-3.33826 7,-3.10642 2.46474,0.28264 2.77199,0.68978 2.50705,3.32212 -0.16607,1.65 -0.84726,3.45 -1.51375,4 -1.61124,1.32962 -4.6843,6.18077 -4.6843,7.39466 0,0.53077 2.02946,1.97859 4.5099,3.21739 5.63013,2.81182 7.00903,4.35563 8.38513,9.38795 1.33881,4.89593 1.45216,16.16739 0.17056,16.95947 -0.51393,0.31762 -1.62486,2.95251 -2.46872,5.85531 -1.95241,6.71604 -4.64767,9.20293 -12.06896,11.13593 -9.11825,2.37501 -12.24003,2.06898 -15.60143,-1.52941 z m 16.22352,-2.4213 c 0,-0.5225 -0.48375,-1.11125 -1.075,-1.30833 -0.59125,-0.19709 -1.075,0.39166 -1.075,1.30833 0,0.91667 0.48375,1.50542 1.075,1.30833 0.59125,-0.19708 1.075,-0.78583 1.075,-1.30833 z m 6.68637,-8.27021 c 3.06576,-4.30545 4.7275,-14.4044 3.20587,-19.48313 -2.06184,-6.88182 -5.51836,-10.54555 -10.67927,-11.31948 -5.34222,-0.80112 -7.7209,0.95932 -12.43928,9.2062 -2.46097,4.30133 -2.93023,6.167 -2.77235,11.02218 0.10453,3.21444 0.37413,6.19704 0.59911,6.628 0.22499,0.43096 1.98505,-0.60016 3.91124,-2.29138 5.10912,-4.48587 9.14246,-2.94779 12.4394,4.74366 1.00531,2.34529 2.26318,4.26416 2.79528,4.26416 0.53209,0 1.85509,-1.24659 2.94,-2.77021 z"
         id="path4359"
         inkscape:connector-curvature="0" />
    </g>
    <path
       style="fill:#d40000;fill-opacity:1;fill-rule:evenodd;stroke:#000000;stroke-width:1px;stroke-linecap:butt;stroke-linejoin:miter;stroke-opacity:1;filter:url(#filter3152)"
       d="M 406.8165,242.80224 C 426.94017,132.76998 354.05834,27.262805 244.0261,7.1391249 133.99384,-12.984545 28.486657,59.897285 8.3629768,169.92952 -11.760693,279.96178 61.121137,385.46896 171.15338,405.59264 281.18564,425.71631 386.69282,352.83448 406.8165,242.80224 z m -29.8464,-4.95029 C 359.80727,331.69491 269.80309,393.86764 175.96012,376.7048 82.117157,359.54197 19.975177,269.54342 37.138017,175.70045 54.300837,81.857495 144.27428,19.679155 238.11725,36.841985 331.96021,54.004805 394.13293,144.00898 376.9701,237.85195 z"
       id="path2987"
       inkscape:connector-curvature="0" />
    <path
       style="opacity:0.53556483;fill:#ffaaaa;fill-opacity:1;fill-rule:evenodd;stroke:none"
       d="M 23.669657,212.56021 C 27.501067,313.75174 112.6588,392.66595 213.85032,388.83455 315.04184,385.00314 393.95724,299.87664 390.12583,198.68511 386.29442,97.493595 301.16674,18.546975 199.97522,22.378385 98.783697,26.209785 19.838247,111.36869 23.669657,212.56021 z m 11.38529,0.88236 C 31.445427,118.11137 105.81392,37.889655 201.14512,34.280145 296.47631,30.670625 376.66681,105.04028 380.27633,200.37148 383.88585,295.70268 309.54858,375.92323 214.21739,379.53275 118.88621,383.14226 38.664467,308.77377 35.054947,213.44257 z"
       id="path3339"
       inkscape:connector-curvature="0" />
    <path
       style="fill:#f9f9f9;fill-opacity:1;fill-rule:evenodd;stroke:none"
       d="m 202.88909,173.23408 c -0.74111,-1.34563 -1.13918,-2.11201 -1.92103,-3.34095 -2.01119,-2.69912 -2.79855,-3.33791 -6.00835,-4.52701 -1.36666,-0.24767 -2.1964,-0.4743 -4.51982,-0.78291 -1.88999,0.27318 -2.73039,0.61124 -4.60614,1.37747 -3.6526,3.36465 -3.05652,-1.52017 -3.15586,-2.8436 -0.0367,-3.77096 0.59229,-5.59872 2.36515,-8.79977 1.13163,-1.7746 3.15163,-5.30649 4.64602,-6.81898 1.42801,-1.6936 3.48027,-2.97308 5.79952,-2.87444 3.37165,-0.0791 8.22654,2.69935 10.07355,5.49626 0.94407,1.31187 1.69007,3.06485 2.3321,4.29998 0.2694,1.54088 0.78684,2.78944 1.04838,4.33529 0.13319,1.72022 0.0445,4.04389 -0.23224,5.8756 -0.0481,1.51333 -0.46989,3.49271 -0.63434,4.99574 -0.27017,1.70217 -0.75055,2.11469 -1.19949,3.80812 -0.17002,0.56647 -1.09069,4.39987 -3.22984,1.31442 z"
       id="path4938"
       inkscape:connector-curvature="0"
       sodipodi:nodetypes="ccccccccccccccccc" />
    <path
       style="fill:#f9f9f9;fill-opacity:1;fill-rule:evenodd;stroke:none"
       d="m 137.54499,175.93819 c -0.31709,-1.23829 -0.16929,-1.84513 -0.40628,-3.20419 -0.10393,-1.98015 -0.30801,-4.19674 -0.14151,-6.17194 0.34625,-2.2206 0.39546,-5.79804 1.24573,-7.89728 0.85417,-1.48468 3.35206,-1.62541 4.89151,-1.33919 3.0112,0.0551 3.92135,0.23677 6.26564,1.84975 2.14899,1.54167 7.13071,6.1435 7.46709,8.86258 0.19639,1.3382 -2.92631,2.95837 -4.11707,2.99215 -2.15777,0.18524 -3.56743,0.12535 -5.64909,0.82993 -2.15882,0.68081 -5.14799,2.76558 -6.3727,4.75375 -0.46015,0.65633 -3.17962,3.23833 -2.91545,-0.006 z"
       id="path4942"
       inkscape:connector-curvature="0"
       sodipodi:nodetypes="cccccccccccc" />
  </g>
</svg>
